{
    "asset" : {
        "generator" : "Khronos glTF Blender I/O v1.6.16",
        "version" : "2.0"
    },
    "scene" : 0,
    "scenes" : [
        {
            "name" : "Scene",
            "nodes" : [
                0
            ]
        }
    ],
    "nodes" : [
        {
            "mesh" : 0,
            "name" : "AR_1"
        }
    ],
    "materials" : [
        {
            "doubleSided" : true,
            "name" : "Black",
            "pbrMetallicRoughness" : {
                "baseColorFactor" : [
                    0.0290982685983181,
                    0.0290982685983181,
                    0.0290982685983181,
                    1
                ],
                "metallicFactor" : 0,
                "roughnessFactor" : 0.5
            }
        },
        {
            "doubleSided" : true,
            "name" : "Grey",
            "pbrMetallicRoughness" : {
                "baseColorFactor" : [
                    0.10247143357992172,
                    0.10247143357992172,
                    0.10247143357992172,
                    1
                ],
                "metallicFactor" : 0,
                "roughnessFactor" : 0.5
            }
        },
        {
            "doubleSided" : true,
            "name" : "White",
            "pbrMetallicRoughness" : {
                "baseColorFactor" : [
                    0.4575273394584656,
                    0.4575273394584656,
                    0.4575273394584656,
                    1
                ],
                "metallicFactor" : 0,
                "roughnessFactor" : 0.5
            }
        },
        {
            "doubleSided" : true,
            "name" : "Main",
            "pbrMetallicRoughness" : {
                "baseColorFactor" : [
                    0.6151726245880127,
                    0.21127153933048248,
                    0.028615577146410942,
                    1
                ],
                "metallicFactor" : 0,
                "roughnessFactor" : 0.5
            }
        }
    ],
    "meshes" : [
        {
            "name" : "Cube.003",
            "primitives" : [
                {
                    "attributes" : {
                        "POSITION" : 0,
                        "NORMAL" : 1
                    },
                    "indices" : 2,
                    "material" : 0
                },
                {
                    "attributes" : {
                        "POSITION" : 3,
                        "NORMAL" : 4
                    },
                    "indices" : 5,
                    "material" : 1
                },
                {
                    "attributes" : {
                        "POSITION" : 6,
                        "NORMAL" : 7
                    },
                    "indices" : 8,
                    "material" : 2
                },
                {
                    "attributes" : {
                        "POSITION" : 9,
                        "NORMAL" : 10
                    },
                    "indices" : 11,
                    "material" : 3
                }
            ]
        }
    ],
    "accessors" : [
        {
            "bufferView" : 0,
            "componentType" : 5126,
            "count" : 1570,
            "max" : [
                0.986038327217102,
                0.38673362135887146,
                0.06830154359340668
            ],
            "min" : [
                -0.9053236246109009,
                -0.12700077891349792,
                -0.06830154359340668
            ],
            "type" : "VEC3"
        },
        {
            "bufferView" : 1,
            "componentType" : 5126,
            "count" : 1570,
            "type" : "VEC3"
        },
        {
            "bufferView" : 2,
            "componentType" : 5123,
            "count" : 4296,
            "type" : "SCALAR"
        },
        {
            "bufferView" : 3,
            "componentType" : 5126,
            "count" : 722,
            "max" : [
                0.9758862257003784,
                0.3305415213108063,
                0.03679542616009712
            ],
            "min" : [
                -0.688759446144104,
                -0.15507735311985016,
                -0.03679542616009712
            ],
            "type" : "VEC3"
        },
        {
            "bufferView" : 4,
            "componentType" : 5126,
            "count" : 722,
            "type" : "VEC3"
        },
        {
            "bufferView" : 5,
            "componentType" : 5123,
            "count" : 1890,
            "type" : "SCALAR"
        },
        {
            "bufferView" : 6,
            "componentType" : 5126,
            "count" : 674,
            "max" : [
                0.897597074508667,
                0.39770054817199707,
                0.06051814183592796
            ],
            "min" : [
                -0.8229615092277527,
                -0.13873907923698425,
                -0.06051814183592796
            ],
            "type" : "VEC3"
        },
        {
            "bufferView" : 7,
            "componentType" : 5126,
            "count" : 674,
            "type" : "VEC3"
        },
        {
            "bufferView" : 8,
            "componentType" : 5123,
            "count" : 2274,
            "type" : "SCALAR"
        },
        {
            "bufferView" : 9,
            "componentType" : 5126,
            "count" : 194,
            "max" : [
                0.9365083575248718,
                0.39770054817199707,
                0.058324746787548065
            ],
            "min" : [
                -0.8789411187171936,
                0.050594430416822433,
                -0.058324746787548065
            ],
            "type" : "VEC3"
        },
        {
            "bufferView" : 10,
            "componentType" : 5126,
            "count" : 194,
            "type" : "VEC3"
        },
        {
            "bufferView" : 11,
            "componentType" : 5123,
            "count" : 552,
            "type" : "SCALAR"
        }
    ],
    "bufferViews" : [
        {
            "buffer" : 0,
            "byteLength" : 18840,
            "byteOffset" : 0
        },
        {
            "buffer" : 0,
            "byteLength" : 18840,
            "byteOffset" : 18840
        },
        {
            "buffer" : 0,
            "byteLength" : 8592,
            "byteOffset" : 37680
        },
        {
            "buffer" : 0,
            "byteLength" : 8664,
            "byteOffset" : 46272
        },
        {
            "buffer" : 0,
            "byteLength" : 8664,
            "byteOffset" : 54936
        },
        {
            "buffer" : 0,
            "byteLength" : 3780,
            "byteOffset" : 63600
        },
        {
            "buffer" : 0,
            "byteLength" : 8088,
            "byteOffset" : 67380
        },
        {
            "buffer" : 0,
            "byteLength" : 8088,
            "byteOffset" : 75468
        },
        {
            "buffer" : 0,
            "byteLength" : 4548,
            "byteOffset" : 83556
        },
        {
            "buffer" : 0,
            "byteLength" : 2328,
            "byteOffset" : 88104
        },
        {
            "buffer" : 0,
            "byteLength" : 2328,
            "byteOffset" : 90432
        },
        {
            "buffer" : 0,
            "byteLength" : 1104,
            "byteOffset" : 92760
        }
    ],
    "buffers" : [
        {
            "byteLength" : 93864,
            "uri" : "data:application/octet-stream;base64,"
        }
    ]
}
