{
    "asset" : {
        "generator" : "Khronos glTF Blender I/O v1.6.16",
        "version" : "2.0"
    },
    "scene" : 0,
    "scenes" : [
        {
            "name" : "Scene",
            "nodes" : [
                0
            ]
        }
    ],
    "nodes" : [
        {
            "mesh" : 0,
            "name" : "AR_2"
        }
    ],
    "materials" : [
        {
            "doubleSided" : true,
            "name" : "Black",
            "pbrMetallicRoughness" : {
                "baseColorFactor" : [
                    0.0290982685983181,
                    0.0290982685983181,
                    0.0290982685983181,
                    1
                ],
                "metallicFactor" : 0,
                "roughnessFactor" : 0.5
            }
        },
        {
            "doubleSided" : true,
            "name" : "Grey",
            "pbrMetallicRoughness" : {
                "baseColorFactor" : [
                    0.10247143357992172,
                    0.10247143357992172,
                    0.10247143357992172,
                    1
                ],
                "metallicFactor" : 0,
                "roughnessFactor" : 0.5
            }
        },
        {
            "doubleSided" : true,
            "name" : "White",
            "pbrMetallicRoughness" : {
                "baseColorFactor" : [
                    0.4575273394584656,
                    0.4575273394584656,
                    0.4575273394584656,
                    1
                ],
                "metallicFactor" : 0,
                "roughnessFactor" : 0.5
            }
        },
        {
            "doubleSided" : true,
            "name" : "Main",
            "pbrMetallicRoughness" : {
                "baseColorFactor" : [
                    0.6151726245880127,
                    0.21127153933048248,
                    0.028615577146410942,
                    1
                ],
                "metallicFactor" : 0,
                "roughnessFactor" : 0.5
            }
        }
    ],
    "meshes" : [
        {
            "name" : "Cube.041",
            "primitives" : [
                {
                    "attributes" : {
                        "POSITION" : 0,
                        "NORMAL" : 1
                    },
                    "indices" : 2,
                    "material" : 0
                },
                {
                    "attributes" : {
                        "POSITION" : 3,
                        "NORMAL" : 4
                    },
                    "indices" : 5,
                    "material" : 1
                },
                {
                    "attributes" : {
                        "POSITION" : 6,
                        "NORMAL" : 7
                    },
                    "indices" : 8,
                    "material" : 2
                },
                {
                    "attributes" : {
                        "POSITION" : 9,
                        "NORMAL" : 10
                    },
                    "indices" : 11,
                    "material" : 3
                }
            ]
        }
    ],
    "accessors" : [
        {
            "bufferView" : 0,
            "componentType" : 5126,
            "count" : 2273,
            "max" : [
                0.4998091757297516,
                0.4147585332393646,
                0.06778261065483093
            ],
            "min" : [
                -0.9925785064697266,
                -0.07162892818450928,
                -0.06778252124786377
            ],
            "type" : "VEC3"
        },
        {
            "bufferView" : 1,
            "componentType" : 5126,
            "count" : 2273,
            "type" : "VEC3"
        },
        {
            "bufferView" : 2,
            "componentType" : 5123,
            "count" : 8631,
            "type" : "SCALAR"
        },
        {
            "bufferView" : 3,
            "componentType" : 5126,
            "count" : 498,
            "max" : [
                0.4862704575061798,
                0.35350072383880615,
                0.031495265662670135
            ],
            "min" : [
                -0.9125812649726868,
                -0.04441966488957405,
                -0.03149528056383133
            ],
            "type" : "VEC3"
        },
        {
            "bufferView" : 4,
            "componentType" : 5126,
            "count" : 498,
            "type" : "VEC3"
        },
        {
            "bufferView" : 5,
            "componentType" : 5123,
            "count" : 1368,
            "type" : "SCALAR"
        },
        {
            "bufferView" : 6,
            "componentType" : 5126,
            "count" : 112,
            "max" : [
                0.40481287240982056,
                0.40003401041030884,
                0.0636574849486351
            ],
            "min" : [
                -0.7619847655296326,
                0.14990031719207764,
                -0.06365740299224854
            ],
            "type" : "VEC3"
        },
        {
            "bufferView" : 7,
            "componentType" : 5126,
            "count" : 112,
            "type" : "VEC3"
        },
        {
            "bufferView" : 8,
            "componentType" : 5123,
            "count" : 258,
            "type" : "SCALAR"
        },
        {
            "bufferView" : 9,
            "componentType" : 5126,
            "count" : 128,
            "max" : [
                0.44799330830574036,
                0.40003401041030884,
                0.0636574849486351
            ],
            "min" : [
                -0.6177125573158264,
                0.14990031719207764,
                -0.06365740299224854
            ],
            "type" : "VEC3"
        },
        {
            "bufferView" : 10,
            "componentType" : 5126,
            "count" : 128,
            "type" : "VEC3"
        },
        {
            "bufferView" : 11,
            "componentType" : 5123,
            "count" : 354,
            "type" : "SCALAR"
        }
    ],
    "bufferViews" : [
        {
            "buffer" : 0,
            "byteLength" : 27276,
            "byteOffset" : 0
        },
        {
            "buffer" : 0,
            "byteLength" : 27276,
            "byteOffset" : 27276
        },
        {
            "buffer" : 0,
            "byteLength" : 17262,
            "byteOffset" : 54552
        },
        {
            "buffer" : 0,
            "byteLength" : 5976,
            "byteOffset" : 71816
        },
        {
            "buffer" : 0,
            "byteLength" : 5976,
            "byteOffset" : 77792
        },
        {
            "buffer" : 0,
            "byteLength" : 2736,
            "byteOffset" : 83768
        },
        {
            "buffer" : 0,
            "byteLength" : 1344,
            "byteOffset" : 86504
        },
        {
            "buffer" : 0,
            "byteLength" : 1344,
            "byteOffset" : 87848
        },
        {
            "buffer" : 0,
            "byteLength" : 516,
            "byteOffset" : 89192
        },
        {
            "buffer" : 0,
            "byteLength" : 1536,
            "byteOffset" : 89708
        },
        {
            "buffer" : 0,
            "byteLength" : 1536,
            "byteOffset" : 91244
        },
        {
            "buffer" : 0,
            "byteLength" : 708,
            "byteOffset" : 92780
        }
    ],
    "buffers" : [
        {
            "byteLength" : 93488,
            "uri" : "data:application/octet-stream;base64,"
        }
    ]
}
