{
    "asset" : {
        "generator" : "Khronos glTF Blender I/O v1.6.16",
        "version" : "2.0"
    },
    "scene" : 0,
    "scenes" : [
        {
            "name" : "Scene",
            "nodes" : [
                0,
                1
            ]
        }
    ],
    "nodes" : [
        {
            "mesh" : 0,
            "name" : "AR_3"
        },
        {
            "mesh" : 1,
            "name" : "Magazine_AR_2",
            "translation" : [
                0.41278958320617676,
                0.07141687721014023,
                0
            ]
        }
    ],
    "materials" : [
        {
            "doubleSided" : true,
            "name" : "Black",
            "pbrMetallicRoughness" : {
                "baseColorFactor" : [
                    0.0290982685983181,
                    0.0290982685983181,
                    0.0290982685983181,
                    1
                ],
                "metallicFactor" : 0,
                "roughnessFactor" : 0.5
            }
        },
        {
            "doubleSided" : true,
            "name" : "Grey",
            "pbrMetallicRoughness" : {
                "baseColorFactor" : [
                    0.10247143357992172,
                    0.10247143357992172,
                    0.10247143357992172,
                    1
                ],
                "metallicFactor" : 0,
                "roughnessFactor" : 0.5
            }
        },
        {
            "doubleSided" : true,
            "name" : "White",
            "pbrMetallicRoughness" : {
                "baseColorFactor" : [
                    0.4575273394584656,
                    0.4575273394584656,
                    0.4575273394584656,
                    1
                ],
                "metallicFactor" : 0,
                "roughnessFactor" : 0.5
            }
        },
        {
            "doubleSided" : true,
            "name" : "Main",
            "pbrMetallicRoughness" : {
                "baseColorFactor" : [
                    0.6151726245880127,
                    0.21127153933048248,
                    0.028615577146410942,
                    1
                ],
                "metallicFactor" : 0,
                "roughnessFactor" : 0.5
            }
        }
    ],
    "meshes" : [
        {
            "name" : "Cube.055",
            "primitives" : [
                {
                    "attributes" : {
                        "POSITION" : 0,
                        "NORMAL" : 1
                    },
                    "indices" : 2,
                    "material" : 0
                },
                {
                    "attributes" : {
                        "POSITION" : 3,
                        "NORMAL" : 4
                    },
                    "indices" : 5,
                    "material" : 1
                },
                {
                    "attributes" : {
                        "POSITION" : 6,
                        "NORMAL" : 7
                    },
                    "indices" : 8,
                    "material" : 2
                },
                {
                    "attributes" : {
                        "POSITION" : 9,
                        "NORMAL" : 10
                    },
                    "indices" : 11,
                    "material" : 3
                }
            ]
        },
        {
            "name" : "Cube.102",
            "primitives" : [
                {
                    "attributes" : {
                        "POSITION" : 12,
                        "NORMAL" : 13
                    },
                    "indices" : 14,
                    "material" : 0
                }
            ]
        }
    ],
    "accessors" : [
        {
            "bufferView" : 0,
            "componentType" : 5126,
            "count" : 1855,
            "max" : [
                0.8277585506439209,
                0.4082084894180298,
                0.06548255681991577
            ],
            "min" : [
                -0.7212671041488647,
                -0.12479623407125473,
                -0.06548193097114563
            ],
            "type" : "VEC3"
        },
        {
            "bufferView" : 1,
            "componentType" : 5126,
            "count" : 1855,
            "type" : "VEC3"
        },
        {
            "bufferView" : 2,
            "componentType" : 5123,
            "count" : 5373,
            "type" : "SCALAR"
        },
        {
            "bufferView" : 3,
            "componentType" : 5126,
            "count" : 602,
            "max" : [
                0.7937317490577698,
                0.30485567450523376,
                0.04553915932774544
            ],
            "min" : [
                -0.6185842156410217,
                0.032449349761009216,
                -0.045538533478975296
            ],
            "type" : "VEC3"
        },
        {
            "bufferView" : 4,
            "componentType" : 5126,
            "count" : 602,
            "type" : "VEC3"
        },
        {
            "bufferView" : 5,
            "componentType" : 5123,
            "count" : 1638,
            "type" : "SCALAR"
        },
        {
            "bufferView" : 6,
            "componentType" : 5126,
            "count" : 387,
            "max" : [
                0.8278378844261169,
                0.42996376752853394,
                0.06548255681991577
            ],
            "min" : [
                -0.660395622253418,
                0.004218356683850288,
                -0.06548193097114563
            ],
            "type" : "VEC3"
        },
        {
            "bufferView" : 7,
            "componentType" : 5126,
            "count" : 387,
            "type" : "VEC3"
        },
        {
            "bufferView" : 8,
            "componentType" : 5123,
            "count" : 1164,
            "type" : "SCALAR"
        },
        {
            "bufferView" : 9,
            "componentType" : 5126,
            "count" : 196,
            "max" : [
                0.7630422115325928,
                0.38567495346069336,
                0.05637974664568901
            ],
            "min" : [
                -0.6814349293708801,
                0.004218356683850288,
                -0.056379109621047974
            ],
            "type" : "VEC3"
        },
        {
            "bufferView" : 10,
            "componentType" : 5126,
            "count" : 196,
            "type" : "VEC3"
        },
        {
            "bufferView" : 11,
            "componentType" : 5123,
            "count" : 534,
            "type" : "SCALAR"
        },
        {
            "bufferView" : 12,
            "componentType" : 5126,
            "count" : 288,
            "max" : [
                0.12022595852613449,
                1.6492311516458358e-08,
                0.022638386115431786
            ],
            "min" : [
                -0.06230463460087776,
                -0.386641263961792,
                -0.022529222071170807
            ],
            "type" : "VEC3"
        },
        {
            "bufferView" : 13,
            "componentType" : 5126,
            "count" : 288,
            "type" : "VEC3"
        },
        {
            "bufferView" : 14,
            "componentType" : 5123,
            "count" : 852,
            "type" : "SCALAR"
        }
    ],
    "bufferViews" : [
        {
            "buffer" : 0,
            "byteLength" : 22260,
            "byteOffset" : 0
        },
        {
            "buffer" : 0,
            "byteLength" : 22260,
            "byteOffset" : 22260
        },
        {
            "buffer" : 0,
            "byteLength" : 10746,
            "byteOffset" : 44520
        },
        {
            "buffer" : 0,
            "byteLength" : 7224,
            "byteOffset" : 55268
        },
        {
            "buffer" : 0,
            "byteLength" : 7224,
            "byteOffset" : 62492
        },
        {
            "buffer" : 0,
            "byteLength" : 3276,
            "byteOffset" : 69716
        },
        {
            "buffer" : 0,
            "byteLength" : 4644,
            "byteOffset" : 72992
        },
        {
            "buffer" : 0,
            "byteLength" : 4644,
            "byteOffset" : 77636
        },
        {
            "buffer" : 0,
            "byteLength" : 2328,
            "byteOffset" : 82280
        },
        {
            "buffer" : 0,
            "byteLength" : 2352,
            "byteOffset" : 84608
        },
        {
            "buffer" : 0,
            "byteLength" : 2352,
            "byteOffset" : 86960
        },
        {
            "buffer" : 0,
            "byteLength" : 1068,
            "byteOffset" : 89312
        },
        {
            "buffer" : 0,
            "byteLength" : 3456,
            "byteOffset" : 90380
        },
        {
            "buffer" : 0,
            "byteLength" : 3456,
            "byteOffset" : 93836
        },
        {
            "buffer" : 0,
            "byteLength" : 1704,
            "byteOffset" : 97292
        }
    ],
    "buffers" : [
        {
            "byteLength" : 98996,
            "uri" : "data:application/octet-stream;base64,"
        }
    ]
}
