{
    "asset" : {
        "generator" : "Khronos glTF Blender I/O v1.6.16",
        "version" : "2.0"
    },
    "scene" : 0,
    "scenes" : [
        {
            "name" : "Scene",
            "nodes" : [
                0,
                1
            ]
        }
    ],
    "nodes" : [
        {
            "mesh" : 0,
            "name" : "AR_4"
        },
        {
            "mesh" : 1,
            "name" : "Magazine",
            "translation" : [
                0.3033154010772705,
                0.05055255815386772,
                0
            ]
        }
    ],
    "materials" : [
        {
            "doubleSided" : true,
            "name" : "Black",
            "pbrMetallicRoughness" : {
                "baseColorFactor" : [
                    0.0290982685983181,
                    0.0290982685983181,
                    0.0290982685983181,
                    1
                ],
                "metallicFactor" : 0,
                "roughnessFactor" : 0.5
            }
        },
        {
            "doubleSided" : true,
            "name" : "Grey",
            "pbrMetallicRoughness" : {
                "baseColorFactor" : [
                    0.10247143357992172,
                    0.10247143357992172,
                    0.10247143357992172,
                    1
                ],
                "metallicFactor" : 0,
                "roughnessFactor" : 0.5
            }
        },
        {
            "doubleSided" : true,
            "name" : "White",
            "pbrMetallicRoughness" : {
                "baseColorFactor" : [
                    0.4575273394584656,
                    0.4575273394584656,
                    0.4575273394584656,
                    1
                ],
                "metallicFactor" : 0,
                "roughnessFactor" : 0.5
            }
        },
        {
            "doubleSided" : true,
            "name" : "Main",
            "pbrMetallicRoughness" : {
                "baseColorFactor" : [
                    0.6151726245880127,
                    0.21127153933048248,
                    0.028615577146410942,
                    1
                ],
                "metallicFactor" : 0,
                "roughnessFactor" : 0.5
            }
        }
    ],
    "meshes" : [
        {
            "name" : "Cube.142",
            "primitives" : [
                {
                    "attributes" : {
                        "POSITION" : 0,
                        "NORMAL" : 1
                    },
                    "indices" : 2,
                    "material" : 0
                },
                {
                    "attributes" : {
                        "POSITION" : 3,
                        "NORMAL" : 4
                    },
                    "indices" : 5,
                    "material" : 1
                },
                {
                    "attributes" : {
                        "POSITION" : 6,
                        "NORMAL" : 7
                    },
                    "indices" : 8,
                    "material" : 2
                },
                {
                    "attributes" : {
                        "POSITION" : 9,
                        "NORMAL" : 10
                    },
                    "indices" : 11,
                    "material" : 3
                }
            ]
        },
        {
            "name" : "Cube.222",
            "primitives" : [
                {
                    "attributes" : {
                        "POSITION" : 12,
                        "NORMAL" : 13
                    },
                    "indices" : 14,
                    "material" : 0
                }
            ]
        }
    ],
    "accessors" : [
        {
            "bufferView" : 0,
            "componentType" : 5126,
            "count" : 5130,
            "max" : [
                0.8947648406028748,
                0.38259950280189514,
                0.06863072514533997
            ],
            "min" : [
                -0.823830246925354,
                -0.09601101279258728,
                -0.06862001866102219
            ],
            "type" : "VEC3"
        },
        {
            "bufferView" : 1,
            "componentType" : 5126,
            "count" : 5130,
            "type" : "VEC3"
        },
        {
            "bufferView" : 2,
            "componentType" : 5123,
            "count" : 9684,
            "type" : "SCALAR"
        },
        {
            "bufferView" : 3,
            "componentType" : 5126,
            "count" : 574,
            "max" : [
                0.8647807836532593,
                0.36290109157562256,
                0.07305813580751419
            ],
            "min" : [
                -0.8973807692527771,
                -0.09748399257659912,
                -0.07304743677377701
            ],
            "type" : "VEC3"
        },
        {
            "bufferView" : 4,
            "componentType" : 5126,
            "count" : 574,
            "type" : "VEC3"
        },
        {
            "bufferView" : 5,
            "componentType" : 5123,
            "count" : 2112,
            "type" : "SCALAR"
        },
        {
            "bufferView" : 6,
            "componentType" : 5126,
            "count" : 650,
            "max" : [
                0.8249292969703674,
                0.38535356521606445,
                0.06289973109960556
            ],
            "min" : [
                -0.6566693186759949,
                -0.030629916116595268,
                -0.06289000064134598
            ],
            "type" : "VEC3"
        },
        {
            "bufferView" : 7,
            "componentType" : 5126,
            "count" : 650,
            "type" : "VEC3"
        },
        {
            "bufferView" : 8,
            "componentType" : 5123,
            "count" : 1974,
            "type" : "SCALAR"
        },
        {
            "bufferView" : 9,
            "componentType" : 5126,
            "count" : 150,
            "max" : [
                0.8773277401924133,
                0.38535356521606445,
                0.057676050812006
            ],
            "min" : [
                -0.07910403609275818,
                0.11050625890493393,
                -0.057665303349494934
            ],
            "type" : "VEC3"
        },
        {
            "bufferView" : 10,
            "componentType" : 5126,
            "count" : 150,
            "type" : "VEC3"
        },
        {
            "bufferView" : 11,
            "componentType" : 5123,
            "count" : 228,
            "type" : "SCALAR"
        },
        {
            "bufferView" : 12,
            "componentType" : 5126,
            "count" : 232,
            "max" : [
                0.15533636510372162,
                1.1544618416792218e-07,
                0.02754080854356289
            ],
            "min" : [
                -0.08757930248975754,
                -0.3127824068069458,
                -0.02738729864358902
            ],
            "type" : "VEC3"
        },
        {
            "bufferView" : 13,
            "componentType" : 5126,
            "count" : 232,
            "type" : "VEC3"
        },
        {
            "bufferView" : 14,
            "componentType" : 5123,
            "count" : 696,
            "type" : "SCALAR"
        }
    ],
    "bufferViews" : [
        {
            "buffer" : 0,
            "byteLength" : 61560,
            "byteOffset" : 0
        },
        {
            "buffer" : 0,
            "byteLength" : 61560,
            "byteOffset" : 61560
        },
        {
            "buffer" : 0,
            "byteLength" : 19368,
            "byteOffset" : 123120
        },
        {
            "buffer" : 0,
            "byteLength" : 6888,
            "byteOffset" : 142488
        },
        {
            "buffer" : 0,
            "byteLength" : 6888,
            "byteOffset" : 149376
        },
        {
            "buffer" : 0,
            "byteLength" : 4224,
            "byteOffset" : 156264
        },
        {
            "buffer" : 0,
            "byteLength" : 7800,
            "byteOffset" : 160488
        },
        {
            "buffer" : 0,
            "byteLength" : 7800,
            "byteOffset" : 168288
        },
        {
            "buffer" : 0,
            "byteLength" : 3948,
            "byteOffset" : 176088
        },
        {
            "buffer" : 0,
            "byteLength" : 1800,
            "byteOffset" : 180036
        },
        {
            "buffer" : 0,
            "byteLength" : 1800,
            "byteOffset" : 181836
        },
        {
            "buffer" : 0,
            "byteLength" : 456,
            "byteOffset" : 183636
        },
        {
            "buffer" : 0,
            "byteLength" : 2784,
            "byteOffset" : 184092
        },
        {
            "buffer" : 0,
            "byteLength" : 2784,
            "byteOffset" : 186876
        },
        {
            "buffer" : 0,
            "byteLength" : 1392,
            "byteOffset" : 189660
        }
    ],
    "buffers" : [
        {
            "byteLength" : 191052,
            "uri" : "data:application/octet-stream;base64,"
        }
    ]
}
