{
    "asset" : {
        "generator" : "Khronos glTF Blender I/O v1.6.16",
        "version" : "2.0"
    },
    "scene" : 0,
    "scenes" : [
        {
            "name" : "Scene",
            "nodes" : [
                0
            ]
        }
    ],
    "nodes" : [
        {
            "mesh" : 0,
            "name" : "AR_5"
        }
    ],
    "materials" : [
        {
            "doubleSided" : true,
            "name" : "Black",
            "pbrMetallicRoughness" : {
                "baseColorFactor" : [
                    0.0290982685983181,
                    0.0290982685983181,
                    0.0290982685983181,
                    1
                ],
                "metallicFactor" : 0,
                "roughnessFactor" : 0.5
            }
        },
        {
            "doubleSided" : true,
            "name" : "Grey",
            "pbrMetallicRoughness" : {
                "baseColorFactor" : [
                    0.10247143357992172,
                    0.10247143357992172,
                    0.10247143357992172,
                    1
                ],
                "metallicFactor" : 0,
                "roughnessFactor" : 0.5
            }
        },
        {
            "doubleSided" : true,
            "name" : "White",
            "pbrMetallicRoughness" : {
                "baseColorFactor" : [
                    0.4575273394584656,
                    0.4575273394584656,
                    0.4575273394584656,
                    1
                ],
                "metallicFactor" : 0,
                "roughnessFactor" : 0.5
            }
        },
        {
            "doubleSided" : true,
            "name" : "Main",
            "pbrMetallicRoughness" : {
                "baseColorFactor" : [
                    0.6151726245880127,
                    0.21127153933048248,
                    0.028615577146410942,
                    1
                ],
                "metallicFactor" : 0,
                "roughnessFactor" : 0.5
            }
        }
    ],
    "meshes" : [
        {
            "name" : "Cube.188",
            "primitives" : [
                {
                    "attributes" : {
                        "POSITION" : 0,
                        "NORMAL" : 1
                    },
                    "indices" : 2,
                    "material" : 0
                },
                {
                    "attributes" : {
                        "POSITION" : 3,
                        "NORMAL" : 4
                    },
                    "indices" : 5,
                    "material" : 1
                },
                {
                    "attributes" : {
                        "POSITION" : 6,
                        "NORMAL" : 7
                    },
                    "indices" : 8,
                    "material" : 2
                },
                {
                    "attributes" : {
                        "POSITION" : 9,
                        "NORMAL" : 10
                    },
                    "indices" : 11,
                    "material" : 3
                }
            ]
        }
    ],
    "accessors" : [
        {
            "bufferView" : 0,
            "componentType" : 5126,
            "count" : 1373,
            "max" : [
                0.4113450348377228,
                0.4429126977920532,
                0.06853146851062775
            ],
            "min" : [
                -1.0492308139801025,
                -0.0907110720872879,
                -0.06853146106004715
            ],
            "type" : "VEC3"
        },
        {
            "bufferView" : 1,
            "componentType" : 5126,
            "count" : 1373,
            "type" : "VEC3"
        },
        {
            "bufferView" : 2,
            "componentType" : 5123,
            "count" : 5412,
            "type" : "SCALAR"
        },
        {
            "bufferView" : 3,
            "componentType" : 5126,
            "count" : 312,
            "max" : [
                0.3940703868865967,
                0.3972216844558716,
                0.07388755679130554
            ],
            "min" : [
                -1.0219978094100952,
                -0.024470895528793335,
                -0.07388756424188614
            ],
            "type" : "VEC3"
        },
        {
            "bufferView" : 4,
            "componentType" : 5126,
            "count" : 312,
            "type" : "VEC3"
        },
        {
            "bufferView" : 5,
            "componentType" : 5123,
            "count" : 876,
            "type" : "SCALAR"
        },
        {
            "bufferView" : 6,
            "componentType" : 5126,
            "count" : 226,
            "max" : [
                0.3605698049068451,
                0.4470244348049164,
                0.06853146106004715
            ],
            "min" : [
                -0.9265172481536865,
                -0.0037146781105548143,
                -0.06853145360946655
            ],
            "type" : "VEC3"
        },
        {
            "bufferView" : 7,
            "componentType" : 5126,
            "count" : 226,
            "type" : "VEC3"
        },
        {
            "bufferView" : 8,
            "componentType" : 5123,
            "count" : 402,
            "type" : "SCALAR"
        },
        {
            "bufferView" : 9,
            "componentType" : 5126,
            "count" : 86,
            "max" : [
                0.5235434770584106,
                0.2740626335144043,
                0.058327700942754745
            ],
            "min" : [
                -0.42730623483657837,
                0.12169863283634186,
                -0.05831395834684372
            ],
            "type" : "VEC3"
        },
        {
            "bufferView" : 10,
            "componentType" : 5126,
            "count" : 86,
            "type" : "VEC3"
        },
        {
            "bufferView" : 11,
            "componentType" : 5123,
            "count" : 132,
            "type" : "SCALAR"
        }
    ],
    "bufferViews" : [
        {
            "buffer" : 0,
            "byteLength" : 16476,
            "byteOffset" : 0
        },
        {
            "buffer" : 0,
            "byteLength" : 16476,
            "byteOffset" : 16476
        },
        {
            "buffer" : 0,
            "byteLength" : 10824,
            "byteOffset" : 32952
        },
        {
            "buffer" : 0,
            "byteLength" : 3744,
            "byteOffset" : 43776
        },
        {
            "buffer" : 0,
            "byteLength" : 3744,
            "byteOffset" : 47520
        },
        {
            "buffer" : 0,
            "byteLength" : 1752,
            "byteOffset" : 51264
        },
        {
            "buffer" : 0,
            "byteLength" : 2712,
            "byteOffset" : 53016
        },
        {
            "buffer" : 0,
            "byteLength" : 2712,
            "byteOffset" : 55728
        },
        {
            "buffer" : 0,
            "byteLength" : 804,
            "byteOffset" : 58440
        },
        {
            "buffer" : 0,
            "byteLength" : 1032,
            "byteOffset" : 59244
        },
        {
            "buffer" : 0,
            "byteLength" : 1032,
            "byteOffset" : 60276
        },
        {
            "buffer" : 0,
            "byteLength" : 264,
            "byteOffset" : 61308
        }
    ],
    "buffers" : [
        {
            "byteLength" : 61572,
            "uri" : "data:application/octet-stream;base64,"
        }
    ]
}
