{
    "asset" : {
        "generator" : "Khronos glTF Blender I/O v1.6.16",
        "version" : "2.0"
    },
    "scene" : 0,
    "scenes" : [
        {
            "name" : "Scene",
            "nodes" : [
                0
            ]
        }
    ],
    "nodes" : [
        {
            "mesh" : 0,
            "name" : "AR_6"
        }
    ],
    "materials" : [
        {
            "doubleSided" : true,
            "name" : "Black",
            "pbrMetallicRoughness" : {
                "baseColorFactor" : [
                    0.0290982685983181,
                    0.0290982685983181,
                    0.0290982685983181,
                    1
                ],
                "metallicFactor" : 0,
                "roughnessFactor" : 0.5
            }
        },
        {
            "doubleSided" : true,
            "name" : "Grey",
            "pbrMetallicRoughness" : {
                "baseColorFactor" : [
                    0.10247143357992172,
                    0.10247143357992172,
                    0.10247143357992172,
                    1
                ],
                "metallicFactor" : 0,
                "roughnessFactor" : 0.5
            }
        },
        {
            "doubleSided" : true,
            "name" : "White",
            "pbrMetallicRoughness" : {
                "baseColorFactor" : [
                    0.4575273394584656,
                    0.4575273394584656,
                    0.4575273394584656,
                    1
                ],
                "metallicFactor" : 0,
                "roughnessFactor" : 0.5
            }
        },
        {
            "doubleSided" : true,
            "name" : "Main",
            "pbrMetallicRoughness" : {
                "baseColorFactor" : [
                    0.6151726245880127,
                    0.21127153933048248,
                    0.028615577146410942,
                    1
                ],
                "metallicFactor" : 0,
                "roughnessFactor" : 0.5
            }
        }
    ],
    "meshes" : [
        {
            "name" : "Cube.094",
            "primitives" : [
                {
                    "attributes" : {
                        "POSITION" : 0,
                        "NORMAL" : 1
                    },
                    "indices" : 2,
                    "material" : 0
                },
                {
                    "attributes" : {
                        "POSITION" : 3,
                        "NORMAL" : 4
                    },
                    "indices" : 5,
                    "material" : 1
                },
                {
                    "attributes" : {
                        "POSITION" : 6,
                        "NORMAL" : 7
                    },
                    "indices" : 8,
                    "material" : 2
                },
                {
                    "attributes" : {
                        "POSITION" : 9,
                        "NORMAL" : 10
                    },
                    "indices" : 11,
                    "material" : 3
                }
            ]
        }
    ],
    "accessors" : [
        {
            "bufferView" : 0,
            "componentType" : 5126,
            "count" : 2134,
            "max" : [
                0.7628549933433533,
                0.3473818600177765,
                0.06921526044607162
            ],
            "min" : [
                -1.0017448663711548,
                -0.14302027225494385,
                -0.06921524554491043
            ],
            "type" : "VEC3"
        },
        {
            "bufferView" : 1,
            "componentType" : 5126,
            "count" : 2134,
            "type" : "VEC3"
        },
        {
            "bufferView" : 2,
            "componentType" : 5123,
            "count" : 9003,
            "type" : "SCALAR"
        },
        {
            "bufferView" : 3,
            "componentType" : 5126,
            "count" : 226,
            "max" : [
                0.7356727719306946,
                0.33574843406677246,
                0.05996786057949066
            ],
            "min" : [
                -0.8181204795837402,
                -0.07241711020469666,
                -0.05996783822774887
            ],
            "type" : "VEC3"
        },
        {
            "bufferView" : 4,
            "componentType" : 5126,
            "count" : 226,
            "type" : "VEC3"
        },
        {
            "bufferView" : 5,
            "componentType" : 5123,
            "count" : 666,
            "type" : "SCALAR"
        },
        {
            "bufferView" : 6,
            "componentType" : 5126,
            "count" : 402,
            "max" : [
                0.6488688588142395,
                0.3504820466041565,
                0.06849286705255508
            ],
            "min" : [
                -0.8181204795837402,
                -0.056647658348083496,
                -0.0684928372502327
            ],
            "type" : "VEC3"
        },
        {
            "bufferView" : 7,
            "componentType" : 5126,
            "count" : 402,
            "type" : "VEC3"
        },
        {
            "bufferView" : 8,
            "componentType" : 5123,
            "count" : 1404,
            "type" : "SCALAR"
        },
        {
            "bufferView" : 9,
            "componentType" : 5126,
            "count" : 409,
            "max" : [
                0.6675012111663818,
                0.3513696789741516,
                0.0728144496679306
            ],
            "min" : [
                -0.8927416801452637,
                -0.08134216070175171,
                -0.07281442731618881
            ],
            "type" : "VEC3"
        },
        {
            "bufferView" : 10,
            "componentType" : 5126,
            "count" : 409,
            "type" : "VEC3"
        },
        {
            "bufferView" : 11,
            "componentType" : 5123,
            "count" : 1206,
            "type" : "SCALAR"
        }
    ],
    "bufferViews" : [
        {
            "buffer" : 0,
            "byteLength" : 25608,
            "byteOffset" : 0
        },
        {
            "buffer" : 0,
            "byteLength" : 25608,
            "byteOffset" : 25608
        },
        {
            "buffer" : 0,
            "byteLength" : 18006,
            "byteOffset" : 51216
        },
        {
            "buffer" : 0,
            "byteLength" : 2712,
            "byteOffset" : 69224
        },
        {
            "buffer" : 0,
            "byteLength" : 2712,
            "byteOffset" : 71936
        },
        {
            "buffer" : 0,
            "byteLength" : 1332,
            "byteOffset" : 74648
        },
        {
            "buffer" : 0,
            "byteLength" : 4824,
            "byteOffset" : 75980
        },
        {
            "buffer" : 0,
            "byteLength" : 4824,
            "byteOffset" : 80804
        },
        {
            "buffer" : 0,
            "byteLength" : 2808,
            "byteOffset" : 85628
        },
        {
            "buffer" : 0,
            "byteLength" : 4908,
            "byteOffset" : 88436
        },
        {
            "buffer" : 0,
            "byteLength" : 4908,
            "byteOffset" : 93344
        },
        {
            "buffer" : 0,
            "byteLength" : 2412,
            "byteOffset" : 98252
        }
    ],
    "buffers" : [
        {
            "byteLength" : 100664,
            "uri" : "data:application/octet-stream;base64,"
        }
    ]
}
