{
    "asset" : {
        "generator" : "Khronos glTF Blender I/O v1.6.16",
        "version" : "2.0"
    },
    "scene" : 0,
    "scenes" : [
        {
            "name" : "Scene",
            "nodes" : [
                0
            ]
        }
    ],
    "nodes" : [
        {
            "mesh" : 0,
            "name" : "Crossbow_2"
        }
    ],
    "materials" : [
        {
            "doubleSided" : true,
            "name" : "Black",
            "pbrMetallicRoughness" : {
                "baseColorFactor" : [
                    0.0290982685983181,
                    0.0290982685983181,
                    0.0290982685983181,
                    1
                ],
                "metallicFactor" : 0,
                "roughnessFactor" : 0.5
            }
        },
        {
            "doubleSided" : true,
            "name" : "Grey",
            "pbrMetallicRoughness" : {
                "baseColorFactor" : [
                    0.10247143357992172,
                    0.10247143357992172,
                    0.10247143357992172,
                    1
                ],
                "metallicFactor" : 0,
                "roughnessFactor" : 0.5
            }
        },
        {
            "doubleSided" : true,
            "name" : "White",
            "pbrMetallicRoughness" : {
                "baseColorFactor" : [
                    0.4575273394584656,
                    0.4575273394584656,
                    0.4575273394584656,
                    1
                ],
                "metallicFactor" : 0,
                "roughnessFactor" : 0.5
            }
        },
        {
            "doubleSided" : true,
            "name" : "Main",
            "pbrMetallicRoughness" : {
                "baseColorFactor" : [
                    0.6151726245880127,
                    0.21127153933048248,
                    0.028615577146410942,
                    1
                ],
                "metallicFactor" : 0,
                "roughnessFactor" : 0.5
            }
        }
    ],
    "meshes" : [
        {
            "name" : "Cube.173",
            "primitives" : [
                {
                    "attributes" : {
                        "POSITION" : 0,
                        "NORMAL" : 1
                    },
                    "indices" : 2,
                    "material" : 0
                },
                {
                    "attributes" : {
                        "POSITION" : 3,
                        "NORMAL" : 4
                    },
                    "indices" : 5,
                    "material" : 1
                },
                {
                    "attributes" : {
                        "POSITION" : 6,
                        "NORMAL" : 7
                    },
                    "indices" : 8,
                    "material" : 2
                },
                {
                    "attributes" : {
                        "POSITION" : 9,
                        "NORMAL" : 10
                    },
                    "indices" : 11,
                    "material" : 3
                }
            ]
        }
    ],
    "accessors" : [
        {
            "bufferView" : 0,
            "componentType" : 5126,
            "count" : 690,
            "max" : [
                1.1496871709823608,
                0.5479118227958679,
                0.7396106719970703
            ],
            "min" : [
                -0.2508109211921692,
                -0.10310781747102737,
                -0.7397067546844482
            ],
            "type" : "VEC3"
        },
        {
            "bufferView" : 1,
            "componentType" : 5126,
            "count" : 690,
            "type" : "VEC3"
        },
        {
            "bufferView" : 2,
            "componentType" : 5123,
            "count" : 2130,
            "type" : "SCALAR"
        },
        {
            "bufferView" : 3,
            "componentType" : 5126,
            "count" : 284,
            "max" : [
                1.120255470275879,
                0.48408952355384827,
                0.7770140171051025
            ],
            "min" : [
                -0.18247179687023163,
                -0.12294516712427139,
                -0.7770144939422607
            ],
            "type" : "VEC3"
        },
        {
            "bufferView" : 4,
            "componentType" : 5126,
            "count" : 284,
            "type" : "VEC3"
        },
        {
            "bufferView" : 5,
            "componentType" : 5123,
            "count" : 768,
            "type" : "SCALAR"
        },
        {
            "bufferView" : 6,
            "componentType" : 5126,
            "count" : 382,
            "max" : [
                1.214737057685852,
                0.5519641041755676,
                0.7574899196624756
            ],
            "min" : [
                -0.14610916376113892,
                0.2085971087217331,
                -0.7574904561042786
            ],
            "type" : "VEC3"
        },
        {
            "bufferView" : 7,
            "componentType" : 5126,
            "count" : 382,
            "type" : "VEC3"
        },
        {
            "bufferView" : 8,
            "componentType" : 5123,
            "count" : 840,
            "type" : "SCALAR"
        },
        {
            "bufferView" : 9,
            "componentType" : 5126,
            "count" : 988,
            "max" : [
                1.2205028533935547,
                0.44606947898864746,
                0.9601699113845825
            ],
            "min" : [
                -0.1773940920829773,
                0.19587258994579315,
                -0.960170328617096
            ],
            "type" : "VEC3"
        },
        {
            "bufferView" : 10,
            "componentType" : 5126,
            "count" : 988,
            "type" : "VEC3"
        },
        {
            "bufferView" : 11,
            "componentType" : 5123,
            "count" : 2196,
            "type" : "SCALAR"
        }
    ],
    "bufferViews" : [
        {
            "buffer" : 0,
            "byteLength" : 8280,
            "byteOffset" : 0
        },
        {
            "buffer" : 0,
            "byteLength" : 8280,
            "byteOffset" : 8280
        },
        {
            "buffer" : 0,
            "byteLength" : 4260,
            "byteOffset" : 16560
        },
        {
            "buffer" : 0,
            "byteLength" : 3408,
            "byteOffset" : 20820
        },
        {
            "buffer" : 0,
            "byteLength" : 3408,
            "byteOffset" : 24228
        },
        {
            "buffer" : 0,
            "byteLength" : 1536,
            "byteOffset" : 27636
        },
        {
            "buffer" : 0,
            "byteLength" : 4584,
            "byteOffset" : 29172
        },
        {
            "buffer" : 0,
            "byteLength" : 4584,
            "byteOffset" : 33756
        },
        {
            "buffer" : 0,
            "byteLength" : 1680,
            "byteOffset" : 38340
        },
        {
            "buffer" : 0,
            "byteLength" : 11856,
            "byteOffset" : 40020
        },
        {
            "buffer" : 0,
            "byteLength" : 11856,
            "byteOffset" : 51876
        },
        {
            "buffer" : 0,
            "byteLength" : 4392,
            "byteOffset" : 63732
        }
    ],
    "buffers" : [
        {
            "byteLength" : 68124,
            "uri" : "data:application/octet-stream;base64,"
        }
    ]
}
