{
    "asset" : {
        "generator" : "Khronos glTF Blender I/O v1.6.16",
        "version" : "2.0"
    },
    "scene" : 0,
    "scenes" : [
        {
            "name" : "Scene",
            "nodes" : [
                0
            ]
        }
    ],
    "nodes" : [
        {
            "mesh" : 0,
            "name" : "Grenade_2"
        }
    ],
    "materials" : [
        {
            "doubleSided" : true,
            "name" : "Black",
            "pbrMetallicRoughness" : {
                "baseColorFactor" : [
                    0.0290982685983181,
                    0.0290982685983181,
                    0.0290982685983181,
                    1
                ],
                "metallicFactor" : 0,
                "roughnessFactor" : 0.5
            }
        },
        {
            "doubleSided" : true,
            "name" : "Grey",
            "pbrMetallicRoughness" : {
                "baseColorFactor" : [
                    0.10247143357992172,
                    0.10247143357992172,
                    0.10247143357992172,
                    1
                ],
                "metallicFactor" : 0,
                "roughnessFactor" : 0.5
            }
        },
        {
            "doubleSided" : true,
            "name" : "White",
            "pbrMetallicRoughness" : {
                "baseColorFactor" : [
                    0.4575273394584656,
                    0.4575273394584656,
                    0.4575273394584656,
                    1
                ],
                "metallicFactor" : 0,
                "roughnessFactor" : 0.5
            }
        },
        {
            "doubleSided" : true,
            "name" : "Main",
            "pbrMetallicRoughness" : {
                "baseColorFactor" : [
                    0.6151726245880127,
                    0.21127153933048248,
                    0.028615577146410942,
                    1
                ],
                "metallicFactor" : 0,
                "roughnessFactor" : 0.5
            }
        }
    ],
    "meshes" : [
        {
            "name" : "Cube.047",
            "primitives" : [
                {
                    "attributes" : {
                        "POSITION" : 0,
                        "NORMAL" : 1
                    },
                    "indices" : 2,
                    "material" : 0
                },
                {
                    "attributes" : {
                        "POSITION" : 3,
                        "NORMAL" : 4
                    },
                    "indices" : 5,
                    "material" : 1
                },
                {
                    "attributes" : {
                        "POSITION" : 6,
                        "NORMAL" : 7
                    },
                    "indices" : 8,
                    "material" : 2
                },
                {
                    "attributes" : {
                        "POSITION" : 9,
                        "NORMAL" : 10
                    },
                    "indices" : 11,
                    "material" : 3
                }
            ]
        }
    ],
    "accessors" : [
        {
            "bufferView" : 0,
            "componentType" : 5126,
            "count" : 944,
            "max" : [
                1.2525067329406738,
                0.5269007682800293,
                0.08678175508975983
            ],
            "min" : [
                -0.6079726219177246,
                -0.11550543457269669,
                -0.08678175508975983
            ],
            "type" : "VEC3"
        },
        {
            "bufferView" : 1,
            "componentType" : 5126,
            "count" : 944,
            "type" : "VEC3"
        },
        {
            "bufferView" : 2,
            "componentType" : 5123,
            "count" : 2712,
            "type" : "SCALAR"
        },
        {
            "bufferView" : 3,
            "componentType" : 5126,
            "count" : 799,
            "max" : [
                1.180101990699768,
                0.5096033811569214,
                0.0836431235074997
            ],
            "min" : [
                -0.2465904951095581,
                -0.1299494355916977,
                -0.08362910151481628
            ],
            "type" : "VEC3"
        },
        {
            "bufferView" : 4,
            "componentType" : 5126,
            "count" : 799,
            "type" : "VEC3"
        },
        {
            "bufferView" : 5,
            "componentType" : 5123,
            "count" : 2736,
            "type" : "SCALAR"
        },
        {
            "bufferView" : 6,
            "componentType" : 5126,
            "count" : 781,
            "max" : [
                1.065382957458496,
                0.550380289554596,
                0.09379763901233673
            ],
            "min" : [
                -0.5258936285972595,
                0.04469185695052147,
                -0.09379763901233673
            ],
            "type" : "VEC3"
        },
        {
            "bufferView" : 7,
            "componentType" : 5126,
            "count" : 781,
            "type" : "VEC3"
        },
        {
            "bufferView" : 8,
            "componentType" : 5123,
            "count" : 2664,
            "type" : "SCALAR"
        },
        {
            "bufferView" : 9,
            "componentType" : 5126,
            "count" : 150,
            "max" : [
                1.1380419731140137,
                0.5331021547317505,
                0.09379763901233673
            ],
            "min" : [
                0.5777060389518738,
                0.1863773614168167,
                -0.09379762411117554
            ],
            "type" : "VEC3"
        },
        {
            "bufferView" : 10,
            "componentType" : 5126,
            "count" : 150,
            "type" : "VEC3"
        },
        {
            "bufferView" : 11,
            "componentType" : 5123,
            "count" : 342,
            "type" : "SCALAR"
        }
    ],
    "bufferViews" : [
        {
            "buffer" : 0,
            "byteLength" : 11328,
            "byteOffset" : 0
        },
        {
            "buffer" : 0,
            "byteLength" : 11328,
            "byteOffset" : 11328
        },
        {
            "buffer" : 0,
            "byteLength" : 5424,
            "byteOffset" : 22656
        },
        {
            "buffer" : 0,
            "byteLength" : 9588,
            "byteOffset" : 28080
        },
        {
            "buffer" : 0,
            "byteLength" : 9588,
            "byteOffset" : 37668
        },
        {
            "buffer" : 0,
            "byteLength" : 5472,
            "byteOffset" : 47256
        },
        {
            "buffer" : 0,
            "byteLength" : 9372,
            "byteOffset" : 52728
        },
        {
            "buffer" : 0,
            "byteLength" : 9372,
            "byteOffset" : 62100
        },
        {
            "buffer" : 0,
            "byteLength" : 5328,
            "byteOffset" : 71472
        },
        {
            "buffer" : 0,
            "byteLength" : 1800,
            "byteOffset" : 76800
        },
        {
            "buffer" : 0,
            "byteLength" : 1800,
            "byteOffset" : 78600
        },
        {
            "buffer" : 0,
            "byteLength" : 684,
            "byteOffset" : 80400
        }
    ],
    "buffers" : [
        {
            "byteLength" : 81084,
            "uri" : "data:application/octet-stream;base64,"
        }
    ]
}
