{
    "asset" : {
        "generator" : "Khronos glTF Blender I/O v1.6.16",
        "version" : "2.0"
    },
    "scene" : 0,
    "scenes" : [
        {
            "name" : "Scene",
            "nodes" : [
                0
            ]
        }
    ],
    "nodes" : [
        {
            "mesh" : 0,
            "name" : "Grenade_3"
        }
    ],
    "materials" : [
        {
            "doubleSided" : true,
            "name" : "Black",
            "pbrMetallicRoughness" : {
                "baseColorFactor" : [
                    0.0290982685983181,
                    0.0290982685983181,
                    0.0290982685983181,
                    1
                ],
                "metallicFactor" : 0,
                "roughnessFactor" : 0.5
            }
        },
        {
            "doubleSided" : true,
            "name" : "Grey",
            "pbrMetallicRoughness" : {
                "baseColorFactor" : [
                    0.10247143357992172,
                    0.10247143357992172,
                    0.10247143357992172,
                    1
                ],
                "metallicFactor" : 0,
                "roughnessFactor" : 0.5
            }
        },
        {
            "doubleSided" : true,
            "name" : "White",
            "pbrMetallicRoughness" : {
                "baseColorFactor" : [
                    0.4575273394584656,
                    0.4575273394584656,
                    0.4575273394584656,
                    1
                ],
                "metallicFactor" : 0,
                "roughnessFactor" : 0.5
            }
        },
        {
            "doubleSided" : true,
            "name" : "Main",
            "pbrMetallicRoughness" : {
                "baseColorFactor" : [
                    0.6151726245880127,
                    0.21127153933048248,
                    0.028615577146410942,
                    1
                ],
                "metallicFactor" : 0,
                "roughnessFactor" : 0.5
            }
        }
    ],
    "meshes" : [
        {
            "name" : "Cube.131",
            "primitives" : [
                {
                    "attributes" : {
                        "POSITION" : 0,
                        "NORMAL" : 1
                    },
                    "indices" : 2,
                    "material" : 0
                },
                {
                    "attributes" : {
                        "POSITION" : 3,
                        "NORMAL" : 4
                    },
                    "indices" : 5,
                    "material" : 1
                },
                {
                    "attributes" : {
                        "POSITION" : 6,
                        "NORMAL" : 7
                    },
                    "indices" : 8,
                    "material" : 2
                },
                {
                    "attributes" : {
                        "POSITION" : 9,
                        "NORMAL" : 10
                    },
                    "indices" : 11,
                    "material" : 3
                }
            ]
        }
    ],
    "accessors" : [
        {
            "bufferView" : 0,
            "componentType" : 5126,
            "count" : 1746,
            "max" : [
                0.569831371307373,
                0.4657287299633026,
                0.06921576708555222
            ],
            "min" : [
                -1.120822787284851,
                -0.07912906259298325,
                -0.06921474635601044
            ],
            "type" : "VEC3"
        },
        {
            "bufferView" : 1,
            "componentType" : 5126,
            "count" : 1746,
            "type" : "VEC3"
        },
        {
            "bufferView" : 2,
            "componentType" : 5123,
            "count" : 6240,
            "type" : "SCALAR"
        },
        {
            "bufferView" : 3,
            "componentType" : 5126,
            "count" : 372,
            "max" : [
                0.5066851377487183,
                0.4594482481479645,
                0.07294128835201263
            ],
            "min" : [
                -0.937198281288147,
                -0.04754212871193886,
                -0.07294142246246338
            ],
            "type" : "VEC3"
        },
        {
            "bufferView" : 4,
            "componentType" : 5126,
            "count" : 372,
            "type" : "VEC3"
        },
        {
            "bufferView" : 5,
            "componentType" : 5123,
            "count" : 1002,
            "type" : "SCALAR"
        },
        {
            "bufferView" : 6,
            "componentType" : 5126,
            "count" : 471,
            "max" : [
                0.5021155476570129,
                0.43197372555732727,
                0.06849336624145508
            ],
            "min" : [
                -0.937198281288147,
                0.04320164769887924,
                -0.0684923306107521
            ],
            "type" : "VEC3"
        },
        {
            "bufferView" : 7,
            "componentType" : 5126,
            "count" : 471,
            "type" : "VEC3"
        },
        {
            "bufferView" : 8,
            "componentType" : 5123,
            "count" : 1656,
            "type" : "SCALAR"
        },
        {
            "bufferView" : 9,
            "componentType" : 5126,
            "count" : 397,
            "max" : [
                0.5207480192184448,
                0.4683729410171509,
                0.0728149488568306
            ],
            "min" : [
                -1.01181960105896,
                0.035661086440086365,
                -0.07281392067670822
            ],
            "type" : "VEC3"
        },
        {
            "bufferView" : 10,
            "componentType" : 5126,
            "count" : 397,
            "type" : "VEC3"
        },
        {
            "bufferView" : 11,
            "componentType" : 5123,
            "count" : 1104,
            "type" : "SCALAR"
        }
    ],
    "bufferViews" : [
        {
            "buffer" : 0,
            "byteLength" : 20952,
            "byteOffset" : 0
        },
        {
            "buffer" : 0,
            "byteLength" : 20952,
            "byteOffset" : 20952
        },
        {
            "buffer" : 0,
            "byteLength" : 12480,
            "byteOffset" : 41904
        },
        {
            "buffer" : 0,
            "byteLength" : 4464,
            "byteOffset" : 54384
        },
        {
            "buffer" : 0,
            "byteLength" : 4464,
            "byteOffset" : 58848
        },
        {
            "buffer" : 0,
            "byteLength" : 2004,
            "byteOffset" : 63312
        },
        {
            "buffer" : 0,
            "byteLength" : 5652,
            "byteOffset" : 65316
        },
        {
            "buffer" : 0,
            "byteLength" : 5652,
            "byteOffset" : 70968
        },
        {
            "buffer" : 0,
            "byteLength" : 3312,
            "byteOffset" : 76620
        },
        {
            "buffer" : 0,
            "byteLength" : 4764,
            "byteOffset" : 79932
        },
        {
            "buffer" : 0,
            "byteLength" : 4764,
            "byteOffset" : 84696
        },
        {
            "buffer" : 0,
            "byteLength" : 2208,
            "byteOffset" : 89460
        }
    ],
    "buffers" : [
        {
            "byteLength" : 91668,
            "uri" : "data:application/octet-stream;base64,"
        }
    ]
}
