{
    "asset" : {
        "generator" : "Khronos glTF Blender I/O v1.6.16",
        "version" : "2.0"
    },
    "scene" : 0,
    "scenes" : [
        {
            "name" : "Scene",
            "nodes" : [
                0
            ]
        }
    ],
    "nodes" : [
        {
            "mesh" : 0,
            "name" : "Grenade_1"
        }
    ],
    "materials" : [
        {
            "doubleSided" : true,
            "name" : "Black",
            "pbrMetallicRoughness" : {
                "baseColorFactor" : [
                    0.0290982685983181,
                    0.0290982685983181,
                    0.0290982685983181,
                    1
                ],
                "metallicFactor" : 0,
                "roughnessFactor" : 0.5
            }
        },
        {
            "doubleSided" : true,
            "name" : "Grey",
            "pbrMetallicRoughness" : {
                "baseColorFactor" : [
                    0.10247143357992172,
                    0.10247143357992172,
                    0.10247143357992172,
                    1
                ],
                "metallicFactor" : 0,
                "roughnessFactor" : 0.5
            }
        },
        {
            "doubleSided" : true,
            "name" : "White",
            "pbrMetallicRoughness" : {
                "baseColorFactor" : [
                    0.4575273394584656,
                    0.4575273394584656,
                    0.4575273394584656,
                    1
                ],
                "metallicFactor" : 0,
                "roughnessFactor" : 0.5
            }
        },
        {
            "doubleSided" : true,
            "name" : "Main",
            "pbrMetallicRoughness" : {
                "baseColorFactor" : [
                    0.6151726245880127,
                    0.21127153933048248,
                    0.028615577146410942,
                    1
                ],
                "metallicFactor" : 0,
                "roughnessFactor" : 0.5
            }
        }
    ],
    "meshes" : [
        {
            "name" : "Cube.012",
            "primitives" : [
                {
                    "attributes" : {
                        "POSITION" : 0,
                        "NORMAL" : 1
                    },
                    "indices" : 2,
                    "material" : 0
                },
                {
                    "attributes" : {
                        "POSITION" : 3,
                        "NORMAL" : 4
                    },
                    "indices" : 5,
                    "material" : 1
                },
                {
                    "attributes" : {
                        "POSITION" : 6,
                        "NORMAL" : 7
                    },
                    "indices" : 8,
                    "material" : 2
                },
                {
                    "attributes" : {
                        "POSITION" : 9,
                        "NORMAL" : 10
                    },
                    "indices" : 11,
                    "material" : 3
                }
            ]
        }
    ],
    "accessors" : [
        {
            "bufferView" : 0,
            "componentType" : 5126,
            "count" : 1282,
            "max" : [
                0.7511297464370728,
                0.4126736521720886,
                0.06251224130392075
            ],
            "min" : [
                -1.056742787361145,
                -0.10827439278364182,
                -0.06251224875450134
            ],
            "type" : "VEC3"
        },
        {
            "bufferView" : 1,
            "componentType" : 5126,
            "count" : 1282,
            "type" : "VEC3"
        },
        {
            "bufferView" : 2,
            "componentType" : 5123,
            "count" : 3159,
            "type" : "SCALAR"
        },
        {
            "bufferView" : 3,
            "componentType" : 5126,
            "count" : 355,
            "max" : [
                0.687983512878418,
                0.3320516049861908,
                0.0729413628578186
            ],
            "min" : [
                -0.9378071427345276,
                0.037724126130342484,
                -0.072941355407238
            ],
            "type" : "VEC3"
        },
        {
            "bufferView" : 4,
            "componentType" : 5126,
            "count" : 355,
            "type" : "VEC3"
        },
        {
            "bufferView" : 5,
            "componentType" : 5123,
            "count" : 810,
            "type" : "SCALAR"
        },
        {
            "bufferView" : 6,
            "componentType" : 5126,
            "count" : 423,
            "max" : [
                0.5353573560714722,
                0.42566314339637756,
                0.05471840873360634
            ],
            "min" : [
                -0.986236572265625,
                -0.0161710474640131,
                -0.05471840873360634
            ],
            "type" : "VEC3"
        },
        {
            "bufferView" : 7,
            "componentType" : 5126,
            "count" : 423,
            "type" : "VEC3"
        },
        {
            "bufferView" : 8,
            "componentType" : 5123,
            "count" : 1344,
            "type" : "SCALAR"
        },
        {
            "bufferView" : 9,
            "componentType" : 5126,
            "count" : 229,
            "max" : [
                0.5876796245574951,
                0.42566314339637756,
                0.05471840873360634
            ],
            "min" : [
                -1.0106061697006226,
                -0.0161710474640131,
                -0.05471840873360634
            ],
            "type" : "VEC3"
        },
        {
            "bufferView" : 10,
            "componentType" : 5126,
            "count" : 229,
            "type" : "VEC3"
        },
        {
            "bufferView" : 11,
            "componentType" : 5123,
            "count" : 624,
            "type" : "SCALAR"
        }
    ],
    "bufferViews" : [
        {
            "buffer" : 0,
            "byteLength" : 15384,
            "byteOffset" : 0
        },
        {
            "buffer" : 0,
            "byteLength" : 15384,
            "byteOffset" : 15384
        },
        {
            "buffer" : 0,
            "byteLength" : 6318,
            "byteOffset" : 30768
        },
        {
            "buffer" : 0,
            "byteLength" : 4260,
            "byteOffset" : 37088
        },
        {
            "buffer" : 0,
            "byteLength" : 4260,
            "byteOffset" : 41348
        },
        {
            "buffer" : 0,
            "byteLength" : 1620,
            "byteOffset" : 45608
        },
        {
            "buffer" : 0,
            "byteLength" : 5076,
            "byteOffset" : 47228
        },
        {
            "buffer" : 0,
            "byteLength" : 5076,
            "byteOffset" : 52304
        },
        {
            "buffer" : 0,
            "byteLength" : 2688,
            "byteOffset" : 57380
        },
        {
            "buffer" : 0,
            "byteLength" : 2748,
            "byteOffset" : 60068
        },
        {
            "buffer" : 0,
            "byteLength" : 2748,
            "byteOffset" : 62816
        },
        {
            "buffer" : 0,
            "byteLength" : 1248,
            "byteOffset" : 65564
        }
    ],
    "buffers" : [
        {
            "byteLength" : 66812,
            "uri" : "data:application/octet-stream;base64,"
        }
    ]
}
