{
    "asset" : {
        "generator" : "Khronos glTF Blender I/O v1.6.16",
        "version" : "2.0"
    },
    "scene" : 0,
    "scenes" : [
        {
            "name" : "Scene",
            "nodes" : [
                0
            ]
        }
    ],
    "nodes" : [
        {
            "mesh" : 0,
            "name" : "Pistol_2"
        }
    ],
    "materials" : [
        {
            "doubleSided" : true,
            "name" : "Black",
            "pbrMetallicRoughness" : {
                "baseColorFactor" : [
                    0.0290982685983181,
                    0.0290982685983181,
                    0.0290982685983181,
                    1
                ],
                "metallicFactor" : 0,
                "roughnessFactor" : 0.5
            }
        },
        {
            "doubleSided" : true,
            "name" : "Grey",
            "pbrMetallicRoughness" : {
                "baseColorFactor" : [
                    0.10247143357992172,
                    0.10247143357992172,
                    0.10247143357992172,
                    1
                ],
                "metallicFactor" : 0,
                "roughnessFactor" : 0.5
            }
        },
        {
            "doubleSided" : true,
            "name" : "White",
            "pbrMetallicRoughness" : {
                "baseColorFactor" : [
                    0.4575273394584656,
                    0.4575273394584656,
                    0.4575273394584656,
                    1
                ],
                "metallicFactor" : 0,
                "roughnessFactor" : 0.5
            }
        },
        {
            "doubleSided" : true,
            "name" : "Main",
            "pbrMetallicRoughness" : {
                "baseColorFactor" : [
                    0.6151726245880127,
                    0.21127153933048248,
                    0.028615577146410942,
                    1
                ],
                "metallicFactor" : 0,
                "roughnessFactor" : 0.5
            }
        }
    ],
    "meshes" : [
        {
            "name" : "Cube.036",
            "primitives" : [
                {
                    "attributes" : {
                        "POSITION" : 0,
                        "NORMAL" : 1
                    },
                    "indices" : 2,
                    "material" : 0
                },
                {
                    "attributes" : {
                        "POSITION" : 3,
                        "NORMAL" : 4
                    },
                    "indices" : 5,
                    "material" : 1
                },
                {
                    "attributes" : {
                        "POSITION" : 6,
                        "NORMAL" : 7
                    },
                    "indices" : 8,
                    "material" : 2
                },
                {
                    "attributes" : {
                        "POSITION" : 9,
                        "NORMAL" : 10
                    },
                    "indices" : 11,
                    "material" : 3
                }
            ]
        }
    ],
    "accessors" : [
        {
            "bufferView" : 0,
            "componentType" : 5126,
            "count" : 959,
            "max" : [
                0.8227761387825012,
                0.23798437416553497,
                0.05620305612683296
            ],
            "min" : [
                -0.14431126415729523,
                -0.14282818138599396,
                -0.05620305612683296
            ],
            "type" : "VEC3"
        },
        {
            "bufferView" : 1,
            "componentType" : 5126,
            "count" : 959,
            "type" : "VEC3"
        },
        {
            "bufferView" : 2,
            "componentType" : 5123,
            "count" : 2775,
            "type" : "SCALAR"
        },
        {
            "bufferView" : 3,
            "componentType" : 5126,
            "count" : 156,
            "max" : [
                0.14307735860347748,
                0.08840292692184448,
                0.04626660794019699
            ],
            "min" : [
                -0.16710126399993896,
                -0.17813168466091156,
                -0.04626661166548729
            ],
            "type" : "VEC3"
        },
        {
            "bufferView" : 4,
            "componentType" : 5126,
            "count" : 156,
            "type" : "VEC3"
        },
        {
            "bufferView" : 5,
            "componentType" : 5123,
            "count" : 378,
            "type" : "SCALAR"
        },
        {
            "bufferView" : 6,
            "componentType" : 5126,
            "count" : 476,
            "max" : [
                0.7530477046966553,
                0.23152270913124084,
                0.049798354506492615
            ],
            "min" : [
                -0.0865873321890831,
                -0.15758784115314484,
                -0.049798354506492615
            ],
            "type" : "VEC3"
        },
        {
            "bufferView" : 7,
            "componentType" : 5126,
            "count" : 476,
            "type" : "VEC3"
        },
        {
            "bufferView" : 8,
            "componentType" : 5123,
            "count" : 1608,
            "type" : "SCALAR"
        },
        {
            "bufferView" : 9,
            "componentType" : 5126,
            "count" : 112,
            "max" : [
                0.7850666642189026,
                0.23152270913124084,
                0.047993481159210205
            ],
            "min" : [
                0.011986687779426575,
                0.09708625823259354,
                -0.047993481159210205
            ],
            "type" : "VEC3"
        },
        {
            "bufferView" : 10,
            "componentType" : 5126,
            "count" : 112,
            "type" : "VEC3"
        },
        {
            "bufferView" : 11,
            "componentType" : 5123,
            "count" : 306,
            "type" : "SCALAR"
        }
    ],
    "bufferViews" : [
        {
            "buffer" : 0,
            "byteLength" : 11508,
            "byteOffset" : 0
        },
        {
            "buffer" : 0,
            "byteLength" : 11508,
            "byteOffset" : 11508
        },
        {
            "buffer" : 0,
            "byteLength" : 5550,
            "byteOffset" : 23016
        },
        {
            "buffer" : 0,
            "byteLength" : 1872,
            "byteOffset" : 28568
        },
        {
            "buffer" : 0,
            "byteLength" : 1872,
            "byteOffset" : 30440
        },
        {
            "buffer" : 0,
            "byteLength" : 756,
            "byteOffset" : 32312
        },
        {
            "buffer" : 0,
            "byteLength" : 5712,
            "byteOffset" : 33068
        },
        {
            "buffer" : 0,
            "byteLength" : 5712,
            "byteOffset" : 38780
        },
        {
            "buffer" : 0,
            "byteLength" : 3216,
            "byteOffset" : 44492
        },
        {
            "buffer" : 0,
            "byteLength" : 1344,
            "byteOffset" : 47708
        },
        {
            "buffer" : 0,
            "byteLength" : 1344,
            "byteOffset" : 49052
        },
        {
            "buffer" : 0,
            "byteLength" : 612,
            "byteOffset" : 50396
        }
    ],
    "buffers" : [
        {
            "byteLength" : 51008,
            "uri" : "data:application/octet-stream;base64,"
        }
    ]
}
