{
    "asset" : {
        "generator" : "Khronos glTF Blender I/O v1.6.16",
        "version" : "2.0"
    },
    "scene" : 0,
    "scenes" : [
        {
            "name" : "Scene",
            "nodes" : [
                0
            ]
        }
    ],
    "nodes" : [
        {
            "mesh" : 0,
            "name" : "Pistol_1"
        }
    ],
    "materials" : [
        {
            "doubleSided" : true,
            "name" : "Black",
            "pbrMetallicRoughness" : {
                "baseColorFactor" : [
                    0.0290982685983181,
                    0.0290982685983181,
                    0.0290982685983181,
                    1
                ],
                "metallicFactor" : 0,
                "roughnessFactor" : 0.5
            }
        },
        {
            "doubleSided" : true,
            "name" : "Grey",
            "pbrMetallicRoughness" : {
                "baseColorFactor" : [
                    0.10247143357992172,
                    0.10247143357992172,
                    0.10247143357992172,
                    1
                ],
                "metallicFactor" : 0,
                "roughnessFactor" : 0.5
            }
        },
        {
            "doubleSided" : true,
            "name" : "White",
            "pbrMetallicRoughness" : {
                "baseColorFactor" : [
                    0.4575273394584656,
                    0.4575273394584656,
                    0.4575273394584656,
                    1
                ],
                "metallicFactor" : 0,
                "roughnessFactor" : 0.5
            }
        },
        {
            "doubleSided" : true,
            "name" : "Main",
            "pbrMetallicRoughness" : {
                "baseColorFactor" : [
                    0.6151726245880127,
                    0.21127153933048248,
                    0.028615577146410942,
                    1
                ],
                "metallicFactor" : 0,
                "roughnessFactor" : 0.5
            }
        }
    ],
    "meshes" : [
        {
            "name" : "Cube.074",
            "primitives" : [
                {
                    "attributes" : {
                        "POSITION" : 0,
                        "NORMAL" : 1
                    },
                    "indices" : 2,
                    "material" : 0
                },
                {
                    "attributes" : {
                        "POSITION" : 3,
                        "NORMAL" : 4
                    },
                    "indices" : 5,
                    "material" : 1
                },
                {
                    "attributes" : {
                        "POSITION" : 6,
                        "NORMAL" : 7
                    },
                    "indices" : 8,
                    "material" : 2
                },
                {
                    "attributes" : {
                        "POSITION" : 9,
                        "NORMAL" : 10
                    },
                    "indices" : 11,
                    "material" : 3
                }
            ]
        }
    ],
    "accessors" : [
        {
            "bufferView" : 0,
            "componentType" : 5126,
            "count" : 728,
            "max" : [
                0.8152815699577332,
                0.39540040493011475,
                0.06049215793609619
            ],
            "min" : [
                -0.11665604263544083,
                -0.1284487247467041,
                -0.06044763699173927
            ],
            "type" : "VEC3"
        },
        {
            "bufferView" : 1,
            "componentType" : 5126,
            "count" : 728,
            "type" : "VEC3"
        },
        {
            "bufferView" : 2,
            "componentType" : 5123,
            "count" : 2382,
            "type" : "SCALAR"
        },
        {
            "bufferView" : 3,
            "componentType" : 5126,
            "count" : 656,
            "max" : [
                0.7541983127593994,
                0.40259814262390137,
                0.07058056443929672
            ],
            "min" : [
                -0.11910481750965118,
                -0.14214031398296356,
                -0.07053599506616592
            ],
            "type" : "VEC3"
        },
        {
            "bufferView" : 4,
            "componentType" : 5126,
            "count" : 656,
            "type" : "VEC3"
        },
        {
            "bufferView" : 5,
            "componentType" : 5123,
            "count" : 2232,
            "type" : "SCALAR"
        },
        {
            "bufferView" : 6,
            "componentType" : 5126,
            "count" : 584,
            "max" : [
                0.7264049053192139,
                0.41836097836494446,
                0.0839734897017479
            ],
            "min" : [
                -0.09468872100114822,
                0.07533139735460281,
                -0.08397315442562103
            ],
            "type" : "VEC3"
        },
        {
            "bufferView" : 7,
            "componentType" : 5126,
            "count" : 584,
            "type" : "VEC3"
        },
        {
            "bufferView" : 8,
            "componentType" : 5123,
            "count" : 1692,
            "type" : "SCALAR"
        },
        {
            "bufferView" : 9,
            "componentType" : 5126,
            "count" : 225,
            "max" : [
                0.14892913401126862,
                0.4120292067527771,
                0.08911262452602386
            ],
            "min" : [
                -0.08831918984651566,
                0.17524899542331696,
                -0.0891122967004776
            ],
            "type" : "VEC3"
        },
        {
            "bufferView" : 10,
            "componentType" : 5126,
            "count" : 225,
            "type" : "VEC3"
        },
        {
            "bufferView" : 11,
            "componentType" : 5123,
            "count" : 738,
            "type" : "SCALAR"
        }
    ],
    "bufferViews" : [
        {
            "buffer" : 0,
            "byteLength" : 8736,
            "byteOffset" : 0
        },
        {
            "buffer" : 0,
            "byteLength" : 8736,
            "byteOffset" : 8736
        },
        {
            "buffer" : 0,
            "byteLength" : 4764,
            "byteOffset" : 17472
        },
        {
            "buffer" : 0,
            "byteLength" : 7872,
            "byteOffset" : 22236
        },
        {
            "buffer" : 0,
            "byteLength" : 7872,
            "byteOffset" : 30108
        },
        {
            "buffer" : 0,
            "byteLength" : 4464,
            "byteOffset" : 37980
        },
        {
            "buffer" : 0,
            "byteLength" : 7008,
            "byteOffset" : 42444
        },
        {
            "buffer" : 0,
            "byteLength" : 7008,
            "byteOffset" : 49452
        },
        {
            "buffer" : 0,
            "byteLength" : 3384,
            "byteOffset" : 56460
        },
        {
            "buffer" : 0,
            "byteLength" : 2700,
            "byteOffset" : 59844
        },
        {
            "buffer" : 0,
            "byteLength" : 2700,
            "byteOffset" : 62544
        },
        {
            "buffer" : 0,
            "byteLength" : 1476,
            "byteOffset" : 65244
        }
    ],
    "buffers" : [
        {
            "byteLength" : 66720,
            "uri" : "data:application/octet-stream;base64,"
        }
    ]
}
