{
    "asset" : {
        "generator" : "Khronos glTF Blender I/O v1.6.16",
        "version" : "2.0"
    },
    "scene" : 0,
    "scenes" : [
        {
            "name" : "Scene",
            "nodes" : [
                0
            ]
        }
    ],
    "nodes" : [
        {
            "mesh" : 0,
            "name" : "Pistol_3"
        }
    ],
    "materials" : [
        {
            "doubleSided" : true,
            "name" : "Black",
            "pbrMetallicRoughness" : {
                "baseColorFactor" : [
                    0.0290982685983181,
                    0.0290982685983181,
                    0.0290982685983181,
                    1
                ],
                "metallicFactor" : 0,
                "roughnessFactor" : 0.5
            }
        },
        {
            "doubleSided" : true,
            "name" : "Grey",
            "pbrMetallicRoughness" : {
                "baseColorFactor" : [
                    0.10247143357992172,
                    0.10247143357992172,
                    0.10247143357992172,
                    1
                ],
                "metallicFactor" : 0,
                "roughnessFactor" : 0.5
            }
        },
        {
            "doubleSided" : true,
            "name" : "White",
            "pbrMetallicRoughness" : {
                "baseColorFactor" : [
                    0.4575273394584656,
                    0.4575273394584656,
                    0.4575273394584656,
                    1
                ],
                "metallicFactor" : 0,
                "roughnessFactor" : 0.5
            }
        },
        {
            "doubleSided" : true,
            "name" : "Main",
            "pbrMetallicRoughness" : {
                "baseColorFactor" : [
                    0.6151726245880127,
                    0.21127153933048248,
                    0.028615577146410942,
                    1
                ],
                "metallicFactor" : 0,
                "roughnessFactor" : 0.5
            }
        }
    ],
    "meshes" : [
        {
            "name" : "Cube.133",
            "primitives" : [
                {
                    "attributes" : {
                        "POSITION" : 0,
                        "NORMAL" : 1
                    },
                    "indices" : 2,
                    "material" : 0
                },
                {
                    "attributes" : {
                        "POSITION" : 3,
                        "NORMAL" : 4
                    },
                    "indices" : 5,
                    "material" : 1
                },
                {
                    "attributes" : {
                        "POSITION" : 6,
                        "NORMAL" : 7
                    },
                    "indices" : 8,
                    "material" : 2
                },
                {
                    "attributes" : {
                        "POSITION" : 9,
                        "NORMAL" : 10
                    },
                    "indices" : 11,
                    "material" : 3
                }
            ]
        }
    ],
    "accessors" : [
        {
            "bufferView" : 0,
            "componentType" : 5126,
            "count" : 1269,
            "max" : [
                0.5892313122749329,
                0.29490432143211365,
                0.0500861294567585
            ],
            "min" : [
                -0.3201197385787964,
                -0.15615782141685486,
                -0.04979835823178291
            ],
            "type" : "VEC3"
        },
        {
            "bufferView" : 1,
            "componentType" : 5126,
            "count" : 1269,
            "type" : "VEC3"
        },
        {
            "bufferView" : 2,
            "componentType" : 5123,
            "count" : 3150,
            "type" : "SCALAR"
        },
        {
            "bufferView" : 3,
            "componentType" : 5126,
            "count" : 452,
            "max" : [
                0.5795894861221313,
                0.21777072548866272,
                0.04626661166548729
            ],
            "min" : [
                -0.17062212526798248,
                -0.19146132469177246,
                -0.046266600489616394
            ],
            "type" : "VEC3"
        },
        {
            "bufferView" : 4,
            "componentType" : 5126,
            "count" : 452,
            "type" : "VEC3"
        },
        {
            "bufferView" : 5,
            "componentType" : 5123,
            "count" : 1158,
            "type" : "SCALAR"
        },
        {
            "bufferView" : 6,
            "componentType" : 5126,
            "count" : 783,
            "max" : [
                0.5211928486824036,
                0.26848748326301575,
                0.05454178526997566
            ],
            "min" : [
                -0.2727145850658417,
                -0.17091748118400574,
                -0.05416041612625122
            ],
            "type" : "VEC3"
        },
        {
            "bufferView" : 7,
            "componentType" : 5126,
            "count" : 783,
            "type" : "VEC3"
        },
        {
            "bufferView" : 8,
            "componentType" : 5123,
            "count" : 2628,
            "type" : "SCALAR"
        },
        {
            "bufferView" : 9,
            "componentType" : 5126,
            "count" : 353,
            "max" : [
                0.5467864871025085,
                0.25839993357658386,
                0.05721201375126839
            ],
            "min" : [
                -0.24512115120887756,
                0.09883447736501694,
                -0.056830648332834244
            ],
            "type" : "VEC3"
        },
        {
            "bufferView" : 10,
            "componentType" : 5126,
            "count" : 353,
            "type" : "VEC3"
        },
        {
            "bufferView" : 11,
            "componentType" : 5123,
            "count" : 906,
            "type" : "SCALAR"
        }
    ],
    "bufferViews" : [
        {
            "buffer" : 0,
            "byteLength" : 15228,
            "byteOffset" : 0
        },
        {
            "buffer" : 0,
            "byteLength" : 15228,
            "byteOffset" : 15228
        },
        {
            "buffer" : 0,
            "byteLength" : 6300,
            "byteOffset" : 30456
        },
        {
            "buffer" : 0,
            "byteLength" : 5424,
            "byteOffset" : 36756
        },
        {
            "buffer" : 0,
            "byteLength" : 5424,
            "byteOffset" : 42180
        },
        {
            "buffer" : 0,
            "byteLength" : 2316,
            "byteOffset" : 47604
        },
        {
            "buffer" : 0,
            "byteLength" : 9396,
            "byteOffset" : 49920
        },
        {
            "buffer" : 0,
            "byteLength" : 9396,
            "byteOffset" : 59316
        },
        {
            "buffer" : 0,
            "byteLength" : 5256,
            "byteOffset" : 68712
        },
        {
            "buffer" : 0,
            "byteLength" : 4236,
            "byteOffset" : 73968
        },
        {
            "buffer" : 0,
            "byteLength" : 4236,
            "byteOffset" : 78204
        },
        {
            "buffer" : 0,
            "byteLength" : 1812,
            "byteOffset" : 82440
        }
    ],
    "buffers" : [
        {
            "byteLength" : 84252,
            "uri" : "data:application/octet-stream;base64,"
        }
    ]
}
