{
    "asset" : {
        "generator" : "Khronos glTF Blender I/O v1.6.16",
        "version" : "2.0"
    },
    "scene" : 0,
    "scenes" : [
        {
            "name" : "Scene",
            "nodes" : [
                0,
                1
            ]
        }
    ],
    "nodes" : [
        {
            "mesh" : 0,
            "name" : "Magazine_SMG",
            "translation" : [
                0.47650253772735596,
                0.14838455617427826,
                0
            ]
        },
        {
            "mesh" : 1,
            "name" : "SMG_1"
        }
    ],
    "materials" : [
        {
            "doubleSided" : true,
            "name" : "Black",
            "pbrMetallicRoughness" : {
                "baseColorFactor" : [
                    0.0290982685983181,
                    0.0290982685983181,
                    0.0290982685983181,
                    1
                ],
                "metallicFactor" : 0,
                "roughnessFactor" : 0.5
            }
        },
        {
            "doubleSided" : true,
            "name" : "Grey",
            "pbrMetallicRoughness" : {
                "baseColorFactor" : [
                    0.10247143357992172,
                    0.10247143357992172,
                    0.10247143357992172,
                    1
                ],
                "metallicFactor" : 0,
                "roughnessFactor" : 0.5
            }
        },
        {
            "doubleSided" : true,
            "name" : "White",
            "pbrMetallicRoughness" : {
                "baseColorFactor" : [
                    0.4575273394584656,
                    0.4575273394584656,
                    0.4575273394584656,
                    1
                ],
                "metallicFactor" : 0,
                "roughnessFactor" : 0.5
            }
        },
        {
            "doubleSided" : true,
            "name" : "Main",
            "pbrMetallicRoughness" : {
                "baseColorFactor" : [
                    0.6151726245880127,
                    0.21127153933048248,
                    0.028615577146410942,
                    1
                ],
                "metallicFactor" : 0,
                "roughnessFactor" : 0.5
            }
        }
    ],
    "meshes" : [
        {
            "name" : "Cube.221",
            "primitives" : [
                {
                    "attributes" : {
                        "POSITION" : 0,
                        "NORMAL" : 1
                    },
                    "indices" : 2,
                    "material" : 0
                }
            ]
        },
        {
            "name" : "Cube.084",
            "primitives" : [
                {
                    "attributes" : {
                        "POSITION" : 3,
                        "NORMAL" : 4
                    },
                    "indices" : 5,
                    "material" : 0
                },
                {
                    "attributes" : {
                        "POSITION" : 6,
                        "NORMAL" : 7
                    },
                    "indices" : 8,
                    "material" : 1
                },
                {
                    "attributes" : {
                        "POSITION" : 9,
                        "NORMAL" : 10
                    },
                    "indices" : 11,
                    "material" : 2
                },
                {
                    "attributes" : {
                        "POSITION" : 12,
                        "NORMAL" : 13
                    },
                    "indices" : 14,
                    "material" : 3
                }
            ]
        }
    ],
    "accessors" : [
        {
            "bufferView" : 0,
            "componentType" : 5126,
            "count" : 254,
            "max" : [
                0.07051578164100647,
                0,
                0.018727095797657967
            ],
            "min" : [
                -0.08454908430576324,
                -0.49563366174697876,
                -0.04634873569011688
            ],
            "type" : "VEC3"
        },
        {
            "bufferView" : 1,
            "componentType" : 5126,
            "count" : 254,
            "type" : "VEC3"
        },
        {
            "bufferView" : 2,
            "componentType" : 5123,
            "count" : 696,
            "type" : "SCALAR"
        },
        {
            "bufferView" : 3,
            "componentType" : 5126,
            "count" : 1245,
            "max" : [
                0.6712878942489624,
                0.4361642301082611,
                0.07647372782230377
            ],
            "min" : [
                -0.7364248633384705,
                -0.08648346364498138,
                -0.07647360116243362
            ],
            "type" : "VEC3"
        },
        {
            "bufferView" : 4,
            "componentType" : 5126,
            "count" : 1245,
            "type" : "VEC3"
        },
        {
            "bufferView" : 5,
            "componentType" : 5123,
            "count" : 3738,
            "type" : "SCALAR"
        },
        {
            "bufferView" : 6,
            "componentType" : 5126,
            "count" : 681,
            "max" : [
                0.6317416429519653,
                0.3620510399341583,
                0.04145712032914162
            ],
            "min" : [
                -0.6357033848762512,
                -0.10312239080667496,
                -0.04145722836256027
            ],
            "type" : "VEC3"
        },
        {
            "bufferView" : 7,
            "componentType" : 5126,
            "count" : 681,
            "type" : "VEC3"
        },
        {
            "bufferView" : 8,
            "componentType" : 5123,
            "count" : 2418,
            "type" : "SCALAR"
        },
        {
            "bufferView" : 9,
            "componentType" : 5126,
            "count" : 197,
            "max" : [
                0.45517590641975403,
                0.4447263777256012,
                0.0716482624411583
            ],
            "min" : [
                -0.6758712530136108,
                0.031717751175165176,
                -0.07221756875514984
            ],
            "type" : "VEC3"
        },
        {
            "bufferView" : 10,
            "componentType" : 5126,
            "count" : 197,
            "type" : "VEC3"
        },
        {
            "bufferView" : 11,
            "componentType" : 5123,
            "count" : 690,
            "type" : "SCALAR"
        },
        {
            "bufferView" : 12,
            "componentType" : 5126,
            "count" : 207,
            "max" : [
                0.4870048463344574,
                0.4447263777256012,
                0.07164829224348068
            ],
            "min" : [
                -0.6986509561538696,
                0.031717751175165176,
                -0.07221759855747223
            ],
            "type" : "VEC3"
        },
        {
            "bufferView" : 13,
            "componentType" : 5126,
            "count" : 207,
            "type" : "VEC3"
        },
        {
            "bufferView" : 14,
            "componentType" : 5123,
            "count" : 576,
            "type" : "SCALAR"
        }
    ],
    "bufferViews" : [
        {
            "buffer" : 0,
            "byteLength" : 3048,
            "byteOffset" : 0
        },
        {
            "buffer" : 0,
            "byteLength" : 3048,
            "byteOffset" : 3048
        },
        {
            "buffer" : 0,
            "byteLength" : 1392,
            "byteOffset" : 6096
        },
        {
            "buffer" : 0,
            "byteLength" : 14940,
            "byteOffset" : 7488
        },
        {
            "buffer" : 0,
            "byteLength" : 14940,
            "byteOffset" : 22428
        },
        {
            "buffer" : 0,
            "byteLength" : 7476,
            "byteOffset" : 37368
        },
        {
            "buffer" : 0,
            "byteLength" : 8172,
            "byteOffset" : 44844
        },
        {
            "buffer" : 0,
            "byteLength" : 8172,
            "byteOffset" : 53016
        },
        {
            "buffer" : 0,
            "byteLength" : 4836,
            "byteOffset" : 61188
        },
        {
            "buffer" : 0,
            "byteLength" : 2364,
            "byteOffset" : 66024
        },
        {
            "buffer" : 0,
            "byteLength" : 2364,
            "byteOffset" : 68388
        },
        {
            "buffer" : 0,
            "byteLength" : 1380,
            "byteOffset" : 70752
        },
        {
            "buffer" : 0,
            "byteLength" : 2484,
            "byteOffset" : 72132
        },
        {
            "buffer" : 0,
            "byteLength" : 2484,
            "byteOffset" : 74616
        },
        {
            "buffer" : 0,
            "byteLength" : 1152,
            "byteOffset" : 77100
        }
    ],
    "buffers" : [
        {
            "byteLength" : 78252,
            "uri" : "data:application/octet-stream;base64,"
        }
    ]
}
