{
    "asset" : {
        "generator" : "Khronos glTF Blender I/O v1.6.16",
        "version" : "2.0"
    },
    "scene" : 0,
    "scenes" : [
        {
            "name" : "Scene",
            "nodes" : [
                0,
                1
            ]
        }
    ],
    "nodes" : [
        {
            "mesh" : 0,
            "name" : "Magazine_SMG_2",
            "translation" : [
                0.5789055824279785,
                0.14945600926876068,
                0
            ]
        },
        {
            "mesh" : 1,
            "name" : "SMG_2"
        }
    ],
    "materials" : [
        {
            "doubleSided" : true,
            "name" : "Black",
            "pbrMetallicRoughness" : {
                "baseColorFactor" : [
                    0.0290982685983181,
                    0.0290982685983181,
                    0.0290982685983181,
                    1
                ],
                "metallicFactor" : 0,
                "roughnessFactor" : 0.5
            }
        },
        {
            "doubleSided" : true,
            "name" : "Grey",
            "pbrMetallicRoughness" : {
                "baseColorFactor" : [
                    0.10247143357992172,
                    0.10247143357992172,
                    0.10247143357992172,
                    1
                ],
                "metallicFactor" : 0,
                "roughnessFactor" : 0.5
            }
        },
        {
            "doubleSided" : true,
            "name" : "White",
            "pbrMetallicRoughness" : {
                "baseColorFactor" : [
                    0.4575273394584656,
                    0.4575273394584656,
                    0.4575273394584656,
                    1
                ],
                "metallicFactor" : 0,
                "roughnessFactor" : 0.5
            }
        },
        {
            "doubleSided" : true,
            "name" : "Main",
            "pbrMetallicRoughness" : {
                "baseColorFactor" : [
                    0.6151726245880127,
                    0.21127153933048248,
                    0.028615577146410942,
                    1
                ],
                "metallicFactor" : 0,
                "roughnessFactor" : 0.5
            }
        }
    ],
    "meshes" : [
        {
            "name" : "Cube.000",
            "primitives" : [
                {
                    "attributes" : {
                        "POSITION" : 0,
                        "NORMAL" : 1
                    },
                    "indices" : 2,
                    "material" : 0
                }
            ]
        },
        {
            "name" : "Cube.167",
            "primitives" : [
                {
                    "attributes" : {
                        "POSITION" : 3,
                        "NORMAL" : 4
                    },
                    "indices" : 5,
                    "material" : 0
                },
                {
                    "attributes" : {
                        "POSITION" : 6,
                        "NORMAL" : 7
                    },
                    "indices" : 8,
                    "material" : 1
                },
                {
                    "attributes" : {
                        "POSITION" : 9,
                        "NORMAL" : 10
                    },
                    "indices" : 11,
                    "material" : 2
                },
                {
                    "attributes" : {
                        "POSITION" : 12,
                        "NORMAL" : 13
                    },
                    "indices" : 14,
                    "material" : 3
                }
            ]
        }
    ],
    "accessors" : [
        {
            "bufferView" : 0,
            "componentType" : 5126,
            "count" : 264,
            "max" : [
                0.19603124260902405,
                1.456906630892263e-07,
                0.02403206191956997
            ],
            "min" : [
                -0.11052324622869492,
                -0.39472484588623047,
                -0.023898109793663025
            ],
            "type" : "VEC3"
        },
        {
            "bufferView" : 1,
            "componentType" : 5126,
            "count" : 264,
            "type" : "VEC3"
        },
        {
            "bufferView" : 2,
            "componentType" : 5123,
            "count" : 696,
            "type" : "SCALAR"
        },
        {
            "bufferView" : 3,
            "componentType" : 5126,
            "count" : 1274,
            "max" : [
                1.2709999084472656,
                0.4883445203304291,
                0.0808386281132698
            ],
            "min" : [
                -0.9309820532798767,
                -0.1626748889684677,
                -0.08082832396030426
            ],
            "type" : "VEC3"
        },
        {
            "bufferView" : 4,
            "componentType" : 5126,
            "count" : 1274,
            "type" : "VEC3"
        },
        {
            "bufferView" : 5,
            "componentType" : 5123,
            "count" : 3612,
            "type" : "SCALAR"
        },
        {
            "bufferView" : 6,
            "componentType" : 5126,
            "count" : 739,
            "max" : [
                1.226881742477417,
                0.4250951409339905,
                0.03739539533853531
            ],
            "min" : [
                -0.6795769929885864,
                -0.18251222372055054,
                -0.037395235151052475
            ],
            "type" : "VEC3"
        },
        {
            "bufferView" : 7,
            "componentType" : 5126,
            "count" : 739,
            "type" : "VEC3"
        },
        {
            "bufferView" : 8,
            "componentType" : 5123,
            "count" : 2598,
            "type" : "SCALAR"
        },
        {
            "bufferView" : 9,
            "componentType" : 5126,
            "count" : 321,
            "max" : [
                1.1614781618118286,
                0.49239683151245117,
                0.0879920944571495
            ],
            "min" : [
                -0.8353694081306458,
                -0.0785265564918518,
                -0.08798179030418396
            ],
            "type" : "VEC3"
        },
        {
            "bufferView" : 10,
            "componentType" : 5126,
            "count" : 321,
            "type" : "VEC3"
        },
        {
            "bufferView" : 11,
            "componentType" : 5123,
            "count" : 888,
            "type" : "SCALAR"
        },
        {
            "bufferView" : 12,
            "componentType" : 5126,
            "count" : 252,
            "max" : [
                1.2385766506195068,
                0.43536850810050964,
                0.08487918227910995
            ],
            "min" : [
                -0.9003552794456482,
                0.03241967782378197,
                -0.08486887067556381
            ],
            "type" : "VEC3"
        },
        {
            "bufferView" : 13,
            "componentType" : 5126,
            "count" : 252,
            "type" : "VEC3"
        },
        {
            "bufferView" : 14,
            "componentType" : 5123,
            "count" : 666,
            "type" : "SCALAR"
        }
    ],
    "bufferViews" : [
        {
            "buffer" : 0,
            "byteLength" : 3168,
            "byteOffset" : 0
        },
        {
            "buffer" : 0,
            "byteLength" : 3168,
            "byteOffset" : 3168
        },
        {
            "buffer" : 0,
            "byteLength" : 1392,
            "byteOffset" : 6336
        },
        {
            "buffer" : 0,
            "byteLength" : 15288,
            "byteOffset" : 7728
        },
        {
            "buffer" : 0,
            "byteLength" : 15288,
            "byteOffset" : 23016
        },
        {
            "buffer" : 0,
            "byteLength" : 7224,
            "byteOffset" : 38304
        },
        {
            "buffer" : 0,
            "byteLength" : 8868,
            "byteOffset" : 45528
        },
        {
            "buffer" : 0,
            "byteLength" : 8868,
            "byteOffset" : 54396
        },
        {
            "buffer" : 0,
            "byteLength" : 5196,
            "byteOffset" : 63264
        },
        {
            "buffer" : 0,
            "byteLength" : 3852,
            "byteOffset" : 68460
        },
        {
            "buffer" : 0,
            "byteLength" : 3852,
            "byteOffset" : 72312
        },
        {
            "buffer" : 0,
            "byteLength" : 1776,
            "byteOffset" : 76164
        },
        {
            "buffer" : 0,
            "byteLength" : 3024,
            "byteOffset" : 77940
        },
        {
            "buffer" : 0,
            "byteLength" : 3024,
            "byteOffset" : 80964
        },
        {
            "buffer" : 0,
            "byteLength" : 1332,
            "byteOffset" : 83988
        }
    ],
    "buffers" : [
        {
            "byteLength" : 85320,
            "uri" : "data:application/octet-stream;base64,"
        }
    ]
}
