{
    "asset" : {
        "generator" : "Khronos glTF Blender I/O v1.6.16",
        "version" : "2.0"
    },
    "scene" : 0,
    "scenes" : [
        {
            "name" : "Scene",
            "nodes" : [
                0,
                1
            ]
        }
    ],
    "nodes" : [
        {
            "mesh" : 0,
            "name" : "Magazine_Sniper_3",
            "translation" : [
                0.19892118871212006,
                0.025617649778723717,
                0
            ]
        },
        {
            "mesh" : 1,
            "name" : "Sniper_3"
        }
    ],
    "materials" : [
        {
            "doubleSided" : true,
            "name" : "Black",
            "pbrMetallicRoughness" : {
                "baseColorFactor" : [
                    0.0290982685983181,
                    0.0290982685983181,
                    0.0290982685983181,
                    1
                ],
                "metallicFactor" : 0,
                "roughnessFactor" : 0.5
            }
        },
        {
            "doubleSided" : true,
            "name" : "Grey",
            "pbrMetallicRoughness" : {
                "baseColorFactor" : [
                    0.10247143357992172,
                    0.10247143357992172,
                    0.10247143357992172,
                    1
                ],
                "metallicFactor" : 0,
                "roughnessFactor" : 0.5
            }
        },
        {
            "doubleSided" : true,
            "name" : "White",
            "pbrMetallicRoughness" : {
                "baseColorFactor" : [
                    0.4575273394584656,
                    0.4575273394584656,
                    0.4575273394584656,
                    1
                ],
                "metallicFactor" : 0,
                "roughnessFactor" : 0.5
            }
        },
        {
            "doubleSided" : true,
            "name" : "Main",
            "pbrMetallicRoughness" : {
                "baseColorFactor" : [
                    0.6151726245880127,
                    0.21127153933048248,
                    0.028615577146410942,
                    1
                ],
                "metallicFactor" : 0,
                "roughnessFactor" : 0.5
            }
        }
    ],
    "meshes" : [
        {
            "name" : "Cube.006",
            "primitives" : [
                {
                    "attributes" : {
                        "POSITION" : 0,
                        "NORMAL" : 1
                    },
                    "indices" : 2,
                    "material" : 0
                }
            ]
        },
        {
            "name" : "Cube.046",
            "primitives" : [
                {
                    "attributes" : {
                        "POSITION" : 3,
                        "NORMAL" : 4
                    },
                    "indices" : 5,
                    "material" : 0
                },
                {
                    "attributes" : {
                        "POSITION" : 6,
                        "NORMAL" : 7
                    },
                    "indices" : 8,
                    "material" : 1
                },
                {
                    "attributes" : {
                        "POSITION" : 9,
                        "NORMAL" : 10
                    },
                    "indices" : 11,
                    "material" : 2
                },
                {
                    "attributes" : {
                        "POSITION" : 12,
                        "NORMAL" : 13
                    },
                    "indices" : 14,
                    "material" : 3
                }
            ]
        }
    ],
    "accessors" : [
        {
            "bufferView" : 0,
            "componentType" : 5126,
            "count" : 264,
            "max" : [
                0.11132104694843292,
                0,
                0.019779540598392487
            ],
            "min" : [
                -0.06362607330083847,
                -0.22526507079601288,
                -0.019779521971940994
            ],
            "type" : "VEC3"
        },
        {
            "bufferView" : 1,
            "componentType" : 5126,
            "count" : 264,
            "type" : "VEC3"
        },
        {
            "bufferView" : 2,
            "componentType" : 5123,
            "count" : 696,
            "type" : "SCALAR"
        },
        {
            "bufferView" : 3,
            "componentType" : 5126,
            "count" : 3174,
            "max" : [
                1.5129427909851074,
                0.33095884323120117,
                0.04726817086338997
            ],
            "min" : [
                -0.747471034526825,
                -0.06052178144454956,
                -0.04726815223693848
            ],
            "type" : "VEC3"
        },
        {
            "bufferView" : 4,
            "componentType" : 5126,
            "count" : 3174,
            "type" : "VEC3"
        },
        {
            "bufferView" : 5,
            "componentType" : 5123,
            "count" : 11388,
            "type" : "SCALAR"
        },
        {
            "bufferView" : 6,
            "componentType" : 5126,
            "count" : 428,
            "max" : [
                1.0736726522445679,
                0.27319157123565674,
                0.04297145456075668
            ],
            "min" : [
                -0.686284065246582,
                -0.03971046581864357,
                -0.04726815223693848
            ],
            "type" : "VEC3"
        },
        {
            "bufferView" : 7,
            "componentType" : 5126,
            "count" : 428,
            "type" : "VEC3"
        },
        {
            "bufferView" : 8,
            "componentType" : 5123,
            "count" : 1020,
            "type" : "SCALAR"
        },
        {
            "bufferView" : 9,
            "componentType" : 5126,
            "count" : 370,
            "max" : [
                1.1150051355361938,
                0.3399880826473236,
                0.04726817086338997
            ],
            "min" : [
                -0.5710983872413635,
                0.028920313343405724,
                -0.04726815223693848
            ],
            "type" : "VEC3"
        },
        {
            "bufferView" : 10,
            "componentType" : 5126,
            "count" : 370,
            "type" : "VEC3"
        },
        {
            "bufferView" : 11,
            "componentType" : 5123,
            "count" : 990,
            "type" : "SCALAR"
        },
        {
            "bufferView" : 12,
            "componentType" : 5126,
            "count" : 257,
            "max" : [
                0.9469922184944153,
                0.34052935242652893,
                0.019343320280313492
            ],
            "min" : [
                0.3519214391708374,
                0.028920313343405724,
                -0.04726815223693848
            ],
            "type" : "VEC3"
        },
        {
            "bufferView" : 13,
            "componentType" : 5126,
            "count" : 257,
            "type" : "VEC3"
        },
        {
            "bufferView" : 14,
            "componentType" : 5123,
            "count" : 609,
            "type" : "SCALAR"
        }
    ],
    "bufferViews" : [
        {
            "buffer" : 0,
            "byteLength" : 3168,
            "byteOffset" : 0
        },
        {
            "buffer" : 0,
            "byteLength" : 3168,
            "byteOffset" : 3168
        },
        {
            "buffer" : 0,
            "byteLength" : 1392,
            "byteOffset" : 6336
        },
        {
            "buffer" : 0,
            "byteLength" : 38088,
            "byteOffset" : 7728
        },
        {
            "buffer" : 0,
            "byteLength" : 38088,
            "byteOffset" : 45816
        },
        {
            "buffer" : 0,
            "byteLength" : 22776,
            "byteOffset" : 83904
        },
        {
            "buffer" : 0,
            "byteLength" : 5136,
            "byteOffset" : 106680
        },
        {
            "buffer" : 0,
            "byteLength" : 5136,
            "byteOffset" : 111816
        },
        {
            "buffer" : 0,
            "byteLength" : 2040,
            "byteOffset" : 116952
        },
        {
            "buffer" : 0,
            "byteLength" : 4440,
            "byteOffset" : 118992
        },
        {
            "buffer" : 0,
            "byteLength" : 4440,
            "byteOffset" : 123432
        },
        {
            "buffer" : 0,
            "byteLength" : 1980,
            "byteOffset" : 127872
        },
        {
            "buffer" : 0,
            "byteLength" : 3084,
            "byteOffset" : 129852
        },
        {
            "buffer" : 0,
            "byteLength" : 3084,
            "byteOffset" : 132936
        },
        {
            "buffer" : 0,
            "byteLength" : 1218,
            "byteOffset" : 136020
        }
    ],
    "buffers" : [
        {
            "byteLength" : 137240,
            "uri" : "data:application/octet-stream;base64,"
        }
    ]
}
