{
    "asset" : {
        "generator" : "Khronos glTF Blender I/O v1.6.16",
        "version" : "2.0"
    },
    "scene" : 0,
    "scenes" : [
        {
            "name" : "Scene",
            "nodes" : [
                0,
                1
            ]
        }
    ],
    "nodes" : [
        {
            "mesh" : 0,
            "name" : "Magazine_Sniper",
            "translation" : [
                0.21095067262649536,
                0.04378221184015274,
                0
            ]
        },
        {
            "mesh" : 1,
            "name" : "Sniper_1"
        }
    ],
    "materials" : [
        {
            "doubleSided" : true,
            "name" : "Black",
            "pbrMetallicRoughness" : {
                "baseColorFactor" : [
                    0.0290982685983181,
                    0.0290982685983181,
                    0.0290982685983181,
                    1
                ],
                "metallicFactor" : 0,
                "roughnessFactor" : 0.5
            }
        },
        {
            "doubleSided" : true,
            "name" : "Grey",
            "pbrMetallicRoughness" : {
                "baseColorFactor" : [
                    0.10247143357992172,
                    0.10247143357992172,
                    0.10247143357992172,
                    1
                ],
                "metallicFactor" : 0,
                "roughnessFactor" : 0.5
            }
        },
        {
            "doubleSided" : true,
            "name" : "White",
            "pbrMetallicRoughness" : {
                "baseColorFactor" : [
                    0.4575273394584656,
                    0.4575273394584656,
                    0.4575273394584656,
                    1
                ],
                "metallicFactor" : 0,
                "roughnessFactor" : 0.5
            }
        },
        {
            "doubleSided" : true,
            "name" : "Main",
            "pbrMetallicRoughness" : {
                "baseColorFactor" : [
                    0.6151726245880127,
                    0.21127153933048248,
                    0.028615577146410942,
                    1
                ],
                "metallicFactor" : 0,
                "roughnessFactor" : 0.5
            }
        }
    ],
    "meshes" : [
        {
            "name" : "Cube.241",
            "primitives" : [
                {
                    "attributes" : {
                        "POSITION" : 0,
                        "NORMAL" : 1
                    },
                    "indices" : 2,
                    "material" : 0
                }
            ]
        },
        {
            "name" : "Cube.129",
            "primitives" : [
                {
                    "attributes" : {
                        "POSITION" : 3,
                        "NORMAL" : 4
                    },
                    "indices" : 5,
                    "material" : 0
                },
                {
                    "attributes" : {
                        "POSITION" : 6,
                        "NORMAL" : 7
                    },
                    "indices" : 8,
                    "material" : 1
                },
                {
                    "attributes" : {
                        "POSITION" : 9,
                        "NORMAL" : 10
                    },
                    "indices" : 11,
                    "material" : 2
                },
                {
                    "attributes" : {
                        "POSITION" : 12,
                        "NORMAL" : 13
                    },
                    "indices" : 14,
                    "material" : 3
                }
            ]
        }
    ],
    "accessors" : [
        {
            "bufferView" : 0,
            "componentType" : 5126,
            "count" : 232,
            "max" : [
                0.1116071417927742,
                4.535385471626796e-07,
                0.01979335956275463
            ],
            "min" : [
                -0.06333997845649719,
                -0.22526459395885468,
                -0.019765704870224
            ],
            "type" : "VEC3"
        },
        {
            "bufferView" : 1,
            "componentType" : 5126,
            "count" : 232,
            "type" : "VEC3"
        },
        {
            "bufferView" : 2,
            "componentType" : 5123,
            "count" : 696,
            "type" : "SCALAR"
        },
        {
            "bufferView" : 3,
            "componentType" : 5126,
            "count" : 1635,
            "max" : [
                1.1590319871902466,
                0.3207673728466034,
                0.05144283175468445
            ],
            "min" : [
                -0.6924453377723694,
                -0.06037071719765663,
                -0.051405128091573715
            ],
            "type" : "VEC3"
        },
        {
            "bufferView" : 4,
            "componentType" : 5126,
            "count" : 1635,
            "type" : "VEC3"
        },
        {
            "bufferView" : 5,
            "componentType" : 5123,
            "count" : 6438,
            "type" : "SCALAR"
        },
        {
            "bufferView" : 6,
            "componentType" : 5126,
            "count" : 406,
            "max" : [
                0.9936411380767822,
                0.2833549380302429,
                0.046768348664045334
            ],
            "min" : [
                -0.60081946849823,
                -0.026732435449957848,
                -0.051405128091573715
            ],
            "type" : "VEC3"
        },
        {
            "bufferView" : 7,
            "componentType" : 5126,
            "count" : 406,
            "type" : "VEC3"
        },
        {
            "bufferView" : 8,
            "componentType" : 5123,
            "count" : 1122,
            "type" : "SCALAR"
        },
        {
            "bufferView" : 9,
            "componentType" : 5126,
            "count" : 698,
            "max" : [
                1.159102439880371,
                0.34013915061950684,
                0.05144283175468445
            ],
            "min" : [
                -0.6356238722801208,
                -0.02478410117328167,
                -0.051405128091573715
            ],
            "type" : "VEC3"
        },
        {
            "bufferView" : 10,
            "componentType" : 5126,
            "count" : 698,
            "type" : "VEC3"
        },
        {
            "bufferView" : 11,
            "componentType" : 5123,
            "count" : 2052,
            "type" : "SCALAR"
        },
        {
            "bufferView" : 12,
            "componentType" : 5126,
            "count" : 940,
            "max" : [
                1.5312421321868896,
                0.34068042039871216,
                0.05144283175468445
            ],
            "min" : [
                -0.6781379580497742,
                -0.02478410117328167,
                -0.051405128091573715
            ],
            "type" : "VEC3"
        },
        {
            "bufferView" : 13,
            "componentType" : 5126,
            "count" : 940,
            "type" : "VEC3"
        },
        {
            "bufferView" : 14,
            "componentType" : 5123,
            "count" : 2472,
            "type" : "SCALAR"
        }
    ],
    "bufferViews" : [
        {
            "buffer" : 0,
            "byteLength" : 2784,
            "byteOffset" : 0
        },
        {
            "buffer" : 0,
            "byteLength" : 2784,
            "byteOffset" : 2784
        },
        {
            "buffer" : 0,
            "byteLength" : 1392,
            "byteOffset" : 5568
        },
        {
            "buffer" : 0,
            "byteLength" : 19620,
            "byteOffset" : 6960
        },
        {
            "buffer" : 0,
            "byteLength" : 19620,
            "byteOffset" : 26580
        },
        {
            "buffer" : 0,
            "byteLength" : 12876,
            "byteOffset" : 46200
        },
        {
            "buffer" : 0,
            "byteLength" : 4872,
            "byteOffset" : 59076
        },
        {
            "buffer" : 0,
            "byteLength" : 4872,
            "byteOffset" : 63948
        },
        {
            "buffer" : 0,
            "byteLength" : 2244,
            "byteOffset" : 68820
        },
        {
            "buffer" : 0,
            "byteLength" : 8376,
            "byteOffset" : 71064
        },
        {
            "buffer" : 0,
            "byteLength" : 8376,
            "byteOffset" : 79440
        },
        {
            "buffer" : 0,
            "byteLength" : 4104,
            "byteOffset" : 87816
        },
        {
            "buffer" : 0,
            "byteLength" : 11280,
            "byteOffset" : 91920
        },
        {
            "buffer" : 0,
            "byteLength" : 11280,
            "byteOffset" : 103200
        },
        {
            "buffer" : 0,
            "byteLength" : 4944,
            "byteOffset" : 114480
        }
    ],
    "buffers" : [
        {
            "byteLength" : 119424,
            "uri" : "data:application/octet-stream;base64,"
        }
    ]
}
