{
    "asset" : {
        "generator" : "Khronos glTF Blender I/O v1.6.16",
        "version" : "2.0"
    },
    "scene" : 0,
    "scenes" : [
        {
            "name" : "Scene",
            "nodes" : [
                0
            ]
        }
    ],
    "nodes" : [
        {
            "mesh" : 0,
            "name" : "Sniper_2"
        }
    ],
    "materials" : [
        {
            "doubleSided" : true,
            "name" : "Black",
            "pbrMetallicRoughness" : {
                "baseColorFactor" : [
                    0.0290982685983181,
                    0.0290982685983181,
                    0.0290982685983181,
                    1
                ],
                "metallicFactor" : 0,
                "roughnessFactor" : 0.5
            }
        },
        {
            "doubleSided" : true,
            "name" : "Grey",
            "pbrMetallicRoughness" : {
                "baseColorFactor" : [
                    0.10247143357992172,
                    0.10247143357992172,
                    0.10247143357992172,
                    1
                ],
                "metallicFactor" : 0,
                "roughnessFactor" : 0.5
            }
        },
        {
            "doubleSided" : true,
            "name" : "White",
            "pbrMetallicRoughness" : {
                "baseColorFactor" : [
                    0.4575273394584656,
                    0.4575273394584656,
                    0.4575273394584656,
                    1
                ],
                "metallicFactor" : 0,
                "roughnessFactor" : 0.5
            }
        },
        {
            "doubleSided" : true,
            "name" : "Main",
            "pbrMetallicRoughness" : {
                "baseColorFactor" : [
                    0.6151726245880127,
                    0.21127153933048248,
                    0.028615577146410942,
                    1
                ],
                "metallicFactor" : 0,
                "roughnessFactor" : 0.5
            }
        }
    ],
    "meshes" : [
        {
            "name" : "Cube.202",
            "primitives" : [
                {
                    "attributes" : {
                        "POSITION" : 0,
                        "NORMAL" : 1
                    },
                    "indices" : 2,
                    "material" : 0
                },
                {
                    "attributes" : {
                        "POSITION" : 3,
                        "NORMAL" : 4
                    },
                    "indices" : 5,
                    "material" : 1
                },
                {
                    "attributes" : {
                        "POSITION" : 6,
                        "NORMAL" : 7
                    },
                    "indices" : 8,
                    "material" : 2
                },
                {
                    "attributes" : {
                        "POSITION" : 9,
                        "NORMAL" : 10
                    },
                    "indices" : 11,
                    "material" : 3
                }
            ]
        }
    ],
    "accessors" : [
        {
            "bufferView" : 0,
            "componentType" : 5126,
            "count" : 1780,
            "max" : [
                1.626577615737915,
                0.44192805886268616,
                0.08922141045331955
            ],
            "min" : [
                -0.8882302641868591,
                -0.0861629992723465,
                -0.08922142535448074
            ],
            "type" : "VEC3"
        },
        {
            "bufferView" : 1,
            "componentType" : 5126,
            "count" : 1780,
            "type" : "VEC3"
        },
        {
            "bufferView" : 2,
            "componentType" : 5123,
            "count" : 5292,
            "type" : "SCALAR"
        },
        {
            "bufferView" : 3,
            "componentType" : 5126,
            "count" : 222,
            "max" : [
                0.18298828601837158,
                0.3139328360557556,
                0.05349784344434738
            ],
            "min" : [
                -0.769294798374176,
                0.03305899724364281,
                -0.05349785462021828
            ],
            "type" : "VEC3"
        },
        {
            "bufferView" : 4,
            "componentType" : 5126,
            "count" : 222,
            "type" : "VEC3"
        },
        {
            "bufferView" : 5,
            "componentType" : 5123,
            "count" : 522,
            "type" : "SCALAR"
        },
        {
            "bufferView" : 6,
            "componentType" : 5126,
            "count" : 449,
            "max" : [
                1.1486260890960693,
                0.4657672941684723,
                0.08922141045331955
            ],
            "min" : [
                -0.8177241086959839,
                -0.034289829432964325,
                -0.08922142535448074
            ],
            "type" : "VEC3"
        },
        {
            "bufferView" : 7,
            "componentType" : 5126,
            "count" : 449,
            "type" : "VEC3"
        },
        {
            "bufferView" : 8,
            "componentType" : 5123,
            "count" : 1260,
            "type" : "SCALAR"
        },
        {
            "bufferView" : 9,
            "componentType" : 5126,
            "count" : 223,
            "max" : [
                0.9629898071289062,
                0.4075443148612976,
                0.06759331375360489
            ],
            "min" : [
                -0.8420936465263367,
                -0.034289829432964325,
                -0.06747903674840927
            ],
            "type" : "VEC3"
        },
        {
            "bufferView" : 10,
            "componentType" : 5126,
            "count" : 223,
            "type" : "VEC3"
        },
        {
            "bufferView" : 11,
            "componentType" : 5123,
            "count" : 516,
            "type" : "SCALAR"
        }
    ],
    "bufferViews" : [
        {
            "buffer" : 0,
            "byteLength" : 21360,
            "byteOffset" : 0
        },
        {
            "buffer" : 0,
            "byteLength" : 21360,
            "byteOffset" : 21360
        },
        {
            "buffer" : 0,
            "byteLength" : 10584,
            "byteOffset" : 42720
        },
        {
            "buffer" : 0,
            "byteLength" : 2664,
            "byteOffset" : 53304
        },
        {
            "buffer" : 0,
            "byteLength" : 2664,
            "byteOffset" : 55968
        },
        {
            "buffer" : 0,
            "byteLength" : 1044,
            "byteOffset" : 58632
        },
        {
            "buffer" : 0,
            "byteLength" : 5388,
            "byteOffset" : 59676
        },
        {
            "buffer" : 0,
            "byteLength" : 5388,
            "byteOffset" : 65064
        },
        {
            "buffer" : 0,
            "byteLength" : 2520,
            "byteOffset" : 70452
        },
        {
            "buffer" : 0,
            "byteLength" : 2676,
            "byteOffset" : 72972
        },
        {
            "buffer" : 0,
            "byteLength" : 2676,
            "byteOffset" : 75648
        },
        {
            "buffer" : 0,
            "byteLength" : 1032,
            "byteOffset" : 78324
        }
    ],
    "buffers" : [
        {
            "byteLength" : 79356,
            "uri" : "data:application/octet-stream;base64,"
        }
    ]
}
