{
    "asset" : {
        "generator" : "Khronos glTF Blender I/O v1.6.16",
        "version" : "2.0"
    },
    "scene" : 0,
    "scenes" : [
        {
            "name" : "Scene",
            "nodes" : [
                0
            ]
        }
    ],
    "nodes" : [
        {
            "mesh" : 0,
            "name" : "Accessory_Pistol_1"
        }
    ],
    "materials" : [
        {
            "doubleSided" : true,
            "name" : "White",
            "pbrMetallicRoughness" : {
                "baseColorFactor" : [
                    0.4575273394584656,
                    0.4575273394584656,
                    0.4575273394584656,
                    1
                ],
                "metallicFactor" : 0,
                "roughnessFactor" : 0.5
            }
        },
        {
            "doubleSided" : true,
            "name" : "Main",
            "pbrMetallicRoughness" : {
                "baseColorFactor" : [
                    0.6151726245880127,
                    0.21127153933048248,
                    0.028615577146410942,
                    1
                ],
                "metallicFactor" : 0,
                "roughnessFactor" : 0.5
            }
        }
    ],
    "meshes" : [
        {
            "name" : "Cylinder.024",
            "primitives" : [
                {
                    "attributes" : {
                        "POSITION" : 0,
                        "NORMAL" : 1
                    },
                    "indices" : 2,
                    "material" : 0
                },
                {
                    "attributes" : {
                        "POSITION" : 3,
                        "NORMAL" : 4
                    },
                    "indices" : 5,
                    "material" : 1
                }
            ]
        }
    ],
    "accessors" : [
        {
            "bufferView" : 0,
            "componentType" : 5126,
            "count" : 500,
            "max" : [
                0.12499367445707321,
                0.12425325065851212,
                0.08397332578897476
            ],
            "min" : [
                -0.12499367445707321,
                -0.12524081766605377,
                -0.08397332578897476
            ],
            "type" : "VEC3"
        },
        {
            "bufferView" : 1,
            "componentType" : 5126,
            "count" : 500,
            "type" : "VEC3"
        },
        {
            "bufferView" : 2,
            "componentType" : 5123,
            "count" : 1500,
            "type" : "SCALAR"
        },
        {
            "bufferView" : 3,
            "componentType" : 5126,
            "count" : 225,
            "max" : [
                0.11862415820360184,
                0.11792145669460297,
                0.08911246061325073
            ],
            "min" : [
                -0.11862415820360184,
                -0.118858702480793,
                -0.08911246061325073
            ],
            "type" : "VEC3"
        },
        {
            "bufferView" : 4,
            "componentType" : 5126,
            "count" : 225,
            "type" : "VEC3"
        },
        {
            "bufferView" : 5,
            "componentType" : 5123,
            "count" : 738,
            "type" : "SCALAR"
        }
    ],
    "bufferViews" : [
        {
            "buffer" : 0,
            "byteLength" : 6000,
            "byteOffset" : 0
        },
        {
            "buffer" : 0,
            "byteLength" : 6000,
            "byteOffset" : 6000
        },
        {
            "buffer" : 0,
            "byteLength" : 3000,
            "byteOffset" : 12000
        },
        {
            "buffer" : 0,
            "byteLength" : 2700,
            "byteOffset" : 15000
        },
        {
            "buffer" : 0,
            "byteLength" : 2700,
            "byteOffset" : 17700
        },
        {
            "buffer" : 0,
            "byteLength" : 1476,
            "byteOffset" : 20400
        }
    ],
    "buffers" : [
        {
            "byteLength" : 21876,
            "uri" : "data:application/octet-stream;base64,"
        }
    ]
}
