{
    "asset" : {
        "generator" : "Khronos glTF Blender I/O v1.6.16",
        "version" : "2.0"
    },
    "scene" : 0,
    "scenes" : [
        {
            "name" : "Scene",
            "nodes" : [
                0
            ]
        }
    ],
    "nodes" : [
        {
            "mesh" : 0,
            "name" : "Barrel_Grenade_1"
        }
    ],
    "materials" : [
        {
            "doubleSided" : true,
            "name" : "Grey",
            "pbrMetallicRoughness" : {
                "baseColorFactor" : [
                    0.10247143357992172,
                    0.10247143357992172,
                    0.10247143357992172,
                    1
                ],
                "metallicFactor" : 0,
                "roughnessFactor" : 0.5
            }
        },
        {
            "doubleSided" : true,
            "name" : "Black",
            "pbrMetallicRoughness" : {
                "baseColorFactor" : [
                    0.0290982685983181,
                    0.0290982685983181,
                    0.0290982685983181,
                    1
                ],
                "metallicFactor" : 0,
                "roughnessFactor" : 0.5
            }
        },
        {
            "doubleSided" : true,
            "name" : "White",
            "pbrMetallicRoughness" : {
                "baseColorFactor" : [
                    0.4575273394584656,
                    0.4575273394584656,
                    0.4575273394584656,
                    1
                ],
                "metallicFactor" : 0,
                "roughnessFactor" : 0.5
            }
        },
        {
            "doubleSided" : true,
            "name" : "Main",
            "pbrMetallicRoughness" : {
                "baseColorFactor" : [
                    0.6151726245880127,
                    0.21127153933048248,
                    0.028615577146410942,
                    1
                ],
                "metallicFactor" : 0,
                "roughnessFactor" : 0.5
            }
        }
    ],
    "meshes" : [
        {
            "name" : "Cylinder.025",
            "primitives" : [
                {
                    "attributes" : {
                        "POSITION" : 0,
                        "NORMAL" : 1
                    },
                    "indices" : 2,
                    "material" : 0
                },
                {
                    "attributes" : {
                        "POSITION" : 3,
                        "NORMAL" : 4
                    },
                    "indices" : 5,
                    "material" : 1
                },
                {
                    "attributes" : {
                        "POSITION" : 6,
                        "NORMAL" : 7
                    },
                    "indices" : 8,
                    "material" : 2
                },
                {
                    "attributes" : {
                        "POSITION" : 9,
                        "NORMAL" : 10
                    },
                    "indices" : 11,
                    "material" : 3
                }
            ]
        }
    ],
    "accessors" : [
        {
            "bufferView" : 0,
            "componentType" : 5126,
            "count" : 128,
            "max" : [
                0.5534186959266663,
                0.07628193497657776,
                0.07291240990161896
            ],
            "min" : [
                -0.0017467666184529662,
                -0.06960079073905945,
                -0.07297030091285706
            ],
            "type" : "VEC3"
        },
        {
            "bufferView" : 1,
            "componentType" : 5126,
            "count" : 128,
            "type" : "VEC3"
        },
        {
            "bufferView" : 2,
            "componentType" : 5123,
            "count" : 372,
            "type" : "SCALAR"
        },
        {
            "bufferView" : 3,
            "componentType" : 5126,
            "count" : 531,
            "max" : [
                0.616564929485321,
                0.13110299408435822,
                0.0624832846224308
            ],
            "min" : [
                -0.003490037051960826,
                -0.1415160894393921,
                -0.06254120171070099
            ],
            "type" : "VEC3"
        },
        {
            "bufferView" : 4,
            "componentType" : 5126,
            "count" : 531,
            "type" : "VEC3"
        },
        {
            "bufferView" : 5,
            "componentType" : 5123,
            "count" : 1191,
            "type" : "SCALAR"
        },
        {
            "bufferView" : 6,
            "componentType" : 5126,
            "count" : 175,
            "max" : [
                0.4007924795150757,
                0.09734784811735153,
                0.04448685050010681
            ],
            "min" : [
                -0.35603150725364685,
                -0.15716421604156494,
                -0.044544756412506104
            ],
            "type" : "VEC3"
        },
        {
            "bufferView" : 7,
            "componentType" : 5126,
            "count" : 175,
            "type" : "VEC3"
        },
        {
            "bufferView" : 8,
            "componentType" : 5123,
            "count" : 510,
            "type" : "SCALAR"
        },
        {
            "bufferView" : 9,
            "componentType" : 5126,
            "count" : 94,
            "max" : [
                0.4531148374080658,
                0.08133532851934433,
                0.04448682814836502
            ],
            "min" : [
                0.33415788412094116,
                -0.14619414508342743,
                -0.044544730335474014
            ],
            "type" : "VEC3"
        },
        {
            "bufferView" : 10,
            "componentType" : 5126,
            "count" : 94,
            "type" : "VEC3"
        },
        {
            "bufferView" : 11,
            "componentType" : 5123,
            "count" : 246,
            "type" : "SCALAR"
        }
    ],
    "bufferViews" : [
        {
            "buffer" : 0,
            "byteLength" : 1536,
            "byteOffset" : 0
        },
        {
            "buffer" : 0,
            "byteLength" : 1536,
            "byteOffset" : 1536
        },
        {
            "buffer" : 0,
            "byteLength" : 744,
            "byteOffset" : 3072
        },
        {
            "buffer" : 0,
            "byteLength" : 6372,
            "byteOffset" : 3816
        },
        {
            "buffer" : 0,
            "byteLength" : 6372,
            "byteOffset" : 10188
        },
        {
            "buffer" : 0,
            "byteLength" : 2382,
            "byteOffset" : 16560
        },
        {
            "buffer" : 0,
            "byteLength" : 2100,
            "byteOffset" : 18944
        },
        {
            "buffer" : 0,
            "byteLength" : 2100,
            "byteOffset" : 21044
        },
        {
            "buffer" : 0,
            "byteLength" : 1020,
            "byteOffset" : 23144
        },
        {
            "buffer" : 0,
            "byteLength" : 1128,
            "byteOffset" : 24164
        },
        {
            "buffer" : 0,
            "byteLength" : 1128,
            "byteOffset" : 25292
        },
        {
            "buffer" : 0,
            "byteLength" : 492,
            "byteOffset" : 26420
        }
    ],
    "buffers" : [
        {
            "byteLength" : 26912,
            "uri" : "data:application/octet-stream;base64,"
        }
    ]
}
