{
    "asset" : {
        "generator" : "Khronos glTF Blender I/O v1.6.16",
        "version" : "2.0"
    },
    "scene" : 0,
    "scenes" : [
        {
            "name" : "Scene",
            "nodes" : [
                0
            ]
        }
    ],
    "nodes" : [
        {
            "mesh" : 0,
            "name" : "Barrel_AR_1"
        }
    ],
    "materials" : [
        {
            "doubleSided" : true,
            "name" : "Black",
            "pbrMetallicRoughness" : {
                "baseColorFactor" : [
                    0.0290982685983181,
                    0.0290982685983181,
                    0.0290982685983181,
                    1
                ],
                "metallicFactor" : 0,
                "roughnessFactor" : 0.5
            }
        },
        {
            "doubleSided" : true,
            "name" : "White",
            "pbrMetallicRoughness" : {
                "baseColorFactor" : [
                    0.4575273394584656,
                    0.4575273394584656,
                    0.4575273394584656,
                    1
                ],
                "metallicFactor" : 0,
                "roughnessFactor" : 0.5
            }
        },
        {
            "doubleSided" : true,
            "name" : "Main",
            "pbrMetallicRoughness" : {
                "baseColorFactor" : [
                    0.6151726245880127,
                    0.21127153933048248,
                    0.028615577146410942,
                    1
                ],
                "metallicFactor" : 0,
                "roughnessFactor" : 0.5
            }
        }
    ],
    "meshes" : [
        {
            "name" : "Cube.239",
            "primitives" : [
                {
                    "attributes" : {
                        "POSITION" : 0,
                        "NORMAL" : 1
                    },
                    "indices" : 2,
                    "material" : 0
                },
                {
                    "attributes" : {
                        "POSITION" : 3,
                        "NORMAL" : 4
                    },
                    "indices" : 5,
                    "material" : 1
                },
                {
                    "attributes" : {
                        "POSITION" : 6,
                        "NORMAL" : 7
                    },
                    "indices" : 8,
                    "material" : 2
                }
            ]
        }
    ],
    "accessors" : [
        {
            "bufferView" : 0,
            "componentType" : 5126,
            "count" : 1165,
            "max" : [
                0.5137648582458496,
                0.06918973475694656,
                0.05094311386346817
            ],
            "min" : [
                0.42219531536102295,
                -0.1521814465522766,
                -0.05094311386346817
            ],
            "type" : "VEC3"
        },
        {
            "bufferView" : 1,
            "componentType" : 5126,
            "count" : 1165,
            "type" : "VEC3"
        },
        {
            "bufferView" : 2,
            "componentType" : 5123,
            "count" : 3453,
            "type" : "SCALAR"
        },
        {
            "bufferView" : 3,
            "componentType" : 5126,
            "count" : 40,
            "max" : [
                0.42532357573509216,
                0.07636738568544388,
                0.05736403539776802
            ],
            "min" : [
                -6.596924606583343e-08,
                -0.16199906170368195,
                -0.05736403539776802
            ],
            "type" : "VEC3"
        },
        {
            "bufferView" : 4,
            "componentType" : 5126,
            "count" : 40,
            "type" : "VEC3"
        },
        {
            "bufferView" : 5,
            "componentType" : 5123,
            "count" : 96,
            "type" : "SCALAR"
        },
        {
            "bufferView" : 6,
            "componentType" : 5126,
            "count" : 60,
            "max" : [
                0.4642348885536194,
                0.07636738568544388,
                0.05736403539776802
            ],
            "min" : [
                -6.596924606583343e-08,
                -0.16199906170368195,
                -0.05736403539776802
            ],
            "type" : "VEC3"
        },
        {
            "bufferView" : 7,
            "componentType" : 5126,
            "count" : 60,
            "type" : "VEC3"
        },
        {
            "bufferView" : 8,
            "componentType" : 5123,
            "count" : 162,
            "type" : "SCALAR"
        }
    ],
    "bufferViews" : [
        {
            "buffer" : 0,
            "byteLength" : 13980,
            "byteOffset" : 0
        },
        {
            "buffer" : 0,
            "byteLength" : 13980,
            "byteOffset" : 13980
        },
        {
            "buffer" : 0,
            "byteLength" : 6906,
            "byteOffset" : 27960
        },
        {
            "buffer" : 0,
            "byteLength" : 480,
            "byteOffset" : 34868
        },
        {
            "buffer" : 0,
            "byteLength" : 480,
            "byteOffset" : 35348
        },
        {
            "buffer" : 0,
            "byteLength" : 192,
            "byteOffset" : 35828
        },
        {
            "buffer" : 0,
            "byteLength" : 720,
            "byteOffset" : 36020
        },
        {
            "buffer" : 0,
            "byteLength" : 720,
            "byteOffset" : 36740
        },
        {
            "buffer" : 0,
            "byteLength" : 324,
            "byteOffset" : 37460
        }
    ],
    "buffers" : [
        {
            "byteLength" : 37784,
            "uri" : "data:application/octet-stream;base64,"
        }
    ]
}
