{
    "asset" : {
        "generator" : "Khronos glTF Blender I/O v1.6.16",
        "version" : "2.0"
    },
    "scene" : 0,
    "scenes" : [
        {
            "name" : "Scene",
            "nodes" : [
                0
            ]
        }
    ],
    "nodes" : [
        {
            "mesh" : 0,
            "name" : "Barrel_Pistol_2"
        }
    ],
    "materials" : [
        {
            "doubleSided" : true,
            "name" : "Black",
            "pbrMetallicRoughness" : {
                "baseColorFactor" : [
                    0.0290982685983181,
                    0.0290982685983181,
                    0.0290982685983181,
                    1
                ],
                "metallicFactor" : 0,
                "roughnessFactor" : 0.5
            }
        },
        {
            "doubleSided" : true,
            "name" : "White",
            "pbrMetallicRoughness" : {
                "baseColorFactor" : [
                    0.4575273394584656,
                    0.4575273394584656,
                    0.4575273394584656,
                    1
                ],
                "metallicFactor" : 0,
                "roughnessFactor" : 0.5
            }
        },
        {
            "doubleSided" : true,
            "name" : "Main",
            "pbrMetallicRoughness" : {
                "baseColorFactor" : [
                    0.6151726245880127,
                    0.21127153933048248,
                    0.028615577146410942,
                    1
                ],
                "metallicFactor" : 0,
                "roughnessFactor" : 0.5
            }
        }
    ],
    "meshes" : [
        {
            "name" : "Cube.230",
            "primitives" : [
                {
                    "attributes" : {
                        "POSITION" : 0,
                        "NORMAL" : 1
                    },
                    "indices" : 2,
                    "material" : 0
                },
                {
                    "attributes" : {
                        "POSITION" : 3,
                        "NORMAL" : 4
                    },
                    "indices" : 5,
                    "material" : 1
                },
                {
                    "attributes" : {
                        "POSITION" : 6,
                        "NORMAL" : 7
                    },
                    "indices" : 8,
                    "material" : 2
                }
            ]
        }
    ],
    "accessors" : [
        {
            "bufferView" : 0,
            "componentType" : 5126,
            "count" : 525,
            "max" : [
                0.14646874368190765,
                0.03927398473024368,
                0.04191938042640686
            ],
            "min" : [
                0.03073008358478546,
                -0.08117766678333282,
                -0.04191938042640686
            ],
            "type" : "VEC3"
        },
        {
            "bufferView" : 1,
            "componentType" : 5126,
            "count" : 525,
            "type" : "VEC3"
        },
        {
            "bufferView" : 2,
            "componentType" : 5123,
            "count" : 1569,
            "type" : "SCALAR"
        },
        {
            "bufferView" : 3,
            "componentType" : 5126,
            "count" : 40,
            "max" : [
                0.0767403095960617,
                0.04518023133277893,
                0.0472029447555542
            ],
            "min" : [
                -0.2732442021369934,
                -0.08925622701644897,
                -0.0472029447555542
            ],
            "type" : "VEC3"
        },
        {
            "bufferView" : 4,
            "componentType" : 5126,
            "count" : 40,
            "type" : "VEC3"
        },
        {
            "bufferView" : 5,
            "componentType" : 5123,
            "count" : 96,
            "type" : "SCALAR"
        },
        {
            "bufferView" : 6,
            "componentType" : 5126,
            "count" : 60,
            "max" : [
                0.10875927656888962,
                0.04518023133277893,
                0.0472029447555542
            ],
            "min" : [
                -0.2732442021369934,
                -0.08925622701644897,
                -0.0472029447555542
            ],
            "type" : "VEC3"
        },
        {
            "bufferView" : 7,
            "componentType" : 5126,
            "count" : 60,
            "type" : "VEC3"
        },
        {
            "bufferView" : 8,
            "componentType" : 5123,
            "count" : 162,
            "type" : "SCALAR"
        }
    ],
    "bufferViews" : [
        {
            "buffer" : 0,
            "byteLength" : 6300,
            "byteOffset" : 0
        },
        {
            "buffer" : 0,
            "byteLength" : 6300,
            "byteOffset" : 6300
        },
        {
            "buffer" : 0,
            "byteLength" : 3138,
            "byteOffset" : 12600
        },
        {
            "buffer" : 0,
            "byteLength" : 480,
            "byteOffset" : 15740
        },
        {
            "buffer" : 0,
            "byteLength" : 480,
            "byteOffset" : 16220
        },
        {
            "buffer" : 0,
            "byteLength" : 192,
            "byteOffset" : 16700
        },
        {
            "buffer" : 0,
            "byteLength" : 720,
            "byteOffset" : 16892
        },
        {
            "buffer" : 0,
            "byteLength" : 720,
            "byteOffset" : 17612
        },
        {
            "buffer" : 0,
            "byteLength" : 324,
            "byteOffset" : 18332
        }
    ],
    "buffers" : [
        {
            "byteLength" : 18656,
            "uri" : "data:application/octet-stream;base64,"
        }
    ]
}
