{
    "asset" : {
        "generator" : "Khronos glTF Blender I/O v1.6.16",
        "version" : "2.0"
    },
    "scene" : 0,
    "scenes" : [
        {
            "name" : "Scene",
            "nodes" : [
                0
            ]
        }
    ],
    "nodes" : [
        {
            "mesh" : 0,
            "name" : "Barrel_AR_3"
        }
    ],
    "materials" : [
        {
            "doubleSided" : true,
            "name" : "Black",
            "pbrMetallicRoughness" : {
                "baseColorFactor" : [
                    0.0290982685983181,
                    0.0290982685983181,
                    0.0290982685983181,
                    1
                ],
                "metallicFactor" : 0,
                "roughnessFactor" : 0.5
            }
        },
        {
            "doubleSided" : true,
            "name" : "Grey",
            "pbrMetallicRoughness" : {
                "baseColorFactor" : [
                    0.10247143357992172,
                    0.10247143357992172,
                    0.10247143357992172,
                    1
                ],
                "metallicFactor" : 0,
                "roughnessFactor" : 0.5
            }
        },
        {
            "doubleSided" : true,
            "name" : "White",
            "pbrMetallicRoughness" : {
                "baseColorFactor" : [
                    0.4575273394584656,
                    0.4575273394584656,
                    0.4575273394584656,
                    1
                ],
                "metallicFactor" : 0,
                "roughnessFactor" : 0.5
            }
        },
        {
            "doubleSided" : true,
            "name" : "Main",
            "pbrMetallicRoughness" : {
                "baseColorFactor" : [
                    0.6151726245880127,
                    0.21127153933048248,
                    0.028615577146410942,
                    1
                ],
                "metallicFactor" : 0,
                "roughnessFactor" : 0.5
            }
        }
    ],
    "meshes" : [
        {
            "name" : "Cube.016",
            "primitives" : [
                {
                    "attributes" : {
                        "POSITION" : 0,
                        "NORMAL" : 1
                    },
                    "indices" : 2,
                    "material" : 0
                },
                {
                    "attributes" : {
                        "POSITION" : 3,
                        "NORMAL" : 4
                    },
                    "indices" : 5,
                    "material" : 1
                },
                {
                    "attributes" : {
                        "POSITION" : 6,
                        "NORMAL" : 7
                    },
                    "indices" : 8,
                    "material" : 2
                },
                {
                    "attributes" : {
                        "POSITION" : 9,
                        "NORMAL" : 10
                    },
                    "indices" : 11,
                    "material" : 3
                }
            ]
        }
    ],
    "accessors" : [
        {
            "bufferView" : 0,
            "componentType" : 5126,
            "count" : 779,
            "max" : [
                0.3944297432899475,
                0.06375258415937424,
                0.04405004531145096
            ],
            "min" : [
                0.35409849882125854,
                -0.15846359729766846,
                -0.0441543348133564
            ],
            "type" : "VEC3"
        },
        {
            "bufferView" : 1,
            "componentType" : 5126,
            "count" : 779,
            "type" : "VEC3"
        },
        {
            "bufferView" : 2,
            "componentType" : 5123,
            "count" : 2331,
            "type" : "SCALAR"
        },
        {
            "bufferView" : 3,
            "componentType" : 5126,
            "count" : 384,
            "max" : [
                0.38478797674179077,
                0.04240644350647926,
                0.016838235780596733
            ],
            "min" : [
                0.3074641525745392,
                -0.11903299391269684,
                -0.01825733855366707
            ],
            "type" : "VEC3"
        },
        {
            "bufferView" : 4,
            "componentType" : 5126,
            "count" : 384,
            "type" : "VEC3"
        },
        {
            "bufferView" : 5,
            "componentType" : 5123,
            "count" : 1116,
            "type" : "SCALAR"
        },
        {
            "bufferView" : 6,
            "componentType" : 5126,
            "count" : 42,
            "max" : [
                0.2989749312400818,
                0.07265051454305649,
                0.04960872605443001
            ],
            "min" : [
                -0.000753748114220798,
                -0.16496877372264862,
                -0.04971301928162575
            ],
            "type" : "VEC3"
        },
        {
            "bufferView" : 7,
            "componentType" : 5126,
            "count" : 42,
            "type" : "VEC3"
        },
        {
            "bufferView" : 8,
            "componentType" : 5123,
            "count" : 102,
            "type" : "SCALAR"
        },
        {
            "bufferView" : 9,
            "componentType" : 5126,
            "count" : 63,
            "max" : [
                0.35409849882125854,
                0.07265051454305649,
                0.04960872605443001
            ],
            "min" : [
                0.22207234799861908,
                -0.16496877372264862,
                -0.04971301928162575
            ],
            "type" : "VEC3"
        },
        {
            "bufferView" : 10,
            "componentType" : 5126,
            "count" : 63,
            "type" : "VEC3"
        },
        {
            "bufferView" : 11,
            "componentType" : 5123,
            "count" : 174,
            "type" : "SCALAR"
        }
    ],
    "bufferViews" : [
        {
            "buffer" : 0,
            "byteLength" : 9348,
            "byteOffset" : 0
        },
        {
            "buffer" : 0,
            "byteLength" : 9348,
            "byteOffset" : 9348
        },
        {
            "buffer" : 0,
            "byteLength" : 4662,
            "byteOffset" : 18696
        },
        {
            "buffer" : 0,
            "byteLength" : 4608,
            "byteOffset" : 23360
        },
        {
            "buffer" : 0,
            "byteLength" : 4608,
            "byteOffset" : 27968
        },
        {
            "buffer" : 0,
            "byteLength" : 2232,
            "byteOffset" : 32576
        },
        {
            "buffer" : 0,
            "byteLength" : 504,
            "byteOffset" : 34808
        },
        {
            "buffer" : 0,
            "byteLength" : 504,
            "byteOffset" : 35312
        },
        {
            "buffer" : 0,
            "byteLength" : 204,
            "byteOffset" : 35816
        },
        {
            "buffer" : 0,
            "byteLength" : 756,
            "byteOffset" : 36020
        },
        {
            "buffer" : 0,
            "byteLength" : 756,
            "byteOffset" : 36776
        },
        {
            "buffer" : 0,
            "byteLength" : 348,
            "byteOffset" : 37532
        }
    ],
    "buffers" : [
        {
            "byteLength" : 37880,
            "uri" : "data:application/octet-stream;base64,"
        }
    ]
}
