{
    "asset" : {
        "generator" : "Khronos glTF Blender I/O v1.6.16",
        "version" : "2.0"
    },
    "scene" : 0,
    "scenes" : [
        {
            "name" : "Scene",
            "nodes" : [
                0
            ]
        }
    ],
    "nodes" : [
        {
            "mesh" : 0,
            "name" : "Body_Front_Sniper_3"
        }
    ],
    "materials" : [
        {
            "doubleSided" : true,
            "name" : "Black",
            "pbrMetallicRoughness" : {
                "baseColorFactor" : [
                    0.0290982685983181,
                    0.0290982685983181,
                    0.0290982685983181,
                    1
                ],
                "metallicFactor" : 0,
                "roughnessFactor" : 0.5
            }
        },
        {
            "doubleSided" : true,
            "name" : "Grey",
            "pbrMetallicRoughness" : {
                "baseColorFactor" : [
                    0.10247143357992172,
                    0.10247143357992172,
                    0.10247143357992172,
                    1
                ],
                "metallicFactor" : 0,
                "roughnessFactor" : 0.5
            }
        },
        {
            "doubleSided" : true,
            "name" : "White",
            "pbrMetallicRoughness" : {
                "baseColorFactor" : [
                    0.4575273394584656,
                    0.4575273394584656,
                    0.4575273394584656,
                    1
                ],
                "metallicFactor" : 0,
                "roughnessFactor" : 0.5
            }
        },
        {
            "doubleSided" : true,
            "name" : "Main",
            "pbrMetallicRoughness" : {
                "baseColorFactor" : [
                    0.6151726245880127,
                    0.21127153933048248,
                    0.028615577146410942,
                    1
                ],
                "metallicFactor" : 0,
                "roughnessFactor" : 0.5
            }
        }
    ],
    "meshes" : [
        {
            "name" : "Cube.004",
            "primitives" : [
                {
                    "attributes" : {
                        "POSITION" : 0,
                        "NORMAL" : 1
                    },
                    "indices" : 2,
                    "material" : 0
                },
                {
                    "attributes" : {
                        "POSITION" : 3,
                        "NORMAL" : 4
                    },
                    "indices" : 5,
                    "material" : 1
                },
                {
                    "attributes" : {
                        "POSITION" : 6,
                        "NORMAL" : 7
                    },
                    "indices" : 8,
                    "material" : 2
                },
                {
                    "attributes" : {
                        "POSITION" : 9,
                        "NORMAL" : 10
                    },
                    "indices" : 11,
                    "material" : 3
                }
            ]
        }
    ],
    "accessors" : [
        {
            "bufferView" : 0,
            "componentType" : 5126,
            "count" : 252,
            "max" : [
                0.9466670155525208,
                0.18180477619171143,
                0.047268155962228775
            ],
            "min" : [
                -0.25800812244415283,
                -0.05096007138490677,
                -0.04726816713809967
            ],
            "type" : "VEC3"
        },
        {
            "bufferView" : 1,
            "componentType" : 5126,
            "count" : 252,
            "type" : "VEC3"
        },
        {
            "bufferView" : 2,
            "componentType" : 5123,
            "count" : 594,
            "type" : "SCALAR"
        },
        {
            "bufferView" : 3,
            "componentType" : 5126,
            "count" : 28,
            "max" : [
                0.18927964568138123,
                0.05023501068353653,
                0.04297143965959549
            ],
            "min" : [
                -0.17525076866149902,
                -0.04053543880581856,
                -0.04726816713809967
            ],
            "type" : "VEC3"
        },
        {
            "bufferView" : 4,
            "componentType" : 5126,
            "count" : 28,
            "type" : "VEC3"
        },
        {
            "bufferView" : 5,
            "componentType" : 5123,
            "count" : 54,
            "type" : "SCALAR"
        },
        {
            "bufferView" : 6,
            "componentType" : 5126,
            "count" : 224,
            "max" : [
                0.94673752784729,
                0.19083398580551147,
                0.047268155962228775
            ],
            "min" : [
                -0.25800812244415283,
                -0.12023377418518066,
                -0.04726816713809967
            ],
            "type" : "VEC3"
        },
        {
            "bufferView" : 7,
            "componentType" : 5126,
            "count" : 224,
            "type" : "VEC3"
        },
        {
            "bufferView" : 8,
            "componentType" : 5123,
            "count" : 630,
            "type" : "SCALAR"
        },
        {
            "bufferView" : 9,
            "componentType" : 5126,
            "count" : 257,
            "max" : [
                0.778724730014801,
                0.1913752406835556,
                0.019343301653862
            ],
            "min" : [
                0.18365393579006195,
                -0.12023377418518066,
                -0.04726816713809967
            ],
            "type" : "VEC3"
        },
        {
            "bufferView" : 10,
            "componentType" : 5126,
            "count" : 257,
            "type" : "VEC3"
        },
        {
            "bufferView" : 11,
            "componentType" : 5123,
            "count" : 609,
            "type" : "SCALAR"
        }
    ],
    "bufferViews" : [
        {
            "buffer" : 0,
            "byteLength" : 3024,
            "byteOffset" : 0
        },
        {
            "buffer" : 0,
            "byteLength" : 3024,
            "byteOffset" : 3024
        },
        {
            "buffer" : 0,
            "byteLength" : 1188,
            "byteOffset" : 6048
        },
        {
            "buffer" : 0,
            "byteLength" : 336,
            "byteOffset" : 7236
        },
        {
            "buffer" : 0,
            "byteLength" : 336,
            "byteOffset" : 7572
        },
        {
            "buffer" : 0,
            "byteLength" : 108,
            "byteOffset" : 7908
        },
        {
            "buffer" : 0,
            "byteLength" : 2688,
            "byteOffset" : 8016
        },
        {
            "buffer" : 0,
            "byteLength" : 2688,
            "byteOffset" : 10704
        },
        {
            "buffer" : 0,
            "byteLength" : 1260,
            "byteOffset" : 13392
        },
        {
            "buffer" : 0,
            "byteLength" : 3084,
            "byteOffset" : 14652
        },
        {
            "buffer" : 0,
            "byteLength" : 3084,
            "byteOffset" : 17736
        },
        {
            "buffer" : 0,
            "byteLength" : 1218,
            "byteOffset" : 20820
        }
    ],
    "buffers" : [
        {
            "byteLength" : 22040,
            "uri" : "data:application/octet-stream;base64,"
        }
    ]
}
