{
    "asset" : {
        "generator" : "Khronos glTF Blender I/O v1.6.16",
        "version" : "2.0"
    },
    "scene" : 0,
    "scenes" : [
        {
            "name" : "Scene",
            "nodes" : [
                0
            ]
        }
    ],
    "nodes" : [
        {
            "mesh" : 0,
            "name" : "Body_AR_1"
        }
    ],
    "materials" : [
        {
            "doubleSided" : true,
            "name" : "Black",
            "pbrMetallicRoughness" : {
                "baseColorFactor" : [
                    0.0290982685983181,
                    0.0290982685983181,
                    0.0290982685983181,
                    1
                ],
                "metallicFactor" : 0,
                "roughnessFactor" : 0.5
            }
        },
        {
            "doubleSided" : true,
            "name" : "White",
            "pbrMetallicRoughness" : {
                "baseColorFactor" : [
                    0.4575273394584656,
                    0.4575273394584656,
                    0.4575273394584656,
                    1
                ],
                "metallicFactor" : 0,
                "roughnessFactor" : 0.5
            }
        },
        {
            "doubleSided" : true,
            "name" : "Main",
            "pbrMetallicRoughness" : {
                "baseColorFactor" : [
                    0.6151726245880127,
                    0.21127153933048248,
                    0.028615577146410942,
                    1
                ],
                "metallicFactor" : 0,
                "roughnessFactor" : 0.5
            }
        }
    ],
    "meshes" : [
        {
            "name" : "Cube.236",
            "primitives" : [
                {
                    "attributes" : {
                        "POSITION" : 0,
                        "NORMAL" : 1
                    },
                    "indices" : 2,
                    "material" : 0
                },
                {
                    "attributes" : {
                        "POSITION" : 3,
                        "NORMAL" : 4
                    },
                    "indices" : 5,
                    "material" : 1
                },
                {
                    "attributes" : {
                        "POSITION" : 6,
                        "NORMAL" : 7
                    },
                    "indices" : 8,
                    "material" : 2
                }
            ]
        }
    ],
    "accessors" : [
        {
            "bufferView" : 0,
            "componentType" : 5126,
            "count" : 239,
            "max" : [
                0.7146096229553223,
                0.12123509496450424,
                0.06830154359340668
            ],
            "min" : [
                -0.5268808007240295,
                -0.19363521039485931,
                -0.06830154359340668
            ],
            "type" : "VEC3"
        },
        {
            "bufferView" : 1,
            "componentType" : 5126,
            "count" : 239,
            "type" : "VEC3"
        },
        {
            "bufferView" : 2,
            "componentType" : 5123,
            "count" : 732,
            "type" : "SCALAR"
        },
        {
            "bufferView" : 3,
            "componentType" : 5126,
            "count" : 40,
            "max" : [
                -0.0353720486164093,
                0.10796625912189484,
                0.058324746787548065
            ],
            "min" : [
                -0.4292944669723511,
                0.029601819813251495,
                -0.058324746787548065
            ],
            "type" : "VEC3"
        },
        {
            "bufferView" : 4,
            "componentType" : 5126,
            "count" : 40,
            "type" : "VEC3"
        },
        {
            "bufferView" : 5,
            "componentType" : 5123,
            "count" : 102,
            "type" : "SCALAR"
        },
        {
            "bufferView" : 6,
            "componentType" : 5126,
            "count" : 52,
            "max" : [
                -0.4292944669723511,
                0.10796625912189484,
                0.058324746787548065
            ],
            "min" : [
                -0.46130961179733276,
                0.029601819813251495,
                -0.058324746787548065
            ],
            "type" : "VEC3"
        },
        {
            "bufferView" : 7,
            "componentType" : 5126,
            "count" : 52,
            "type" : "VEC3"
        },
        {
            "bufferView" : 8,
            "componentType" : 5123,
            "count" : 144,
            "type" : "SCALAR"
        }
    ],
    "bufferViews" : [
        {
            "buffer" : 0,
            "byteLength" : 2868,
            "byteOffset" : 0
        },
        {
            "buffer" : 0,
            "byteLength" : 2868,
            "byteOffset" : 2868
        },
        {
            "buffer" : 0,
            "byteLength" : 1464,
            "byteOffset" : 5736
        },
        {
            "buffer" : 0,
            "byteLength" : 480,
            "byteOffset" : 7200
        },
        {
            "buffer" : 0,
            "byteLength" : 480,
            "byteOffset" : 7680
        },
        {
            "buffer" : 0,
            "byteLength" : 204,
            "byteOffset" : 8160
        },
        {
            "buffer" : 0,
            "byteLength" : 624,
            "byteOffset" : 8364
        },
        {
            "buffer" : 0,
            "byteLength" : 624,
            "byteOffset" : 8988
        },
        {
            "buffer" : 0,
            "byteLength" : 288,
            "byteOffset" : 9612
        }
    ],
    "buffers" : [
        {
            "byteLength" : 9900,
            "uri" : "data:application/octet-stream;base64,"
        }
    ]
}
