{
    "asset" : {
        "generator" : "Khronos glTF Blender I/O v1.6.16",
        "version" : "2.0"
    },
    "scene" : 0,
    "scenes" : [
        {
            "name" : "Scene",
            "nodes" : [
                0
            ]
        }
    ],
    "nodes" : [
        {
            "mesh" : 0,
            "name" : "Body_Pistol_3"
        }
    ],
    "materials" : [
        {
            "doubleSided" : true,
            "name" : "Black",
            "pbrMetallicRoughness" : {
                "baseColorFactor" : [
                    0.0290982685983181,
                    0.0290982685983181,
                    0.0290982685983181,
                    1
                ],
                "metallicFactor" : 0,
                "roughnessFactor" : 0.5
            }
        },
        {
            "doubleSided" : true,
            "name" : "White",
            "pbrMetallicRoughness" : {
                "baseColorFactor" : [
                    0.4575273394584656,
                    0.4575273394584656,
                    0.4575273394584656,
                    1
                ],
                "metallicFactor" : 0,
                "roughnessFactor" : 0.5
            }
        },
        {
            "doubleSided" : true,
            "name" : "Main",
            "pbrMetallicRoughness" : {
                "baseColorFactor" : [
                    0.6151726245880127,
                    0.21127153933048248,
                    0.028615577146410942,
                    1
                ],
                "metallicFactor" : 0,
                "roughnessFactor" : 0.5
            }
        }
    ],
    "meshes" : [
        {
            "name" : "Cube.225",
            "primitives" : [
                {
                    "attributes" : {
                        "POSITION" : 0,
                        "NORMAL" : 1
                    },
                    "indices" : 2,
                    "material" : 0
                },
                {
                    "attributes" : {
                        "POSITION" : 3,
                        "NORMAL" : 4
                    },
                    "indices" : 5,
                    "material" : 1
                },
                {
                    "attributes" : {
                        "POSITION" : 6,
                        "NORMAL" : 7
                    },
                    "indices" : 8,
                    "material" : 2
                }
            ]
        }
    ],
    "accessors" : [
        {
            "bufferView" : 0,
            "componentType" : 5126,
            "count" : 262,
            "max" : [
                0.3015037477016449,
                0.07763928920030594,
                0.020416192710399628
            ],
            "min" : [
                -0.04987141117453575,
                0.01889500580728054,
                -0.020416488870978355
            ],
            "type" : "VEC3"
        },
        {
            "bufferView" : 1,
            "componentType" : 5126,
            "count" : 262,
            "type" : "VEC3"
        },
        {
            "bufferView" : 2,
            "componentType" : 5123,
            "count" : 396,
            "type" : "SCALAR"
        },
        {
            "bufferView" : 3,
            "componentType" : 5126,
            "count" : 162,
            "max" : [
                0.2818782329559326,
                0.05122240632772446,
                0.04525749385356903
            ],
            "min" : [
                -0.4657292664051056,
                -0.11843056976795197,
                -0.04525727778673172
            ],
            "type" : "VEC3"
        },
        {
            "bufferView" : 4,
            "componentType" : 5126,
            "count" : 162,
            "type" : "VEC3"
        },
        {
            "bufferView" : 5,
            "componentType" : 5123,
            "count" : 486,
            "type" : "SCALAR"
        },
        {
            "bufferView" : 6,
            "componentType" : 5126,
            "count" : 235,
            "max" : [
                0.30747190117836,
                0.038690850138664246,
                0.04525749385356903
            ],
            "min" : [
                -0.4844358265399933,
                -0.11843056976795197,
                -0.04525727778673172
            ],
            "type" : "VEC3"
        },
        {
            "bufferView" : 7,
            "componentType" : 5126,
            "count" : 235,
            "type" : "VEC3"
        },
        {
            "bufferView" : 8,
            "componentType" : 5123,
            "count" : 684,
            "type" : "SCALAR"
        }
    ],
    "bufferViews" : [
        {
            "buffer" : 0,
            "byteLength" : 3144,
            "byteOffset" : 0
        },
        {
            "buffer" : 0,
            "byteLength" : 3144,
            "byteOffset" : 3144
        },
        {
            "buffer" : 0,
            "byteLength" : 792,
            "byteOffset" : 6288
        },
        {
            "buffer" : 0,
            "byteLength" : 1944,
            "byteOffset" : 7080
        },
        {
            "buffer" : 0,
            "byteLength" : 1944,
            "byteOffset" : 9024
        },
        {
            "buffer" : 0,
            "byteLength" : 972,
            "byteOffset" : 10968
        },
        {
            "buffer" : 0,
            "byteLength" : 2820,
            "byteOffset" : 11940
        },
        {
            "buffer" : 0,
            "byteLength" : 2820,
            "byteOffset" : 14760
        },
        {
            "buffer" : 0,
            "byteLength" : 1368,
            "byteOffset" : 17580
        }
    ],
    "buffers" : [
        {
            "byteLength" : 18948,
            "uri" : "data:application/octet-stream;base64,"
        }
    ]
}
