{
    "asset" : {
        "generator" : "Khronos glTF Blender I/O v1.6.16",
        "version" : "2.0"
    },
    "scene" : 0,
    "scenes" : [
        {
            "name" : "Scene",
            "nodes" : [
                0
            ]
        }
    ],
    "nodes" : [
        {
            "mesh" : 0,
            "name" : "Body_AR4"
        }
    ],
    "materials" : [
        {
            "doubleSided" : true,
            "name" : "White",
            "pbrMetallicRoughness" : {
                "baseColorFactor" : [
                    0.4575273394584656,
                    0.4575273394584656,
                    0.4575273394584656,
                    1
                ],
                "metallicFactor" : 0,
                "roughnessFactor" : 0.5
            }
        },
        {
            "doubleSided" : true,
            "name" : "Black",
            "pbrMetallicRoughness" : {
                "baseColorFactor" : [
                    0.0290982685983181,
                    0.0290982685983181,
                    0.0290982685983181,
                    1
                ],
                "metallicFactor" : 0,
                "roughnessFactor" : 0.5
            }
        },
        {
            "doubleSided" : true,
            "name" : "Main",
            "pbrMetallicRoughness" : {
                "baseColorFactor" : [
                    0.6151726245880127,
                    0.21127153933048248,
                    0.028615577146410942,
                    1
                ],
                "metallicFactor" : 0,
                "roughnessFactor" : 0.5
            }
        },
        {
            "doubleSided" : true,
            "name" : "Grey",
            "pbrMetallicRoughness" : {
                "baseColorFactor" : [
                    0.10247143357992172,
                    0.10247143357992172,
                    0.10247143357992172,
                    1
                ],
                "metallicFactor" : 0,
                "roughnessFactor" : 0.5
            }
        }
    ],
    "meshes" : [
        {
            "name" : "Cube.021",
            "primitives" : [
                {
                    "attributes" : {
                        "POSITION" : 0,
                        "NORMAL" : 1
                    },
                    "indices" : 2,
                    "material" : 0
                },
                {
                    "attributes" : {
                        "POSITION" : 3,
                        "NORMAL" : 4
                    },
                    "indices" : 5,
                    "material" : 1
                },
                {
                    "attributes" : {
                        "POSITION" : 6,
                        "NORMAL" : 7
                    },
                    "indices" : 8,
                    "material" : 2
                },
                {
                    "attributes" : {
                        "POSITION" : 9,
                        "NORMAL" : 10
                    },
                    "indices" : 11,
                    "material" : 3
                }
            ]
        }
    ],
    "accessors" : [
        {
            "bufferView" : 0,
            "componentType" : 5126,
            "count" : 483,
            "max" : [
                0.3982631266117096,
                0.1524631381034851,
                0.06281045824289322
            ],
            "min" : [
                -0.45387503504753113,
                -0.16771644353866577,
                -0.06297927349805832
            ],
            "type" : "VEC3"
        },
        {
            "bufferView" : 1,
            "componentType" : 5126,
            "count" : 483,
            "type" : "VEC3"
        },
        {
            "bufferView" : 2,
            "componentType" : 5123,
            "count" : 1440,
            "type" : "SCALAR"
        },
        {
            "bufferView" : 3,
            "componentType" : 5126,
            "count" : 452,
            "max" : [
                0.4680986702442169,
                0.149709090590477,
                0.05577046796679497
            ],
            "min" : [
                -0.5054285526275635,
                -0.15046317875385284,
                -0.055939268320798874
            ],
            "type" : "VEC3"
        },
        {
            "bufferView" : 4,
            "componentType" : 5126,
            "count" : 452,
            "type" : "VEC3"
        },
        {
            "bufferView" : 5,
            "componentType" : 5123,
            "count" : 1272,
            "type" : "SCALAR"
        },
        {
            "bufferView" : 6,
            "componentType" : 5126,
            "count" : 142,
            "max" : [
                0.4506615698337555,
                0.1524631381034851,
                0.05758677423000336
            ],
            "min" : [
                -0.505770206451416,
                -0.12238417565822601,
                -0.057754576206207275
            ],
            "type" : "VEC3"
        },
        {
            "bufferView" : 7,
            "componentType" : 5126,
            "count" : 142,
            "type" : "VEC3"
        },
        {
            "bufferView" : 8,
            "componentType" : 5123,
            "count" : 228,
            "type" : "SCALAR"
        },
        {
            "bufferView" : 9,
            "componentType" : 5126,
            "count" : 16,
            "max" : [
                0.43811464309692383,
                0.09864398092031479,
                0.02127937786281109
            ],
            "min" : [
                0.43811464309692383,
                0.06095386669039726,
                -0.021054156124591827
            ],
            "type" : "VEC3"
        },
        {
            "bufferView" : 10,
            "componentType" : 5126,
            "count" : 16,
            "type" : "VEC3"
        },
        {
            "bufferView" : 11,
            "componentType" : 5123,
            "count" : 42,
            "type" : "SCALAR"
        }
    ],
    "bufferViews" : [
        {
            "buffer" : 0,
            "byteLength" : 5796,
            "byteOffset" : 0
        },
        {
            "buffer" : 0,
            "byteLength" : 5796,
            "byteOffset" : 5796
        },
        {
            "buffer" : 0,
            "byteLength" : 2880,
            "byteOffset" : 11592
        },
        {
            "buffer" : 0,
            "byteLength" : 5424,
            "byteOffset" : 14472
        },
        {
            "buffer" : 0,
            "byteLength" : 5424,
            "byteOffset" : 19896
        },
        {
            "buffer" : 0,
            "byteLength" : 2544,
            "byteOffset" : 25320
        },
        {
            "buffer" : 0,
            "byteLength" : 1704,
            "byteOffset" : 27864
        },
        {
            "buffer" : 0,
            "byteLength" : 1704,
            "byteOffset" : 29568
        },
        {
            "buffer" : 0,
            "byteLength" : 456,
            "byteOffset" : 31272
        },
        {
            "buffer" : 0,
            "byteLength" : 192,
            "byteOffset" : 31728
        },
        {
            "buffer" : 0,
            "byteLength" : 192,
            "byteOffset" : 31920
        },
        {
            "buffer" : 0,
            "byteLength" : 84,
            "byteOffset" : 32112
        }
    ],
    "buffers" : [
        {
            "byteLength" : 32196,
            "uri" : "data:application/octet-stream;base64,"
        }
    ]
}
