{
    "asset" : {
        "generator" : "Khronos glTF Blender I/O v1.6.16",
        "version" : "2.0"
    },
    "scene" : 0,
    "scenes" : [
        {
            "name" : "Scene",
            "nodes" : [
                0
            ]
        }
    ],
    "nodes" : [
        {
            "mesh" : 0,
            "name" : "Body_Grenade_1"
        }
    ],
    "materials" : [
        {
            "doubleSided" : true,
            "name" : "Black",
            "pbrMetallicRoughness" : {
                "baseColorFactor" : [
                    0.0290982685983181,
                    0.0290982685983181,
                    0.0290982685983181,
                    1
                ],
                "metallicFactor" : 0,
                "roughnessFactor" : 0.5
            }
        },
        {
            "doubleSided" : true,
            "name" : "White",
            "pbrMetallicRoughness" : {
                "baseColorFactor" : [
                    0.4575273394584656,
                    0.4575273394584656,
                    0.4575273394584656,
                    1
                ],
                "metallicFactor" : 0,
                "roughnessFactor" : 0.5
            }
        },
        {
            "doubleSided" : true,
            "name" : "Main",
            "pbrMetallicRoughness" : {
                "baseColorFactor" : [
                    0.6151726245880127,
                    0.21127153933048248,
                    0.028615577146410942,
                    1
                ],
                "metallicFactor" : 0,
                "roughnessFactor" : 0.5
            }
        }
    ],
    "meshes" : [
        {
            "name" : "Cube.234",
            "primitives" : [
                {
                    "attributes" : {
                        "POSITION" : 0,
                        "NORMAL" : 1
                    },
                    "indices" : 2,
                    "material" : 0
                },
                {
                    "attributes" : {
                        "POSITION" : 3,
                        "NORMAL" : 4
                    },
                    "indices" : 5,
                    "material" : 1
                },
                {
                    "attributes" : {
                        "POSITION" : 6,
                        "NORMAL" : 7
                    },
                    "indices" : 8,
                    "material" : 2
                }
            ]
        }
    ],
    "accessors" : [
        {
            "bufferView" : 0,
            "componentType" : 5126,
            "count" : 97,
            "max" : [
                0.3790639638900757,
                0.14940747618675232,
                0.050086699426174164
            ],
            "min" : [
                -0.3346891701221466,
                -0.24805209040641785,
                -0.05008668079972267
            ],
            "type" : "VEC3"
        },
        {
            "bufferView" : 1,
            "componentType" : 5126,
            "count" : 97,
            "type" : "VEC3"
        },
        {
            "bufferView" : 2,
            "componentType" : 5123,
            "count" : 288,
            "type" : "SCALAR"
        },
        {
            "bufferView" : 3,
            "componentType" : 5126,
            "count" : 174,
            "max" : [
                0.22146132588386536,
                0.15560586750507355,
                0.054718393832445145
            ],
            "min" : [
                -0.4307031035423279,
                -0.21551188826560974,
                -0.05471837893128395
            ],
            "type" : "VEC3"
        },
        {
            "bufferView" : 4,
            "componentType" : 5126,
            "count" : 174,
            "type" : "VEC3"
        },
        {
            "bufferView" : 5,
            "componentType" : 5123,
            "count" : 600,
            "type" : "SCALAR"
        },
        {
            "bufferView" : 6,
            "componentType" : 5126,
            "count" : 110,
            "max" : [
                0.2427396923303604,
                0.15560586750507355,
                0.054718393832445145
            ],
            "min" : [
                -0.3158777058124542,
                -0.18984319269657135,
                -0.05471837893128395
            ],
            "type" : "VEC3"
        },
        {
            "bufferView" : 7,
            "componentType" : 5126,
            "count" : 110,
            "type" : "VEC3"
        },
        {
            "bufferView" : 8,
            "componentType" : 5123,
            "count" : 306,
            "type" : "SCALAR"
        }
    ],
    "bufferViews" : [
        {
            "buffer" : 0,
            "byteLength" : 1164,
            "byteOffset" : 0
        },
        {
            "buffer" : 0,
            "byteLength" : 1164,
            "byteOffset" : 1164
        },
        {
            "buffer" : 0,
            "byteLength" : 576,
            "byteOffset" : 2328
        },
        {
            "buffer" : 0,
            "byteLength" : 2088,
            "byteOffset" : 2904
        },
        {
            "buffer" : 0,
            "byteLength" : 2088,
            "byteOffset" : 4992
        },
        {
            "buffer" : 0,
            "byteLength" : 1200,
            "byteOffset" : 7080
        },
        {
            "buffer" : 0,
            "byteLength" : 1320,
            "byteOffset" : 8280
        },
        {
            "buffer" : 0,
            "byteLength" : 1320,
            "byteOffset" : 9600
        },
        {
            "buffer" : 0,
            "byteLength" : 612,
            "byteOffset" : 10920
        }
    ],
    "buffers" : [
        {
            "byteLength" : 11532,
            "uri" : "data:application/octet-stream;base64,"
        }
    ]
}
