{
    "asset" : {
        "generator" : "Khronos glTF Blender I/O v1.6.16",
        "version" : "2.0"
    },
    "scene" : 0,
    "scenes" : [
        {
            "name" : "Scene",
            "nodes" : [
                0
            ]
        }
    ],
    "nodes" : [
        {
            "mesh" : 0,
            "name" : "Body_AR_5"
        }
    ],
    "materials" : [
        {
            "doubleSided" : true,
            "name" : "White",
            "pbrMetallicRoughness" : {
                "baseColorFactor" : [
                    0.4575273394584656,
                    0.4575273394584656,
                    0.4575273394584656,
                    1
                ],
                "metallicFactor" : 0,
                "roughnessFactor" : 0.5
            }
        },
        {
            "doubleSided" : true,
            "name" : "Black",
            "pbrMetallicRoughness" : {
                "baseColorFactor" : [
                    0.0290982685983181,
                    0.0290982685983181,
                    0.0290982685983181,
                    1
                ],
                "metallicFactor" : 0,
                "roughnessFactor" : 0.5
            }
        },
        {
            "doubleSided" : true,
            "name" : "Main",
            "pbrMetallicRoughness" : {
                "baseColorFactor" : [
                    0.6151726245880127,
                    0.21127153933048248,
                    0.028615577146410942,
                    1
                ],
                "metallicFactor" : 0,
                "roughnessFactor" : 0.5
            }
        },
        {
            "doubleSided" : true,
            "name" : "Grey",
            "pbrMetallicRoughness" : {
                "baseColorFactor" : [
                    0.10247143357992172,
                    0.10247143357992172,
                    0.10247143357992172,
                    1
                ],
                "metallicFactor" : 0,
                "roughnessFactor" : 0.5
            }
        }
    ],
    "meshes" : [
        {
            "name" : "Cube.035",
            "primitives" : [
                {
                    "attributes" : {
                        "POSITION" : 0,
                        "NORMAL" : 1
                    },
                    "indices" : 2,
                    "material" : 0
                },
                {
                    "attributes" : {
                        "POSITION" : 3,
                        "NORMAL" : 4
                    },
                    "indices" : 5,
                    "material" : 1
                },
                {
                    "attributes" : {
                        "POSITION" : 6,
                        "NORMAL" : 7
                    },
                    "indices" : 8,
                    "material" : 2
                },
                {
                    "attributes" : {
                        "POSITION" : 9,
                        "NORMAL" : 10
                    },
                    "indices" : 11,
                    "material" : 3
                }
            ]
        }
    ],
    "accessors" : [
        {
            "bufferView" : 0,
            "componentType" : 5126,
            "count" : 223,
            "max" : [
                0.3758590817451477,
                0.11206602305173874,
                0.05370490625500679
            ],
            "min" : [
                -0.6328719258308411,
                -0.2411925494670868,
                -0.05371565744280815
            ],
            "type" : "VEC3"
        },
        {
            "bufferView" : 1,
            "componentType" : 5126,
            "count" : 223,
            "type" : "VEC3"
        },
        {
            "bufferView" : 2,
            "componentType" : 5123,
            "count" : 402,
            "type" : "SCALAR"
        },
        {
            "bufferView" : 3,
            "componentType" : 5126,
            "count" : 172,
            "max" : [
                0.37340691685676575,
                0.10884352773427963,
                0.05370490625500679
            ],
            "min" : [
                -0.7290464043617249,
                -0.25747302174568176,
                -0.05371566861867905
            ],
            "type" : "VEC3"
        },
        {
            "bufferView" : 4,
            "componentType" : 5126,
            "count" : 172,
            "type" : "VEC3"
        },
        {
            "bufferView" : 5,
            "componentType" : 5123,
            "count" : 504,
            "type" : "SCALAR"
        },
        {
            "bufferView" : 6,
            "componentType" : 5126,
            "count" : 86,
            "max" : [
                0.5035867094993591,
                -0.023489637300372124,
                0.04570788890123367
            ],
            "min" : [
                -0.24162444472312927,
                -0.14290215075016022,
                -0.04570788890123367
            ],
            "type" : "VEC3"
        },
        {
            "bufferView" : 7,
            "componentType" : 5126,
            "count" : 86,
            "type" : "VEC3"
        },
        {
            "bufferView" : 8,
            "componentType" : 5123,
            "count" : 132,
            "type" : "SCALAR"
        },
        {
            "bufferView" : 9,
            "componentType" : 5126,
            "count" : 114,
            "max" : [
                -0.194007009267807,
                -0.039836883544921875,
                0.05790264531970024
            ],
            "min" : [
                -0.7077031135559082,
                -0.2574598491191864,
                -0.05791342258453369
            ],
            "type" : "VEC3"
        },
        {
            "bufferView" : 10,
            "componentType" : 5126,
            "count" : 114,
            "type" : "VEC3"
        },
        {
            "bufferView" : 11,
            "componentType" : 5123,
            "count" : 300,
            "type" : "SCALAR"
        }
    ],
    "bufferViews" : [
        {
            "buffer" : 0,
            "byteLength" : 2676,
            "byteOffset" : 0
        },
        {
            "buffer" : 0,
            "byteLength" : 2676,
            "byteOffset" : 2676
        },
        {
            "buffer" : 0,
            "byteLength" : 804,
            "byteOffset" : 5352
        },
        {
            "buffer" : 0,
            "byteLength" : 2064,
            "byteOffset" : 6156
        },
        {
            "buffer" : 0,
            "byteLength" : 2064,
            "byteOffset" : 8220
        },
        {
            "buffer" : 0,
            "byteLength" : 1008,
            "byteOffset" : 10284
        },
        {
            "buffer" : 0,
            "byteLength" : 1032,
            "byteOffset" : 11292
        },
        {
            "buffer" : 0,
            "byteLength" : 1032,
            "byteOffset" : 12324
        },
        {
            "buffer" : 0,
            "byteLength" : 264,
            "byteOffset" : 13356
        },
        {
            "buffer" : 0,
            "byteLength" : 1368,
            "byteOffset" : 13620
        },
        {
            "buffer" : 0,
            "byteLength" : 1368,
            "byteOffset" : 14988
        },
        {
            "buffer" : 0,
            "byteLength" : 600,
            "byteOffset" : 16356
        }
    ],
    "buffers" : [
        {
            "byteLength" : 16956,
            "uri" : "data:application/octet-stream;base64,"
        }
    ]
}
