{
    "asset" : {
        "generator" : "Khronos glTF Blender I/O v1.6.16",
        "version" : "2.0"
    },
    "scene" : 0,
    "scenes" : [
        {
            "name" : "Scene",
            "nodes" : [
                0
            ]
        }
    ],
    "nodes" : [
        {
            "mesh" : 0,
            "name" : "Body_Crossbow_2"
        }
    ],
    "materials" : [
        {
            "doubleSided" : true,
            "name" : "Black",
            "pbrMetallicRoughness" : {
                "baseColorFactor" : [
                    0.0290982685983181,
                    0.0290982685983181,
                    0.0290982685983181,
                    1
                ],
                "metallicFactor" : 0,
                "roughnessFactor" : 0.5
            }
        },
        {
            "doubleSided" : true,
            "name" : "Grey",
            "pbrMetallicRoughness" : {
                "baseColorFactor" : [
                    0.10247143357992172,
                    0.10247143357992172,
                    0.10247143357992172,
                    1
                ],
                "metallicFactor" : 0,
                "roughnessFactor" : 0.5
            }
        },
        {
            "doubleSided" : true,
            "name" : "White",
            "pbrMetallicRoughness" : {
                "baseColorFactor" : [
                    0.4575273394584656,
                    0.4575273394584656,
                    0.4575273394584656,
                    1
                ],
                "metallicFactor" : 0,
                "roughnessFactor" : 0.5
            }
        },
        {
            "doubleSided" : true,
            "name" : "Main",
            "pbrMetallicRoughness" : {
                "baseColorFactor" : [
                    0.6151726245880127,
                    0.21127153933048248,
                    0.028615577146410942,
                    1
                ],
                "metallicFactor" : 0,
                "roughnessFactor" : 0.5
            }
        }
    ],
    "meshes" : [
        {
            "name" : "Cube.030",
            "primitives" : [
                {
                    "attributes" : {
                        "POSITION" : 0,
                        "NORMAL" : 1
                    },
                    "indices" : 2,
                    "material" : 0
                },
                {
                    "attributes" : {
                        "POSITION" : 3,
                        "NORMAL" : 4
                    },
                    "indices" : 5,
                    "material" : 1
                },
                {
                    "attributes" : {
                        "POSITION" : 6,
                        "NORMAL" : 7
                    },
                    "indices" : 8,
                    "material" : 2
                },
                {
                    "attributes" : {
                        "POSITION" : 9,
                        "NORMAL" : 10
                    },
                    "indices" : 11,
                    "material" : 3
                }
            ]
        }
    ],
    "accessors" : [
        {
            "bufferView" : 0,
            "componentType" : 5126,
            "count" : 321,
            "max" : [
                0.40815916657447815,
                0.16622862219810486,
                0.739614725112915
            ],
            "min" : [
                -0.9923389554023743,
                -0.15737096965312958,
                -0.7397027015686035
            ],
            "type" : "VEC3"
        },
        {
            "bufferView" : 1,
            "componentType" : 5126,
            "count" : 321,
            "type" : "VEC3"
        },
        {
            "bufferView" : 2,
            "componentType" : 5123,
            "count" : 762,
            "type" : "SCALAR"
        },
        {
            "bufferView" : 3,
            "componentType" : 5126,
            "count" : 160,
            "max" : [
                0.37872737646102905,
                0.1024063378572464,
                0.7770180702209473
            ],
            "min" : [
                0.07659101486206055,
                -0.08229505270719528,
                -0.777010440826416
            ],
            "type" : "VEC3"
        },
        {
            "bufferView" : 4,
            "componentType" : 5126,
            "count" : 160,
            "type" : "VEC3"
        },
        {
            "bufferView" : 5,
            "componentType" : 5123,
            "count" : 432,
            "type" : "SCALAR"
        },
        {
            "bufferView" : 6,
            "componentType" : 5126,
            "count" : 382,
            "max" : [
                0.47320908308029175,
                0.17028090357780457,
                0.7574939727783203
            ],
            "min" : [
                -0.8876371383666992,
                -0.17308609187602997,
                -0.7574864625930786
            ],
            "type" : "VEC3"
        },
        {
            "bufferView" : 7,
            "componentType" : 5126,
            "count" : 382,
            "type" : "VEC3"
        },
        {
            "bufferView" : 8,
            "componentType" : 5123,
            "count" : 840,
            "type" : "SCALAR"
        },
        {
            "bufferView" : 9,
            "componentType" : 5126,
            "count" : 988,
            "max" : [
                0.4789747893810272,
                0.06438624858856201,
                0.9601739645004272
            ],
            "min" : [
                -0.9189220666885376,
                -0.1858106106519699,
                -0.960166335105896
            ],
            "type" : "VEC3"
        },
        {
            "bufferView" : 10,
            "componentType" : 5126,
            "count" : 988,
            "type" : "VEC3"
        },
        {
            "bufferView" : 11,
            "componentType" : 5123,
            "count" : 2196,
            "type" : "SCALAR"
        }
    ],
    "bufferViews" : [
        {
            "buffer" : 0,
            "byteLength" : 3852,
            "byteOffset" : 0
        },
        {
            "buffer" : 0,
            "byteLength" : 3852,
            "byteOffset" : 3852
        },
        {
            "buffer" : 0,
            "byteLength" : 1524,
            "byteOffset" : 7704
        },
        {
            "buffer" : 0,
            "byteLength" : 1920,
            "byteOffset" : 9228
        },
        {
            "buffer" : 0,
            "byteLength" : 1920,
            "byteOffset" : 11148
        },
        {
            "buffer" : 0,
            "byteLength" : 864,
            "byteOffset" : 13068
        },
        {
            "buffer" : 0,
            "byteLength" : 4584,
            "byteOffset" : 13932
        },
        {
            "buffer" : 0,
            "byteLength" : 4584,
            "byteOffset" : 18516
        },
        {
            "buffer" : 0,
            "byteLength" : 1680,
            "byteOffset" : 23100
        },
        {
            "buffer" : 0,
            "byteLength" : 11856,
            "byteOffset" : 24780
        },
        {
            "buffer" : 0,
            "byteLength" : 11856,
            "byteOffset" : 36636
        },
        {
            "buffer" : 0,
            "byteLength" : 4392,
            "byteOffset" : 48492
        }
    ],
    "buffers" : [
        {
            "byteLength" : 52884,
            "uri" : "data:application/octet-stream;base64,"
        }
    ]
}
