{
    "asset" : {
        "generator" : "Khronos glTF Blender I/O v1.6.16",
        "version" : "2.0"
    },
    "scene" : 0,
    "scenes" : [
        {
            "name" : "Scene",
            "nodes" : [
                0
            ]
        }
    ],
    "nodes" : [
        {
            "mesh" : 0,
            "name" : "Body_Grenade_2"
        }
    ],
    "materials" : [
        {
            "doubleSided" : true,
            "name" : "Black",
            "pbrMetallicRoughness" : {
                "baseColorFactor" : [
                    0.0290982685983181,
                    0.0290982685983181,
                    0.0290982685983181,
                    1
                ],
                "metallicFactor" : 0,
                "roughnessFactor" : 0.5
            }
        },
        {
            "doubleSided" : true,
            "name" : "White",
            "pbrMetallicRoughness" : {
                "baseColorFactor" : [
                    0.4575273394584656,
                    0.4575273394584656,
                    0.4575273394584656,
                    1
                ],
                "metallicFactor" : 0,
                "roughnessFactor" : 0.5
            }
        },
        {
            "doubleSided" : true,
            "name" : "Main",
            "pbrMetallicRoughness" : {
                "baseColorFactor" : [
                    0.6151726245880127,
                    0.21127153933048248,
                    0.028615577146410942,
                    1
                ],
                "metallicFactor" : 0,
                "roughnessFactor" : 0.5
            }
        }
    ],
    "meshes" : [
        {
            "name" : "Cube.008",
            "primitives" : [
                {
                    "attributes" : {
                        "POSITION" : 0,
                        "NORMAL" : 1
                    },
                    "indices" : 2,
                    "material" : 0
                },
                {
                    "attributes" : {
                        "POSITION" : 3,
                        "NORMAL" : 4
                    },
                    "indices" : 5,
                    "material" : 1
                },
                {
                    "attributes" : {
                        "POSITION" : 6,
                        "NORMAL" : 7
                    },
                    "indices" : 8,
                    "material" : 2
                }
            ]
        }
    ],
    "accessors" : [
        {
            "bufferView" : 0,
            "componentType" : 5126,
            "count" : 236,
            "max" : [
                0.48494952917099,
                0.12741366028785706,
                0.08678175508975983
            ],
            "min" : [
                -0.7295533418655396,
                -0.13988924026489258,
                -0.08678175508975983
            ],
            "type" : "VEC3"
        },
        {
            "bufferView" : 1,
            "componentType" : 5126,
            "count" : 236,
            "type" : "VEC3"
        },
        {
            "bufferView" : 2,
            "componentType" : 5123,
            "count" : 408,
            "type" : "SCALAR"
        },
        {
            "bufferView" : 3,
            "componentType" : 5126,
            "count" : 261,
            "max" : [
                0.5325527191162109,
                0.13361504673957825,
                0.09379763901233673
            ],
            "min" : [
                -0.7295533418655396,
                -0.23534610867500305,
                -0.09379763901233673
            ],
            "type" : "VEC3"
        },
        {
            "bufferView" : 4,
            "componentType" : 5126,
            "count" : 261,
            "type" : "VEC3"
        },
        {
            "bufferView" : 5,
            "componentType" : 5123,
            "count" : 756,
            "type" : "SCALAR"
        },
        {
            "bufferView" : 6,
            "componentType" : 5126,
            "count" : 154,
            "max" : [
                0.6052119135856628,
                0.13361506164073944,
                0.09379763901233673
            ],
            "min" : [
                0.04487575963139534,
                -0.21310973167419434,
                -0.09379762411117554
            ],
            "type" : "VEC3"
        },
        {
            "bufferView" : 7,
            "componentType" : 5126,
            "count" : 154,
            "type" : "VEC3"
        },
        {
            "bufferView" : 8,
            "componentType" : 5123,
            "count" : 342,
            "type" : "SCALAR"
        }
    ],
    "bufferViews" : [
        {
            "buffer" : 0,
            "byteLength" : 2832,
            "byteOffset" : 0
        },
        {
            "buffer" : 0,
            "byteLength" : 2832,
            "byteOffset" : 2832
        },
        {
            "buffer" : 0,
            "byteLength" : 816,
            "byteOffset" : 5664
        },
        {
            "buffer" : 0,
            "byteLength" : 3132,
            "byteOffset" : 6480
        },
        {
            "buffer" : 0,
            "byteLength" : 3132,
            "byteOffset" : 9612
        },
        {
            "buffer" : 0,
            "byteLength" : 1512,
            "byteOffset" : 12744
        },
        {
            "buffer" : 0,
            "byteLength" : 1848,
            "byteOffset" : 14256
        },
        {
            "buffer" : 0,
            "byteLength" : 1848,
            "byteOffset" : 16104
        },
        {
            "buffer" : 0,
            "byteLength" : 684,
            "byteOffset" : 17952
        }
    ],
    "buffers" : [
        {
            "byteLength" : 18636,
            "uri" : "data:application/octet-stream;base64,"
        }
    ]
}
