{
    "asset" : {
        "generator" : "Khronos glTF Blender I/O v1.6.16",
        "version" : "2.0"
    },
    "scene" : 0,
    "scenes" : [
        {
            "name" : "Scene",
            "nodes" : [
                0
            ]
        }
    ],
    "nodes" : [
        {
            "mesh" : 0,
            "name" : "Body_Sniper_2"
        }
    ],
    "materials" : [
        {
            "doubleSided" : true,
            "name" : "Black",
            "pbrMetallicRoughness" : {
                "baseColorFactor" : [
                    0.0290982685983181,
                    0.0290982685983181,
                    0.0290982685983181,
                    1
                ],
                "metallicFactor" : 0,
                "roughnessFactor" : 0.5
            }
        },
        {
            "doubleSided" : true,
            "name" : "Grey",
            "pbrMetallicRoughness" : {
                "baseColorFactor" : [
                    0.10247143357992172,
                    0.10247143357992172,
                    0.10247143357992172,
                    1
                ],
                "metallicFactor" : 0,
                "roughnessFactor" : 0.5
            }
        },
        {
            "doubleSided" : true,
            "name" : "White",
            "pbrMetallicRoughness" : {
                "baseColorFactor" : [
                    0.4575273394584656,
                    0.4575273394584656,
                    0.4575273394584656,
                    1
                ],
                "metallicFactor" : 0,
                "roughnessFactor" : 0.5
            }
        },
        {
            "doubleSided" : true,
            "name" : "Main",
            "pbrMetallicRoughness" : {
                "baseColorFactor" : [
                    0.6151726245880127,
                    0.21127153933048248,
                    0.028615577146410942,
                    1
                ],
                "metallicFactor" : 0,
                "roughnessFactor" : 0.5
            }
        }
    ],
    "meshes" : [
        {
            "name" : "Cube.249",
            "primitives" : [
                {
                    "attributes" : {
                        "POSITION" : 0,
                        "NORMAL" : 1
                    },
                    "indices" : 2,
                    "material" : 0
                },
                {
                    "attributes" : {
                        "POSITION" : 3,
                        "NORMAL" : 4
                    },
                    "indices" : 5,
                    "material" : 1
                },
                {
                    "attributes" : {
                        "POSITION" : 6,
                        "NORMAL" : 7
                    },
                    "indices" : 8,
                    "material" : 2
                },
                {
                    "attributes" : {
                        "POSITION" : 9,
                        "NORMAL" : 10
                    },
                    "indices" : 11,
                    "material" : 3
                }
            ]
        }
    ],
    "accessors" : [
        {
            "bufferView" : 0,
            "componentType" : 5126,
            "count" : 312,
            "max" : [
                0.7579516172409058,
                0.19505760073661804,
                0.08922141790390015
            ],
            "min" : [
                -0.7580385208129883,
                -0.21355456113815308,
                -0.08922141790390015
            ],
            "type" : "VEC3"
        },
        {
            "bufferView" : 1,
            "componentType" : 5126,
            "count" : 312,
            "type" : "VEC3"
        },
        {
            "bufferView" : 2,
            "componentType" : 5123,
            "count" : 834,
            "type" : "SCALAR"
        },
        {
            "bufferView" : 3,
            "componentType" : 5126,
            "count" : 40,
            "max" : [
                -0.20759928226470947,
                0.0458734929561615,
                0.05349785089492798
            ],
            "min" : [
                -0.6561960577964783,
                -0.0658300518989563,
                -0.05349784716963768
            ],
            "type" : "VEC3"
        },
        {
            "bufferView" : 4,
            "componentType" : 5126,
            "count" : 40,
            "type" : "VEC3"
        },
        {
            "bufferView" : 5,
            "componentType" : 5123,
            "count" : 84,
            "type" : "SCALAR"
        },
        {
            "bufferView" : 6,
            "componentType" : 5126,
            "count" : 364,
            "max" : [
                0.7580385208129883,
                0.21889683604240417,
                0.08922141790390015
            ],
            "min" : [
                -0.7580385208129883,
                -0.07083593308925629,
                -0.08922141790390015
            ],
            "type" : "VEC3"
        },
        {
            "bufferView" : 7,
            "componentType" : 5126,
            "count" : 364,
            "type" : "VEC3"
        },
        {
            "bufferView" : 8,
            "componentType" : 5123,
            "count" : 1026,
            "type" : "SCALAR"
        },
        {
            "bufferView" : 9,
            "componentType" : 5126,
            "count" : 190,
            "max" : [
                0.5724022388458252,
                0.05360770225524902,
                0.06759332120418549
            ],
            "min" : [
                -0.20883727073669434,
                -0.21889682114124298,
                -0.06747902929782867
            ],
            "type" : "VEC3"
        },
        {
            "bufferView" : 10,
            "componentType" : 5126,
            "count" : 190,
            "type" : "VEC3"
        },
        {
            "bufferView" : 11,
            "componentType" : 5123,
            "count" : 444,
            "type" : "SCALAR"
        }
    ],
    "bufferViews" : [
        {
            "buffer" : 0,
            "byteLength" : 3744,
            "byteOffset" : 0
        },
        {
            "buffer" : 0,
            "byteLength" : 3744,
            "byteOffset" : 3744
        },
        {
            "buffer" : 0,
            "byteLength" : 1668,
            "byteOffset" : 7488
        },
        {
            "buffer" : 0,
            "byteLength" : 480,
            "byteOffset" : 9156
        },
        {
            "buffer" : 0,
            "byteLength" : 480,
            "byteOffset" : 9636
        },
        {
            "buffer" : 0,
            "byteLength" : 168,
            "byteOffset" : 10116
        },
        {
            "buffer" : 0,
            "byteLength" : 4368,
            "byteOffset" : 10284
        },
        {
            "buffer" : 0,
            "byteLength" : 4368,
            "byteOffset" : 14652
        },
        {
            "buffer" : 0,
            "byteLength" : 2052,
            "byteOffset" : 19020
        },
        {
            "buffer" : 0,
            "byteLength" : 2280,
            "byteOffset" : 21072
        },
        {
            "buffer" : 0,
            "byteLength" : 2280,
            "byteOffset" : 23352
        },
        {
            "buffer" : 0,
            "byteLength" : 888,
            "byteOffset" : 25632
        }
    ],
    "buffers" : [
        {
            "byteLength" : 26520,
            "uri" : "data:application/octet-stream;base64,"
        }
    ]
}
