{
    "asset" : {
        "generator" : "Khronos glTF Blender I/O v1.6.16",
        "version" : "2.0"
    },
    "scene" : 0,
    "scenes" : [
        {
            "name" : "Scene",
            "nodes" : [
                0
            ]
        }
    ],
    "nodes" : [
        {
            "mesh" : 0,
            "name" : "Body_Sniper_3"
        }
    ],
    "materials" : [
        {
            "doubleSided" : true,
            "name" : "Black",
            "pbrMetallicRoughness" : {
                "baseColorFactor" : [
                    0.0290982685983181,
                    0.0290982685983181,
                    0.0290982685983181,
                    1
                ],
                "metallicFactor" : 0,
                "roughnessFactor" : 0.5
            }
        },
        {
            "doubleSided" : true,
            "name" : "Grey",
            "pbrMetallicRoughness" : {
                "baseColorFactor" : [
                    0.10247143357992172,
                    0.10247143357992172,
                    0.10247143357992172,
                    1
                ],
                "metallicFactor" : 0,
                "roughnessFactor" : 0.5
            }
        },
        {
            "doubleSided" : true,
            "name" : "White",
            "pbrMetallicRoughness" : {
                "baseColorFactor" : [
                    0.4575273394584656,
                    0.4575273394584656,
                    0.4575273394584656,
                    1
                ],
                "metallicFactor" : 0,
                "roughnessFactor" : 0.5
            }
        }
    ],
    "meshes" : [
        {
            "name" : "Cube.001",
            "primitives" : [
                {
                    "attributes" : {
                        "POSITION" : 0,
                        "NORMAL" : 1
                    },
                    "indices" : 2,
                    "material" : 0
                },
                {
                    "attributes" : {
                        "POSITION" : 3,
                        "NORMAL" : 4
                    },
                    "indices" : 5,
                    "material" : 1
                },
                {
                    "attributes" : {
                        "POSITION" : 6,
                        "NORMAL" : 7
                    },
                    "indices" : 8,
                    "material" : 2
                }
            ]
        }
    ],
    "accessors" : [
        {
            "bufferView" : 0,
            "componentType" : 5126,
            "count" : 354,
            "max" : [
                0.4224262833595276,
                0.08528541028499603,
                0.04144364595413208
            ],
            "min" : [
                -0.2496953159570694,
                -0.2017212212085724,
                -0.04071838781237602
            ],
            "type" : "VEC3"
        },
        {
            "bufferView" : 1,
            "componentType" : 5126,
            "count" : 354,
            "type" : "VEC3"
        },
        {
            "bufferView" : 2,
            "componentType" : 5123,
            "count" : 918,
            "type" : "SCALAR"
        },
        {
            "bufferView" : 3,
            "componentType" : 5126,
            "count" : 142,
            "max" : [
                0.4202166497707367,
                0.11426108330488205,
                0.037027958780527115
            ],
            "min" : [
                -0.20466701686382294,
                -0.19864097237586975,
                -0.03630269691348076
            ],
            "type" : "VEC3"
        },
        {
            "bufferView" : 4,
            "componentType" : 5126,
            "count" : 142,
            "type" : "VEC3"
        },
        {
            "bufferView" : 5,
            "componentType" : 5123,
            "count" : 354,
            "type" : "SCALAR"
        },
        {
            "bufferView" : 6,
            "componentType" : 5126,
            "count" : 146,
            "max" : [
                0.4224262833595276,
                0.11426108330488205,
                0.04144364595413208
            ],
            "min" : [
                -0.1474313735961914,
                -0.017313331365585327,
                -0.04071838781237602
            ],
            "type" : "VEC3"
        },
        {
            "bufferView" : 7,
            "componentType" : 5126,
            "count" : 146,
            "type" : "VEC3"
        },
        {
            "bufferView" : 8,
            "componentType" : 5123,
            "count" : 360,
            "type" : "SCALAR"
        }
    ],
    "bufferViews" : [
        {
            "buffer" : 0,
            "byteLength" : 4248,
            "byteOffset" : 0
        },
        {
            "buffer" : 0,
            "byteLength" : 4248,
            "byteOffset" : 4248
        },
        {
            "buffer" : 0,
            "byteLength" : 1836,
            "byteOffset" : 8496
        },
        {
            "buffer" : 0,
            "byteLength" : 1704,
            "byteOffset" : 10332
        },
        {
            "buffer" : 0,
            "byteLength" : 1704,
            "byteOffset" : 12036
        },
        {
            "buffer" : 0,
            "byteLength" : 708,
            "byteOffset" : 13740
        },
        {
            "buffer" : 0,
            "byteLength" : 1752,
            "byteOffset" : 14448
        },
        {
            "buffer" : 0,
            "byteLength" : 1752,
            "byteOffset" : 16200
        },
        {
            "buffer" : 0,
            "byteLength" : 720,
            "byteOffset" : 17952
        }
    ],
    "buffers" : [
        {
            "byteLength" : 18672,
            "uri" : "data:application/octet-stream;base64,"
        }
    ]
}
