{
    "asset" : {
        "generator" : "Khronos glTF Blender I/O v1.6.16",
        "version" : "2.0"
    },
    "scene" : 0,
    "scenes" : [
        {
            "name" : "Scene",
            "nodes" : [
                0
            ]
        }
    ],
    "nodes" : [
        {
            "mesh" : 0,
            "name" : "Body_Front_Sniper_1"
        }
    ],
    "materials" : [
        {
            "doubleSided" : true,
            "name" : "Black",
            "pbrMetallicRoughness" : {
                "baseColorFactor" : [
                    0.0290982685983181,
                    0.0290982685983181,
                    0.0290982685983181,
                    1
                ],
                "metallicFactor" : 0,
                "roughnessFactor" : 0.5
            }
        },
        {
            "doubleSided" : true,
            "name" : "Grey",
            "pbrMetallicRoughness" : {
                "baseColorFactor" : [
                    0.10247143357992172,
                    0.10247143357992172,
                    0.10247143357992172,
                    1
                ],
                "metallicFactor" : 0,
                "roughnessFactor" : 0.5
            }
        },
        {
            "doubleSided" : true,
            "name" : "White",
            "pbrMetallicRoughness" : {
                "baseColorFactor" : [
                    0.4575273394584656,
                    0.4575273394584656,
                    0.4575273394584656,
                    1
                ],
                "metallicFactor" : 0,
                "roughnessFactor" : 0.5
            }
        },
        {
            "doubleSided" : true,
            "name" : "Main",
            "pbrMetallicRoughness" : {
                "baseColorFactor" : [
                    0.6151726245880127,
                    0.21127153933048248,
                    0.028615577146410942,
                    1
                ],
                "metallicFactor" : 0,
                "roughnessFactor" : 0.5
            }
        }
    ],
    "meshes" : [
        {
            "name" : "Cube.245",
            "primitives" : [
                {
                    "attributes" : {
                        "POSITION" : 0,
                        "NORMAL" : 1
                    },
                    "indices" : 2,
                    "material" : 0
                },
                {
                    "attributes" : {
                        "POSITION" : 3,
                        "NORMAL" : 4
                    },
                    "indices" : 5,
                    "material" : 1
                },
                {
                    "attributes" : {
                        "POSITION" : 6,
                        "NORMAL" : 7
                    },
                    "indices" : 8,
                    "material" : 2
                },
                {
                    "attributes" : {
                        "POSITION" : 9,
                        "NORMAL" : 10
                    },
                    "indices" : 11,
                    "material" : 3
                }
            ]
        }
    ],
    "accessors" : [
        {
            "bufferView" : 0,
            "componentType" : 5126,
            "count" : 186,
            "max" : [
                0.640180766582489,
                0.12578466534614563,
                0.051732052117586136
            ],
            "min" : [
                -0.5983169674873352,
                -0.12362542748451233,
                -0.051115911453962326
            ],
            "type" : "VEC3"
        },
        {
            "bufferView" : 1,
            "componentType" : 5126,
            "count" : 186,
            "type" : "VEC3"
        },
        {
            "bufferView" : 2,
            "componentType" : 5123,
            "count" : 420,
            "type" : "SCALAR"
        },
        {
            "bufferView" : 3,
            "componentType" : 5126,
            "count" : 112,
            "max" : [
                0.4747897982597351,
                0.08837222307920456,
                0.04705756902694702
            ],
            "min" : [
                -0.34692803025245667,
                -0.08229512721300125,
                -0.051115911453962326
            ],
            "type" : "VEC3"
        },
        {
            "bufferView" : 4,
            "componentType" : 5126,
            "count" : 112,
            "type" : "VEC3"
        },
        {
            "bufferView" : 5,
            "componentType" : 5123,
            "count" : 228,
            "type" : "SCALAR"
        },
        {
            "bufferView" : 6,
            "componentType" : 5126,
            "count" : 444,
            "max" : [
                0.6402511596679688,
                0.14515642821788788,
                0.051732052117586136
            ],
            "min" : [
                -0.5983169674873352,
                -0.14299719035625458,
                -0.051115911453962326
            ],
            "type" : "VEC3"
        },
        {
            "bufferView" : 7,
            "componentType" : 5126,
            "count" : 444,
            "type" : "VEC3"
        },
        {
            "bufferView" : 8,
            "componentType" : 5123,
            "count" : 1230,
            "type" : "SCALAR"
        },
        {
            "bufferView" : 9,
            "componentType" : 5126,
            "count" : 444,
            "max" : [
                0.6402511596679688,
                0.1456977128982544,
                0.051732052117586136
            ],
            "min" : [
                -0.5983169674873352,
                -0.14338304102420807,
                -0.051115911453962326
            ],
            "type" : "VEC3"
        },
        {
            "bufferView" : 10,
            "componentType" : 5126,
            "count" : 444,
            "type" : "VEC3"
        },
        {
            "bufferView" : 11,
            "componentType" : 5123,
            "count" : 978,
            "type" : "SCALAR"
        }
    ],
    "bufferViews" : [
        {
            "buffer" : 0,
            "byteLength" : 2232,
            "byteOffset" : 0
        },
        {
            "buffer" : 0,
            "byteLength" : 2232,
            "byteOffset" : 2232
        },
        {
            "buffer" : 0,
            "byteLength" : 840,
            "byteOffset" : 4464
        },
        {
            "buffer" : 0,
            "byteLength" : 1344,
            "byteOffset" : 5304
        },
        {
            "buffer" : 0,
            "byteLength" : 1344,
            "byteOffset" : 6648
        },
        {
            "buffer" : 0,
            "byteLength" : 456,
            "byteOffset" : 7992
        },
        {
            "buffer" : 0,
            "byteLength" : 5328,
            "byteOffset" : 8448
        },
        {
            "buffer" : 0,
            "byteLength" : 5328,
            "byteOffset" : 13776
        },
        {
            "buffer" : 0,
            "byteLength" : 2460,
            "byteOffset" : 19104
        },
        {
            "buffer" : 0,
            "byteLength" : 5328,
            "byteOffset" : 21564
        },
        {
            "buffer" : 0,
            "byteLength" : 5328,
            "byteOffset" : 26892
        },
        {
            "buffer" : 0,
            "byteLength" : 1956,
            "byteOffset" : 32220
        }
    ],
    "buffers" : [
        {
            "byteLength" : 34176,
            "uri" : "data:application/octet-stream;base64,"
        }
    ]
}
