{
    "asset" : {
        "generator" : "Khronos glTF Blender I/O v1.6.16",
        "version" : "2.0"
    },
    "scene" : 0,
    "scenes" : [
        {
            "name" : "Scene",
            "nodes" : [
                0
            ]
        }
    ],
    "nodes" : [
        {
            "mesh" : 0,
            "name" : "Body_Grenade_3"
        }
    ],
    "materials" : [
        {
            "doubleSided" : true,
            "name" : "White",
            "pbrMetallicRoughness" : {
                "baseColorFactor" : [
                    0.4575273394584656,
                    0.4575273394584656,
                    0.4575273394584656,
                    1
                ],
                "metallicFactor" : 0,
                "roughnessFactor" : 0.5
            }
        },
        {
            "doubleSided" : true,
            "name" : "Grey",
            "pbrMetallicRoughness" : {
                "baseColorFactor" : [
                    0.10247143357992172,
                    0.10247143357992172,
                    0.10247143357992172,
                    1
                ],
                "metallicFactor" : 0,
                "roughnessFactor" : 0.5
            }
        },
        {
            "doubleSided" : true,
            "name" : "Black",
            "pbrMetallicRoughness" : {
                "baseColorFactor" : [
                    0.0290982685983181,
                    0.0290982685983181,
                    0.0290982685983181,
                    1
                ],
                "metallicFactor" : 0,
                "roughnessFactor" : 0.5
            }
        },
        {
            "doubleSided" : true,
            "name" : "Main",
            "pbrMetallicRoughness" : {
                "baseColorFactor" : [
                    0.6151726245880127,
                    0.21127153933048248,
                    0.028615577146410942,
                    1
                ],
                "metallicFactor" : 0,
                "roughnessFactor" : 0.5
            }
        }
    ],
    "meshes" : [
        {
            "name" : "Cube.042",
            "primitives" : [
                {
                    "attributes" : {
                        "POSITION" : 0,
                        "NORMAL" : 1
                    },
                    "indices" : 2,
                    "material" : 0
                },
                {
                    "attributes" : {
                        "POSITION" : 3,
                        "NORMAL" : 4
                    },
                    "indices" : 5,
                    "material" : 1
                },
                {
                    "attributes" : {
                        "POSITION" : 6,
                        "NORMAL" : 7
                    },
                    "indices" : 8,
                    "material" : 2
                },
                {
                    "attributes" : {
                        "POSITION" : 9,
                        "NORMAL" : 10
                    },
                    "indices" : 11,
                    "material" : 3
                }
            ]
        }
    ],
    "accessors" : [
        {
            "bufferView" : 0,
            "componentType" : 5126,
            "count" : 471,
            "max" : [
                0.48812875151634216,
                0.1704511046409607,
                0.0684930756688118
            ],
            "min" : [
                -0.9511851072311401,
                -0.21832096576690674,
                -0.06849262863397598
            ],
            "type" : "VEC3"
        },
        {
            "bufferView" : 1,
            "componentType" : 5126,
            "count" : 471,
            "type" : "VEC3"
        },
        {
            "bufferView" : 2,
            "componentType" : 5123,
            "count" : 1656,
            "type" : "SCALAR"
        },
        {
            "bufferView" : 3,
            "componentType" : 5126,
            "count" : 92,
            "max" : [
                0.4706026613712311,
                0.1979256421327591,
                0.058887697756290436
            ],
            "min" : [
                -0.9511851072311401,
                -0.04983523115515709,
                -0.05888725072145462
            ],
            "type" : "VEC3"
        },
        {
            "bufferView" : 4,
            "componentType" : 5126,
            "count" : 92,
            "type" : "VEC3"
        },
        {
            "bufferView" : 5,
            "componentType" : 5123,
            "count" : 234,
            "type" : "SCALAR"
        },
        {
            "bufferView" : 6,
            "componentType" : 5126,
            "count" : 318,
            "max" : [
                0.5067611932754517,
                0.20420610904693604,
                0.06257090717554092
            ],
            "min" : [
                -0.6194861531257629,
                -0.2103409767150879,
                -0.06257046014070511
            ],
            "type" : "VEC3"
        },
        {
            "bufferView" : 7,
            "componentType" : 5126,
            "count" : 318,
            "type" : "VEC3"
        },
        {
            "bufferView" : 8,
            "componentType" : 5123,
            "count" : 540,
            "type" : "SCALAR"
        },
        {
            "bufferView" : 9,
            "componentType" : 5126,
            "count" : 290,
            "max" : [
                0.5067611932754517,
                0.15443861484527588,
                0.0684930756688118
            ],
            "min" : [
                -0.6194861531257629,
                -0.21754175424575806,
                -0.06849263608455658
            ],
            "type" : "VEC3"
        },
        {
            "bufferView" : 10,
            "componentType" : 5126,
            "count" : 290,
            "type" : "VEC3"
        },
        {
            "bufferView" : 11,
            "componentType" : 5123,
            "count" : 780,
            "type" : "SCALAR"
        }
    ],
    "bufferViews" : [
        {
            "buffer" : 0,
            "byteLength" : 5652,
            "byteOffset" : 0
        },
        {
            "buffer" : 0,
            "byteLength" : 5652,
            "byteOffset" : 5652
        },
        {
            "buffer" : 0,
            "byteLength" : 3312,
            "byteOffset" : 11304
        },
        {
            "buffer" : 0,
            "byteLength" : 1104,
            "byteOffset" : 14616
        },
        {
            "buffer" : 0,
            "byteLength" : 1104,
            "byteOffset" : 15720
        },
        {
            "buffer" : 0,
            "byteLength" : 468,
            "byteOffset" : 16824
        },
        {
            "buffer" : 0,
            "byteLength" : 3816,
            "byteOffset" : 17292
        },
        {
            "buffer" : 0,
            "byteLength" : 3816,
            "byteOffset" : 21108
        },
        {
            "buffer" : 0,
            "byteLength" : 1080,
            "byteOffset" : 24924
        },
        {
            "buffer" : 0,
            "byteLength" : 3480,
            "byteOffset" : 26004
        },
        {
            "buffer" : 0,
            "byteLength" : 3480,
            "byteOffset" : 29484
        },
        {
            "buffer" : 0,
            "byteLength" : 1560,
            "byteOffset" : 32964
        }
    ],
    "buffers" : [
        {
            "byteLength" : 34524,
            "uri" : "data:application/octet-stream;base64,"
        }
    ]
}
