{
    "asset" : {
        "generator" : "Khronos glTF Blender I/O v1.6.16",
        "version" : "2.0"
    },
    "scene" : 0,
    "scenes" : [
        {
            "name" : "Scene",
            "nodes" : [
                0
            ]
        }
    ],
    "nodes" : [
        {
            "mesh" : 0,
            "name" : "Body_AR_6"
        }
    ],
    "materials" : [
        {
            "doubleSided" : true,
            "name" : "Black",
            "pbrMetallicRoughness" : {
                "baseColorFactor" : [
                    0.0290982685983181,
                    0.0290982685983181,
                    0.0290982685983181,
                    1
                ],
                "metallicFactor" : 0,
                "roughnessFactor" : 0.5
            }
        },
        {
            "doubleSided" : true,
            "name" : "Grey",
            "pbrMetallicRoughness" : {
                "baseColorFactor" : [
                    0.10247143357992172,
                    0.10247143357992172,
                    0.10247143357992172,
                    1
                ],
                "metallicFactor" : 0,
                "roughnessFactor" : 0.5
            }
        },
        {
            "doubleSided" : true,
            "name" : "White",
            "pbrMetallicRoughness" : {
                "baseColorFactor" : [
                    0.4575273394584656,
                    0.4575273394584656,
                    0.4575273394584656,
                    1
                ],
                "metallicFactor" : 0,
                "roughnessFactor" : 0.5
            }
        },
        {
            "doubleSided" : true,
            "name" : "Main",
            "pbrMetallicRoughness" : {
                "baseColorFactor" : [
                    0.6151726245880127,
                    0.21127153933048248,
                    0.028615577146410942,
                    1
                ],
                "metallicFactor" : 0,
                "roughnessFactor" : 0.5
            }
        }
    ],
    "meshes" : [
        {
            "name" : "Cube.044",
            "primitives" : [
                {
                    "attributes" : {
                        "POSITION" : 0,
                        "NORMAL" : 1
                    },
                    "indices" : 2,
                    "material" : 0
                },
                {
                    "attributes" : {
                        "POSITION" : 3,
                        "NORMAL" : 4
                    },
                    "indices" : 5,
                    "material" : 1
                },
                {
                    "attributes" : {
                        "POSITION" : 6,
                        "NORMAL" : 7
                    },
                    "indices" : 8,
                    "material" : 2
                },
                {
                    "attributes" : {
                        "POSITION" : 9,
                        "NORMAL" : 10
                    },
                    "indices" : 11,
                    "material" : 3
                }
            ]
        }
    ],
    "accessors" : [
        {
            "bufferView" : 0,
            "componentType" : 5126,
            "count" : 54,
            "max" : [
                0.5800564885139465,
                0.08676856011152267,
                0.06257078051567078
            ],
            "min" : [
                -0.3063163161277771,
                -0.05134838446974754,
                -0.06257057934999466
            ],
            "type" : "VEC3"
        },
        {
            "bufferView" : 1,
            "componentType" : 5126,
            "count" : 54,
            "type" : "VEC3"
        },
        {
            "bufferView" : 2,
            "componentType" : 5123,
            "count" : 144,
            "type" : "SCALAR"
        },
        {
            "bufferView" : 3,
            "componentType" : 5126,
            "count" : 138,
            "max" : [
                0.5162225365638733,
                0.07513511180877686,
                0.059967949986457825
            ],
            "min" : [
                -0.9055651426315308,
                -0.33303043246269226,
                -0.05996774882078171
            ],
            "type" : "VEC3"
        },
        {
            "bufferView" : 4,
            "componentType" : 5126,
            "count" : 138,
            "type" : "VEC3"
        },
        {
            "bufferView" : 5,
            "componentType" : 5123,
            "count" : 420,
            "type" : "SCALAR"
        },
        {
            "bufferView" : 6,
            "componentType" : 5126,
            "count" : 364,
            "max" : [
                0.5614241361618042,
                0.08986875414848328,
                0.06849294900894165
            ],
            "min" : [
                -0.9055651426315308,
                -0.2659769654273987,
                -0.06849274784326553
            ],
            "type" : "VEC3"
        },
        {
            "bufferView" : 7,
            "componentType" : 5126,
            "count" : 364,
            "type" : "VEC3"
        },
        {
            "bufferView" : 8,
            "componentType" : 5123,
            "count" : 1302,
            "type" : "SCALAR"
        },
        {
            "bufferView" : 9,
            "componentType" : 5126,
            "count" : 249,
            "max" : [
                0.5800564885139465,
                0.08986875414848328,
                0.06849295645952225
            ],
            "min" : [
                -0.3063163161277771,
                -0.056583866477012634,
                -0.06849275529384613
            ],
            "type" : "VEC3"
        },
        {
            "bufferView" : 10,
            "componentType" : 5126,
            "count" : 249,
            "type" : "VEC3"
        },
        {
            "bufferView" : 11,
            "componentType" : 5123,
            "count" : 708,
            "type" : "SCALAR"
        }
    ],
    "bufferViews" : [
        {
            "buffer" : 0,
            "byteLength" : 648,
            "byteOffset" : 0
        },
        {
            "buffer" : 0,
            "byteLength" : 648,
            "byteOffset" : 648
        },
        {
            "buffer" : 0,
            "byteLength" : 288,
            "byteOffset" : 1296
        },
        {
            "buffer" : 0,
            "byteLength" : 1656,
            "byteOffset" : 1584
        },
        {
            "buffer" : 0,
            "byteLength" : 1656,
            "byteOffset" : 3240
        },
        {
            "buffer" : 0,
            "byteLength" : 840,
            "byteOffset" : 4896
        },
        {
            "buffer" : 0,
            "byteLength" : 4368,
            "byteOffset" : 5736
        },
        {
            "buffer" : 0,
            "byteLength" : 4368,
            "byteOffset" : 10104
        },
        {
            "buffer" : 0,
            "byteLength" : 2604,
            "byteOffset" : 14472
        },
        {
            "buffer" : 0,
            "byteLength" : 2988,
            "byteOffset" : 17076
        },
        {
            "buffer" : 0,
            "byteLength" : 2988,
            "byteOffset" : 20064
        },
        {
            "buffer" : 0,
            "byteLength" : 1416,
            "byteOffset" : 23052
        }
    ],
    "buffers" : [
        {
            "byteLength" : 24468,
            "uri" : "data:application/octet-stream;base64,"
        }
    ]
}
