{
    "asset" : {
        "generator" : "Khronos glTF Blender I/O v1.6.16",
        "version" : "2.0"
    },
    "scene" : 0,
    "scenes" : [
        {
            "name" : "Scene",
            "nodes" : [
                0
            ]
        }
    ],
    "nodes" : [
        {
            "mesh" : 0,
            "name" : "Body_AR_3"
        }
    ],
    "materials" : [
        {
            "doubleSided" : true,
            "name" : "Black",
            "pbrMetallicRoughness" : {
                "baseColorFactor" : [
                    0.0290982685983181,
                    0.0290982685983181,
                    0.0290982685983181,
                    1
                ],
                "metallicFactor" : 0,
                "roughnessFactor" : 0.5
            }
        },
        {
            "doubleSided" : true,
            "name" : "Grey",
            "pbrMetallicRoughness" : {
                "baseColorFactor" : [
                    0.10247143357992172,
                    0.10247143357992172,
                    0.10247143357992172,
                    1
                ],
                "metallicFactor" : 0,
                "roughnessFactor" : 0.5
            }
        },
        {
            "doubleSided" : true,
            "name" : "White",
            "pbrMetallicRoughness" : {
                "baseColorFactor" : [
                    0.4575273394584656,
                    0.4575273394584656,
                    0.4575273394584656,
                    1
                ],
                "metallicFactor" : 0,
                "roughnessFactor" : 0.5
            }
        },
        {
            "doubleSided" : true,
            "name" : "Main",
            "pbrMetallicRoughness" : {
                "baseColorFactor" : [
                    0.6151726245880127,
                    0.21127153933048248,
                    0.028615577146410942,
                    1
                ],
                "metallicFactor" : 0,
                "roughnessFactor" : 0.5
            }
        }
    ],
    "meshes" : [
        {
            "name" : "Cube.015",
            "primitives" : [
                {
                    "attributes" : {
                        "POSITION" : 0,
                        "NORMAL" : 1
                    },
                    "indices" : 2,
                    "material" : 0
                },
                {
                    "attributes" : {
                        "POSITION" : 3,
                        "NORMAL" : 4
                    },
                    "indices" : 5,
                    "material" : 1
                },
                {
                    "attributes" : {
                        "POSITION" : 6,
                        "NORMAL" : 7
                    },
                    "indices" : 8,
                    "material" : 2
                },
                {
                    "attributes" : {
                        "POSITION" : 9,
                        "NORMAL" : 10
                    },
                    "indices" : 11,
                    "material" : 3
                }
            ]
        }
    ],
    "accessors" : [
        {
            "bufferView" : 0,
            "componentType" : 5126,
            "count" : 308,
            "max" : [
                0.5473518967628479,
                0.1702604442834854,
                0.06548228114843369
            ],
            "min" : [
                -0.5885762572288513,
                -0.15255293250083923,
                -0.06548220664262772
            ],
            "type" : "VEC3"
        },
        {
            "bufferView" : 1,
            "componentType" : 5126,
            "count" : 308,
            "type" : "VEC3"
        },
        {
            "bufferView" : 2,
            "componentType" : 5123,
            "count" : 918,
            "type" : "SCALAR"
        },
        {
            "bufferView" : 3,
            "componentType" : 5126,
            "count" : 36,
            "max" : [
                -0.08625560253858566,
                0.034117743372917175,
                0.04553888365626335
            ],
            "min" : [
                -0.4956367313861847,
                -0.06782067567110062,
                -0.04553880915045738
            ],
            "type" : "VEC3"
        },
        {
            "bufferView" : 4,
            "componentType" : 5126,
            "count" : 36,
            "type" : "VEC3"
        },
        {
            "bufferView" : 5,
            "componentType" : 5123,
            "count" : 84,
            "type" : "SCALAR"
        },
        {
            "bufferView" : 6,
            "componentType" : 5126,
            "count" : 263,
            "max" : [
                0.5474311113357544,
                0.19201576709747314,
                0.06548228114843369
            ],
            "min" : [
                -0.5885762572288513,
                -0.1456889808177948,
                -0.06548220664262772
            ],
            "type" : "VEC3"
        },
        {
            "bufferView" : 7,
            "componentType" : 5126,
            "count" : 263,
            "type" : "VEC3"
        },
        {
            "bufferView" : 8,
            "componentType" : 5123,
            "count" : 828,
            "type" : "SCALAR"
        },
        {
            "bufferView" : 9,
            "componentType" : 5126,
            "count" : 104,
            "max" : [
                -0.02673925645649433,
                -0.02124534733593464,
                0.056379470974206924
            ],
            "min" : [
                -0.42917338013648987,
                -0.1456889808177948,
                -0.05637938156723976
            ],
            "type" : "VEC3"
        },
        {
            "bufferView" : 10,
            "componentType" : 5126,
            "count" : 104,
            "type" : "VEC3"
        },
        {
            "bufferView" : 11,
            "componentType" : 5123,
            "count" : 288,
            "type" : "SCALAR"
        }
    ],
    "bufferViews" : [
        {
            "buffer" : 0,
            "byteLength" : 3696,
            "byteOffset" : 0
        },
        {
            "buffer" : 0,
            "byteLength" : 3696,
            "byteOffset" : 3696
        },
        {
            "buffer" : 0,
            "byteLength" : 1836,
            "byteOffset" : 7392
        },
        {
            "buffer" : 0,
            "byteLength" : 432,
            "byteOffset" : 9228
        },
        {
            "buffer" : 0,
            "byteLength" : 432,
            "byteOffset" : 9660
        },
        {
            "buffer" : 0,
            "byteLength" : 168,
            "byteOffset" : 10092
        },
        {
            "buffer" : 0,
            "byteLength" : 3156,
            "byteOffset" : 10260
        },
        {
            "buffer" : 0,
            "byteLength" : 3156,
            "byteOffset" : 13416
        },
        {
            "buffer" : 0,
            "byteLength" : 1656,
            "byteOffset" : 16572
        },
        {
            "buffer" : 0,
            "byteLength" : 1248,
            "byteOffset" : 18228
        },
        {
            "buffer" : 0,
            "byteLength" : 1248,
            "byteOffset" : 19476
        },
        {
            "buffer" : 0,
            "byteLength" : 576,
            "byteOffset" : 20724
        }
    ],
    "buffers" : [
        {
            "byteLength" : 21300,
            "uri" : "data:application/octet-stream;base64,"
        }
    ]
}
