{
    "asset" : {
        "generator" : "Khronos glTF Blender I/O v1.6.16",
        "version" : "2.0"
    },
    "scene" : 0,
    "scenes" : [
        {
            "name" : "Scene",
            "nodes" : [
                0
            ]
        }
    ],
    "nodes" : [
        {
            "mesh" : 0,
            "name" : "Body_Crossbow_1"
        }
    ],
    "materials" : [
        {
            "doubleSided" : true,
            "name" : "Black",
            "pbrMetallicRoughness" : {
                "baseColorFactor" : [
                    0.0290982685983181,
                    0.0290982685983181,
                    0.0290982685983181,
                    1
                ],
                "metallicFactor" : 0,
                "roughnessFactor" : 0.5
            }
        },
        {
            "doubleSided" : true,
            "name" : "Grey",
            "pbrMetallicRoughness" : {
                "baseColorFactor" : [
                    0.10247143357992172,
                    0.10247143357992172,
                    0.10247143357992172,
                    1
                ],
                "metallicFactor" : 0,
                "roughnessFactor" : 0.5
            }
        },
        {
            "doubleSided" : true,
            "name" : "White",
            "pbrMetallicRoughness" : {
                "baseColorFactor" : [
                    0.4575273394584656,
                    0.4575273394584656,
                    0.4575273394584656,
                    1
                ],
                "metallicFactor" : 0,
                "roughnessFactor" : 0.5
            }
        },
        {
            "doubleSided" : true,
            "name" : "Main",
            "pbrMetallicRoughness" : {
                "baseColorFactor" : [
                    0.6151726245880127,
                    0.21127153933048248,
                    0.028615577146410942,
                    1
                ],
                "metallicFactor" : 0,
                "roughnessFactor" : 0.5
            }
        }
    ],
    "meshes" : [
        {
            "name" : "Cube.029",
            "primitives" : [
                {
                    "attributes" : {
                        "POSITION" : 0,
                        "NORMAL" : 1
                    },
                    "indices" : 2,
                    "material" : 0
                },
                {
                    "attributes" : {
                        "POSITION" : 3,
                        "NORMAL" : 4
                    },
                    "indices" : 5,
                    "material" : 1
                },
                {
                    "attributes" : {
                        "POSITION" : 6,
                        "NORMAL" : 7
                    },
                    "indices" : 8,
                    "material" : 2
                },
                {
                    "attributes" : {
                        "POSITION" : 9,
                        "NORMAL" : 10
                    },
                    "indices" : 11,
                    "material" : 3
                }
            ]
        }
    ],
    "accessors" : [
        {
            "bufferView" : 0,
            "componentType" : 5126,
            "count" : 199,
            "max" : [
                0.6058103442192078,
                0.11959636211395264,
                0.6852103471755981
            ],
            "min" : [
                -0.325273334980011,
                -0.13744224607944489,
                -0.15393543243408203
            ],
            "type" : "VEC3"
        },
        {
            "bufferView" : 1,
            "componentType" : 5126,
            "count" : 199,
            "type" : "VEC3"
        },
        {
            "bufferView" : 2,
            "componentType" : 5123,
            "count" : 480,
            "type" : "SCALAR"
        },
        {
            "bufferView" : 3,
            "componentType" : 5126,
            "count" : 188,
            "max" : [
                0.544688880443573,
                0.06013140827417374,
                0.7226136326789856
            ],
            "min" : [
                -0.23954792320728302,
                -0.15430215001106262,
                -0.12518709897994995
            ],
            "type" : "VEC3"
        },
        {
            "bufferView" : 4,
            "componentType" : 5126,
            "count" : 188,
            "type" : "VEC3"
        },
        {
            "bufferView" : 5,
            "componentType" : 5123,
            "count" : 360,
            "type" : "SCALAR"
        },
        {
            "bufferView" : 6,
            "componentType" : 5126,
            "count" : 377,
            "max" : [
                0.6058833003044128,
                0.13966301083564758,
                0.7030895948410034
            ],
            "min" : [
                -0.325273334980011,
                -0.10487878322601318,
                -0.8118907809257507
            ],
            "type" : "VEC3"
        },
        {
            "bufferView" : 7,
            "componentType" : 5126,
            "count" : 377,
            "type" : "VEC3"
        },
        {
            "bufferView" : 8,
            "componentType" : 5123,
            "count" : 900,
            "type" : "SCALAR"
        },
        {
            "bufferView" : 9,
            "componentType" : 5126,
            "count" : 868,
            "max" : [
                0.5586228370666504,
                -0.007620853837579489,
                0.9057695865631104
            ],
            "min" : [
                -0.017684804275631905,
                -0.10876622051000595,
                -1.014570713043213
            ],
            "type" : "VEC3"
        },
        {
            "bufferView" : 10,
            "componentType" : 5126,
            "count" : 868,
            "type" : "VEC3"
        },
        {
            "bufferView" : 11,
            "componentType" : 5123,
            "count" : 1776,
            "type" : "SCALAR"
        }
    ],
    "bufferViews" : [
        {
            "buffer" : 0,
            "byteLength" : 2388,
            "byteOffset" : 0
        },
        {
            "buffer" : 0,
            "byteLength" : 2388,
            "byteOffset" : 2388
        },
        {
            "buffer" : 0,
            "byteLength" : 960,
            "byteOffset" : 4776
        },
        {
            "buffer" : 0,
            "byteLength" : 2256,
            "byteOffset" : 5736
        },
        {
            "buffer" : 0,
            "byteLength" : 2256,
            "byteOffset" : 7992
        },
        {
            "buffer" : 0,
            "byteLength" : 720,
            "byteOffset" : 10248
        },
        {
            "buffer" : 0,
            "byteLength" : 4524,
            "byteOffset" : 10968
        },
        {
            "buffer" : 0,
            "byteLength" : 4524,
            "byteOffset" : 15492
        },
        {
            "buffer" : 0,
            "byteLength" : 1800,
            "byteOffset" : 20016
        },
        {
            "buffer" : 0,
            "byteLength" : 10416,
            "byteOffset" : 21816
        },
        {
            "buffer" : 0,
            "byteLength" : 10416,
            "byteOffset" : 32232
        },
        {
            "buffer" : 0,
            "byteLength" : 3552,
            "byteOffset" : 42648
        }
    ],
    "buffers" : [
        {
            "byteLength" : 46200,
            "uri" : "data:application/octet-stream;base64,"
        }
    ]
}
