{
    "asset" : {
        "generator" : "Khronos glTF Blender I/O v1.6.16",
        "version" : "2.0"
    },
    "scene" : 0,
    "scenes" : [
        {
            "name" : "Scene",
            "nodes" : [
                0
            ]
        }
    ],
    "nodes" : [
        {
            "mesh" : 0,
            "name" : "Body_SMG_2"
        }
    ],
    "materials" : [
        {
            "doubleSided" : true,
            "name" : "Black",
            "pbrMetallicRoughness" : {
                "baseColorFactor" : [
                    0.0290982685983181,
                    0.0290982685983181,
                    0.0290982685983181,
                    1
                ],
                "metallicFactor" : 0,
                "roughnessFactor" : 0.5
            }
        },
        {
            "doubleSided" : true,
            "name" : "Grey",
            "pbrMetallicRoughness" : {
                "baseColorFactor" : [
                    0.10247143357992172,
                    0.10247143357992172,
                    0.10247143357992172,
                    1
                ],
                "metallicFactor" : 0,
                "roughnessFactor" : 0.5
            }
        },
        {
            "doubleSided" : true,
            "name" : "White",
            "pbrMetallicRoughness" : {
                "baseColorFactor" : [
                    0.4575273394584656,
                    0.4575273394584656,
                    0.4575273394584656,
                    1
                ],
                "metallicFactor" : 0,
                "roughnessFactor" : 0.5
            }
        },
        {
            "doubleSided" : true,
            "name" : "Main",
            "pbrMetallicRoughness" : {
                "baseColorFactor" : [
                    0.6151726245880127,
                    0.21127153933048248,
                    0.028615577146410942,
                    1
                ],
                "metallicFactor" : 0,
                "roughnessFactor" : 0.5
            }
        }
    ],
    "meshes" : [
        {
            "name" : "Cube.028",
            "primitives" : [
                {
                    "attributes" : {
                        "POSITION" : 0,
                        "NORMAL" : 1
                    },
                    "indices" : 2,
                    "material" : 0
                },
                {
                    "attributes" : {
                        "POSITION" : 3,
                        "NORMAL" : 4
                    },
                    "indices" : 5,
                    "material" : 1
                },
                {
                    "attributes" : {
                        "POSITION" : 6,
                        "NORMAL" : 7
                    },
                    "indices" : 8,
                    "material" : 2
                },
                {
                    "attributes" : {
                        "POSITION" : 9,
                        "NORMAL" : 10
                    },
                    "indices" : 11,
                    "material" : 3
                }
            ]
        }
    ],
    "accessors" : [
        {
            "bufferView" : 0,
            "componentType" : 5126,
            "count" : 546,
            "max" : [
                0.6767516136169434,
                0.1791844218969345,
                0.08083857595920563
            ],
            "min" : [
                -0.8213094472885132,
                -0.14441578090190887,
                -0.08082838356494904
            ],
            "type" : "VEC3"
        },
        {
            "bufferView" : 1,
            "componentType" : 5126,
            "count" : 546,
            "type" : "VEC3"
        },
        {
            "bufferView" : 2,
            "componentType" : 5123,
            "count" : 1578,
            "type" : "SCALAR"
        },
        {
            "bufferView" : 3,
            "componentType" : 5126,
            "count" : 16,
            "max" : [
                0.6326335072517395,
                0.11593504250049591,
                0.03259860724210739
            ],
            "min" : [
                0.6326335072517395,
                0.06047830358147621,
                -0.03198877349495888
            ],
            "type" : "VEC3"
        },
        {
            "bufferView" : 4,
            "componentType" : 5126,
            "count" : 16,
            "type" : "VEC3"
        },
        {
            "bufferView" : 5,
            "componentType" : 5123,
            "count" : 42,
            "type" : "SCALAR"
        },
        {
            "bufferView" : 6,
            "componentType" : 5126,
            "count" : 202,
            "max" : [
                0.5672298669815063,
                0.183236762881279,
                0.08799204230308533
            ],
            "min" : [
                -0.7166074514389038,
                -0.16013090312480927,
                -0.08798184990882874
            ],
            "type" : "VEC3"
        },
        {
            "bufferView" : 7,
            "componentType" : 5126,
            "count" : 202,
            "type" : "VEC3"
        },
        {
            "bufferView" : 8,
            "componentType" : 5123,
            "count" : 552,
            "type" : "SCALAR"
        },
        {
            "bufferView" : 9,
            "componentType" : 5126,
            "count" : 170,
            "max" : [
                0.6443284153938293,
                -0.015990227460861206,
                0.08487912267446518
            ],
            "min" : [
                -0.747892439365387,
                -0.17285478115081787,
                -0.08486893028020859
            ],
            "type" : "VEC3"
        },
        {
            "bufferView" : 10,
            "componentType" : 5126,
            "count" : 170,
            "type" : "VEC3"
        },
        {
            "bufferView" : 11,
            "componentType" : 5123,
            "count" : 420,
            "type" : "SCALAR"
        }
    ],
    "bufferViews" : [
        {
            "buffer" : 0,
            "byteLength" : 6552,
            "byteOffset" : 0
        },
        {
            "buffer" : 0,
            "byteLength" : 6552,
            "byteOffset" : 6552
        },
        {
            "buffer" : 0,
            "byteLength" : 3156,
            "byteOffset" : 13104
        },
        {
            "buffer" : 0,
            "byteLength" : 192,
            "byteOffset" : 16260
        },
        {
            "buffer" : 0,
            "byteLength" : 192,
            "byteOffset" : 16452
        },
        {
            "buffer" : 0,
            "byteLength" : 84,
            "byteOffset" : 16644
        },
        {
            "buffer" : 0,
            "byteLength" : 2424,
            "byteOffset" : 16728
        },
        {
            "buffer" : 0,
            "byteLength" : 2424,
            "byteOffset" : 19152
        },
        {
            "buffer" : 0,
            "byteLength" : 1104,
            "byteOffset" : 21576
        },
        {
            "buffer" : 0,
            "byteLength" : 2040,
            "byteOffset" : 22680
        },
        {
            "buffer" : 0,
            "byteLength" : 2040,
            "byteOffset" : 24720
        },
        {
            "buffer" : 0,
            "byteLength" : 840,
            "byteOffset" : 26760
        }
    ],
    "buffers" : [
        {
            "byteLength" : 27600,
            "uri" : "data:application/octet-stream;base64,"
        }
    ]
}
