{
    "asset" : {
        "generator" : "Khronos glTF Blender I/O v1.6.16",
        "version" : "2.0"
    },
    "scene" : 0,
    "scenes" : [
        {
            "name" : "Scene",
            "nodes" : [
                0
            ]
        }
    ],
    "nodes" : [
        {
            "mesh" : 0,
            "name" : "Grip_Grenade_3"
        }
    ],
    "materials" : [
        {
            "doubleSided" : true,
            "name" : "Black",
            "pbrMetallicRoughness" : {
                "baseColorFactor" : [
                    0.0290982685983181,
                    0.0290982685983181,
                    0.0290982685983181,
                    1
                ],
                "metallicFactor" : 0,
                "roughnessFactor" : 0.5
            }
        },
        {
            "doubleSided" : true,
            "name" : "Grey",
            "pbrMetallicRoughness" : {
                "baseColorFactor" : [
                    0.10247143357992172,
                    0.10247143357992172,
                    0.10247143357992172,
                    1
                ],
                "metallicFactor" : 0,
                "roughnessFactor" : 0.5
            }
        }
    ],
    "meshes" : [
        {
            "name" : "Cube.043",
            "primitives" : [
                {
                    "attributes" : {
                        "POSITION" : 0,
                        "NORMAL" : 1
                    },
                    "indices" : 2,
                    "material" : 0
                },
                {
                    "attributes" : {
                        "POSITION" : 3,
                        "NORMAL" : 4
                    },
                    "indices" : 5,
                    "material" : 1
                }
            ]
        }
    ],
    "accessors" : [
        {
            "bufferView" : 0,
            "componentType" : 5126,
            "count" : 1013,
            "max" : [
                0.34598326683044434,
                0.2346041351556778,
                0.03424707427620888
            ],
            "min" : [
                -0.8864539861679077,
                -0.07965512573719025,
                -0.03424707055091858
            ],
            "type" : "VEC3"
        },
        {
            "bufferView" : 1,
            "componentType" : 5126,
            "count" : 1013,
            "type" : "VEC3"
        },
        {
            "bufferView" : 2,
            "componentType" : 5123,
            "count" : 4356,
            "type" : "SCALAR"
        },
        {
            "bufferView" : 3,
            "componentType" : 5126,
            "count" : 152,
            "max" : [
                0.12178518623113632,
                0.19890627264976501,
                0.03656250610947609
            ],
            "min" : [
                -0.9194591045379639,
                -0.04806819558143616,
                -0.036562517285346985
            ],
            "type" : "VEC3"
        },
        {
            "bufferView" : 4,
            "componentType" : 5126,
            "count" : 152,
            "type" : "VEC3"
        },
        {
            "bufferView" : 5,
            "componentType" : 5123,
            "count" : 396,
            "type" : "SCALAR"
        }
    ],
    "bufferViews" : [
        {
            "buffer" : 0,
            "byteLength" : 12156,
            "byteOffset" : 0
        },
        {
            "buffer" : 0,
            "byteLength" : 12156,
            "byteOffset" : 12156
        },
        {
            "buffer" : 0,
            "byteLength" : 8712,
            "byteOffset" : 24312
        },
        {
            "buffer" : 0,
            "byteLength" : 1824,
            "byteOffset" : 33024
        },
        {
            "buffer" : 0,
            "byteLength" : 1824,
            "byteOffset" : 34848
        },
        {
            "buffer" : 0,
            "byteLength" : 792,
            "byteOffset" : 36672
        }
    ],
    "buffers" : [
        {
            "byteLength" : 37464,
            "uri" : "data:application/octet-stream;base64,"
        }
    ]
}
