{
    "asset" : {
        "generator" : "Khronos glTF Blender I/O v1.6.16",
        "version" : "2.0"
    },
    "scene" : 0,
    "scenes" : [
        {
            "name" : "Scene",
            "nodes" : [
                0
            ]
        }
    ],
    "nodes" : [
        {
            "mesh" : 0,
            "name" : "Grip_Sniper_1"
        }
    ],
    "materials" : [
        {
            "doubleSided" : true,
            "name" : "Black",
            "pbrMetallicRoughness" : {
                "baseColorFactor" : [
                    0.0290982685983181,
                    0.0290982685983181,
                    0.0290982685983181,
                    1
                ],
                "metallicFactor" : 0,
                "roughnessFactor" : 0.5
            }
        },
        {
            "doubleSided" : true,
            "name" : "Grey",
            "pbrMetallicRoughness" : {
                "baseColorFactor" : [
                    0.10247143357992172,
                    0.10247143357992172,
                    0.10247143357992172,
                    1
                ],
                "metallicFactor" : 0,
                "roughnessFactor" : 0.5
            }
        }
    ],
    "meshes" : [
        {
            "name" : "Cube.247",
            "primitives" : [
                {
                    "attributes" : {
                        "POSITION" : 0,
                        "NORMAL" : 1
                    },
                    "indices" : 2,
                    "material" : 0
                },
                {
                    "attributes" : {
                        "POSITION" : 3,
                        "NORMAL" : 4
                    },
                    "indices" : 5,
                    "material" : 1
                }
            ]
        }
    ],
    "accessors" : [
        {
            "bufferView" : 0,
            "componentType" : 5126,
            "count" : 1133,
            "max" : [
                0.2946254312992096,
                0.12706489861011505,
                0.02256402187049389
            ],
            "min" : [
                -0.3233528435230255,
                -0.06037071719765663,
                -0.02256401814520359
            ],
            "type" : "VEC3"
        },
        {
            "bufferView" : 1,
            "componentType" : 5126,
            "count" : 1133,
            "type" : "VEC3"
        },
        {
            "bufferView" : 2,
            "componentType" : 5123,
            "count" : 5028,
            "type" : "SCALAR"
        },
        {
            "bufferView" : 3,
            "componentType" : 5126,
            "count" : 72,
            "max" : [
                0.06586102396249771,
                0.07897251099348068,
                0.010812368243932724
            ],
            "min" : [
                0.033016156405210495,
                0.026411009952425957,
                -0.01081225834786892
            ],
            "type" : "VEC3"
        },
        {
            "bufferView" : 4,
            "componentType" : 5126,
            "count" : 72,
            "type" : "VEC3"
        },
        {
            "bufferView" : 5,
            "componentType" : 5123,
            "count" : 204,
            "type" : "SCALAR"
        }
    ],
    "bufferViews" : [
        {
            "buffer" : 0,
            "byteLength" : 13596,
            "byteOffset" : 0
        },
        {
            "buffer" : 0,
            "byteLength" : 13596,
            "byteOffset" : 13596
        },
        {
            "buffer" : 0,
            "byteLength" : 10056,
            "byteOffset" : 27192
        },
        {
            "buffer" : 0,
            "byteLength" : 864,
            "byteOffset" : 37248
        },
        {
            "buffer" : 0,
            "byteLength" : 864,
            "byteOffset" : 38112
        },
        {
            "buffer" : 0,
            "byteLength" : 408,
            "byteOffset" : 38976
        }
    ],
    "buffers" : [
        {
            "byteLength" : 39384,
            "uri" : "data:application/octet-stream;base64,"
        }
    ]
}
