{
    "asset" : {
        "generator" : "Khronos glTF Blender I/O v1.6.16",
        "version" : "2.0"
    },
    "scene" : 0,
    "scenes" : [
        {
            "name" : "Scene",
            "nodes" : [
                0
            ]
        }
    ],
    "nodes" : [
        {
            "mesh" : 0,
            "name" : "Grip_Pistol_1"
        }
    ],
    "materials" : [
        {
            "doubleSided" : true,
            "name" : "Black",
            "pbrMetallicRoughness" : {
                "baseColorFactor" : [
                    0.0290982685983181,
                    0.0290982685983181,
                    0.0290982685983181,
                    1
                ],
                "metallicFactor" : 0,
                "roughnessFactor" : 0.5
            }
        },
        {
            "doubleSided" : true,
            "name" : "Grey",
            "pbrMetallicRoughness" : {
                "baseColorFactor" : [
                    0.10247143357992172,
                    0.10247143357992172,
                    0.10247143357992172,
                    1
                ],
                "metallicFactor" : 0,
                "roughnessFactor" : 0.5
            }
        },
        {
            "doubleSided" : true,
            "name" : "White",
            "pbrMetallicRoughness" : {
                "baseColorFactor" : [
                    0.4575273394584656,
                    0.4575273394584656,
                    0.4575273394584656,
                    1
                ],
                "metallicFactor" : 0,
                "roughnessFactor" : 0.5
            }
        }
    ],
    "meshes" : [
        {
            "name" : "Cube.226",
            "primitives" : [
                {
                    "attributes" : {
                        "POSITION" : 0,
                        "NORMAL" : 1
                    },
                    "indices" : 2,
                    "material" : 0
                },
                {
                    "attributes" : {
                        "POSITION" : 3,
                        "NORMAL" : 4
                    },
                    "indices" : 5,
                    "material" : 1
                },
                {
                    "attributes" : {
                        "POSITION" : 6,
                        "NORMAL" : 7
                    },
                    "indices" : 8,
                    "material" : 2
                }
            ]
        }
    ],
    "accessors" : [
        {
            "bufferView" : 0,
            "componentType" : 5126,
            "count" : 287,
            "max" : [
                0.4664932191371918,
                0.20147769153118134,
                0.04017845168709755
            ],
            "min" : [
                -0.18639399111270905,
                -0.14269854128360748,
                -0.04017867520451546
            ],
            "type" : "VEC3"
        },
        {
            "bufferView" : 1,
            "componentType" : 5126,
            "count" : 287,
            "type" : "VEC3"
        },
        {
            "bufferView" : 2,
            "componentType" : 5123,
            "count" : 1050,
            "type" : "SCALAR"
        },
        {
            "bufferView" : 3,
            "componentType" : 5126,
            "count" : 528,
            "max" : [
                0.10939653217792511,
                0.13694673776626587,
                0.04871993511915207
            ],
            "min" : [
                -0.1888427734375,
                -0.15639013051986694,
                -0.04871988669037819
            ],
            "type" : "VEC3"
        },
        {
            "bufferView" : 4,
            "componentType" : 5126,
            "count" : 528,
            "type" : "VEC3"
        },
        {
            "bufferView" : 5,
            "componentType" : 5123,
            "count" : 1860,
            "type" : "SCALAR"
        },
        {
            "bufferView" : 6,
            "componentType" : 5126,
            "count" : 50,
            "max" : [
                0.4664932191371918,
                0.15652339160442352,
                0.03767235204577446
            ],
            "min" : [
                0.22857312858104706,
                0.06108158454298973,
                -0.037672244012355804
            ],
            "type" : "VEC3"
        },
        {
            "bufferView" : 7,
            "componentType" : 5126,
            "count" : 50,
            "type" : "VEC3"
        },
        {
            "bufferView" : 8,
            "componentType" : 5123,
            "count" : 132,
            "type" : "SCALAR"
        }
    ],
    "bufferViews" : [
        {
            "buffer" : 0,
            "byteLength" : 3444,
            "byteOffset" : 0
        },
        {
            "buffer" : 0,
            "byteLength" : 3444,
            "byteOffset" : 3444
        },
        {
            "buffer" : 0,
            "byteLength" : 2100,
            "byteOffset" : 6888
        },
        {
            "buffer" : 0,
            "byteLength" : 6336,
            "byteOffset" : 8988
        },
        {
            "buffer" : 0,
            "byteLength" : 6336,
            "byteOffset" : 15324
        },
        {
            "buffer" : 0,
            "byteLength" : 3720,
            "byteOffset" : 21660
        },
        {
            "buffer" : 0,
            "byteLength" : 600,
            "byteOffset" : 25380
        },
        {
            "buffer" : 0,
            "byteLength" : 600,
            "byteOffset" : 25980
        },
        {
            "buffer" : 0,
            "byteLength" : 264,
            "byteOffset" : 26580
        }
    ],
    "buffers" : [
        {
            "byteLength" : 26844,
            "uri" : "data:application/octet-stream;base64,"
        }
    ]
}
