{
    "asset" : {
        "generator" : "Khronos glTF Blender I/O v1.6.16",
        "version" : "2.0"
    },
    "scene" : 0,
    "scenes" : [
        {
            "name" : "Scene",
            "nodes" : [
                0
            ]
        }
    ],
    "nodes" : [
        {
            "mesh" : 0,
            "name" : "Grip_AR_6"
        }
    ],
    "materials" : [
        {
            "doubleSided" : true,
            "name" : "Black",
            "pbrMetallicRoughness" : {
                "baseColorFactor" : [
                    0.0290982685983181,
                    0.0290982685983181,
                    0.0290982685983181,
                    1
                ],
                "metallicFactor" : 0,
                "roughnessFactor" : 0.5
            }
        },
        {
            "doubleSided" : true,
            "name" : "Grey",
            "pbrMetallicRoughness" : {
                "baseColorFactor" : [
                    0.10247143357992172,
                    0.10247143357992172,
                    0.10247143357992172,
                    1
                ],
                "metallicFactor" : 0,
                "roughnessFactor" : 0.5
            }
        },
        {
            "doubleSided" : true,
            "name" : "White",
            "pbrMetallicRoughness" : {
                "baseColorFactor" : [
                    0.4575273394584656,
                    0.4575273394584656,
                    0.4575273394584656,
                    1
                ],
                "metallicFactor" : 0,
                "roughnessFactor" : 0.5
            }
        },
        {
            "doubleSided" : true,
            "name" : "Main",
            "pbrMetallicRoughness" : {
                "baseColorFactor" : [
                    0.6151726245880127,
                    0.21127153933048248,
                    0.028615577146410942,
                    1
                ],
                "metallicFactor" : 0,
                "roughnessFactor" : 0.5
            }
        }
    ],
    "meshes" : [
        {
            "name" : "Cube.032",
            "primitives" : [
                {
                    "attributes" : {
                        "POSITION" : 0,
                        "NORMAL" : 1
                    },
                    "indices" : 2,
                    "material" : 0
                },
                {
                    "attributes" : {
                        "POSITION" : 3,
                        "NORMAL" : 4
                    },
                    "indices" : 5,
                    "material" : 1
                },
                {
                    "attributes" : {
                        "POSITION" : 6,
                        "NORMAL" : 7
                    },
                    "indices" : 8,
                    "material" : 2
                },
                {
                    "attributes" : {
                        "POSITION" : 9,
                        "NORMAL" : 10
                    },
                    "indices" : 11,
                    "material" : 3
                }
            ]
        }
    ],
    "accessors" : [
        {
            "bufferView" : 0,
            "componentType" : 5126,
            "count" : 1543,
            "max" : [
                0.569688081741333,
                0.1921190619468689,
                0.04155946522951126
            ],
            "min" : [
                -0.5657153129577637,
                -0.15225404500961304,
                -0.041353706270456314
            ],
            "type" : "VEC3"
        },
        {
            "bufferView" : 1,
            "componentType" : 5126,
            "count" : 1543,
            "type" : "VEC3"
        },
        {
            "bufferView" : 2,
            "componentType" : 5123,
            "count" : 7131,
            "type" : "SCALAR"
        },
        {
            "bufferView" : 3,
            "componentType" : 5126,
            "count" : 72,
            "max" : [
                0.1738225221633911,
                0.1084703654050827,
                0.013695275411009789
            ],
            "min" : [
                0.11859240382909775,
                0.0006323564448393881,
                -0.01348940096795559
            ],
            "type" : "VEC3"
        },
        {
            "bufferView" : 4,
            "componentType" : 5126,
            "count" : 72,
            "type" : "VEC3"
        },
        {
            "bufferView" : 5,
            "componentType" : 5123,
            "count" : 204,
            "type" : "SCALAR"
        },
        {
            "bufferView" : 6,
            "componentType" : 5126,
            "count" : 38,
            "max" : [
                0.4827856421470642,
                0.0013638811651617289,
                0.03616240248084068
            ],
            "min" : [
                0.1077655777335167,
                -0.06682047992944717,
                -0.03595704212784767
            ],
            "type" : "VEC3"
        },
        {
            "bufferView" : 7,
            "componentType" : 5126,
            "count" : 38,
            "type" : "VEC3"
        },
        {
            "bufferView" : 8,
            "componentType" : 5123,
            "count" : 102,
            "type" : "SCALAR"
        },
        {
            "bufferView" : 9,
            "componentType" : 5126,
            "count" : 53,
            "max" : [
                0.5228120684623718,
                0.0013638811651617289,
                0.03616240248084068
            ],
            "min" : [
                0.4269450902938843,
                -0.06682047992944717,
                -0.03595704212784767
            ],
            "type" : "VEC3"
        },
        {
            "bufferView" : 10,
            "componentType" : 5126,
            "count" : 53,
            "type" : "VEC3"
        },
        {
            "bufferView" : 11,
            "componentType" : 5123,
            "count" : 174,
            "type" : "SCALAR"
        }
    ],
    "bufferViews" : [
        {
            "buffer" : 0,
            "byteLength" : 18516,
            "byteOffset" : 0
        },
        {
            "buffer" : 0,
            "byteLength" : 18516,
            "byteOffset" : 18516
        },
        {
            "buffer" : 0,
            "byteLength" : 14262,
            "byteOffset" : 37032
        },
        {
            "buffer" : 0,
            "byteLength" : 864,
            "byteOffset" : 51296
        },
        {
            "buffer" : 0,
            "byteLength" : 864,
            "byteOffset" : 52160
        },
        {
            "buffer" : 0,
            "byteLength" : 408,
            "byteOffset" : 53024
        },
        {
            "buffer" : 0,
            "byteLength" : 456,
            "byteOffset" : 53432
        },
        {
            "buffer" : 0,
            "byteLength" : 456,
            "byteOffset" : 53888
        },
        {
            "buffer" : 0,
            "byteLength" : 204,
            "byteOffset" : 54344
        },
        {
            "buffer" : 0,
            "byteLength" : 636,
            "byteOffset" : 54548
        },
        {
            "buffer" : 0,
            "byteLength" : 636,
            "byteOffset" : 55184
        },
        {
            "buffer" : 0,
            "byteLength" : 348,
            "byteOffset" : 55820
        }
    ],
    "buffers" : [
        {
            "byteLength" : 56168,
            "uri" : "data:application/octet-stream;base64,"
        }
    ]
}
