{
    "asset" : {
        "generator" : "Khronos glTF Blender I/O v1.6.16",
        "version" : "2.0"
    },
    "scene" : 0,
    "scenes" : [
        {
            "name" : "Scene",
            "nodes" : [
                0
            ]
        }
    ],
    "nodes" : [
        {
            "mesh" : 0,
            "name" : "Magazine_Sniper_1"
        }
    ],
    "materials" : [
        {
            "doubleSided" : true,
            "name" : "Black",
            "pbrMetallicRoughness" : {
                "baseColorFactor" : [
                    0.0290982685983181,
                    0.0290982685983181,
                    0.0290982685983181,
                    1
                ],
                "metallicFactor" : 0,
                "roughnessFactor" : 0.5
            }
        }
    ],
    "meshes" : [
        {
            "name" : "Cube.248",
            "primitives" : [
                {
                    "attributes" : {
                        "POSITION" : 0,
                        "NORMAL" : 1
                    },
                    "indices" : 2,
                    "material" : 0
                }
            ]
        }
    ],
    "accessors" : [
        {
            "bufferView" : 0,
            "componentType" : 5126,
            "count" : 232,
            "max" : [
                0.1116071417927742,
                4.535385471626796e-07,
                0.01979335956275463
            ],
            "min" : [
                -0.06333997845649719,
                -0.22526459395885468,
                -0.019765704870224
            ],
            "type" : "VEC3"
        },
        {
            "bufferView" : 1,
            "componentType" : 5126,
            "count" : 232,
            "type" : "VEC3"
        },
        {
            "bufferView" : 2,
            "componentType" : 5123,
            "count" : 696,
            "type" : "SCALAR"
        }
    ],
    "bufferViews" : [
        {
            "buffer" : 0,
            "byteLength" : 2784,
            "byteOffset" : 0
        },
        {
            "buffer" : 0,
            "byteLength" : 2784,
            "byteOffset" : 2784
        },
        {
            "buffer" : 0,
            "byteLength" : 1392,
            "byteOffset" : 5568
        }
    ],
    "buffers" : [
        {
            "byteLength" : 6960,
            "uri" : "data:application/octet-stream;base64,"
        }
    ]
}
