{
    "asset" : {
        "generator" : "Khronos glTF Blender I/O v1.6.16",
        "version" : "2.0"
    },
    "scene" : 0,
    "scenes" : [
        {
            "name" : "Scene",
            "nodes" : [
                0
            ]
        }
    ],
    "nodes" : [
        {
            "mesh" : 0,
            "name" : "Scope_1"
        }
    ],
    "materials" : [
        {
            "doubleSided" : true,
            "name" : "White",
            "pbrMetallicRoughness" : {
                "baseColorFactor" : [
                    0.4575273394584656,
                    0.4575273394584656,
                    0.4575273394584656,
                    1
                ],
                "metallicFactor" : 0,
                "roughnessFactor" : 0.5
            }
        },
        {
            "doubleSided" : true,
            "name" : "Glass",
            "pbrMetallicRoughness" : {
                "baseColorFactor" : [
                    0.32976090908050537,
                    0.4834268093109131,
                    0.5277140140533447,
                    1
                ],
                "metallicFactor" : 0,
                "roughnessFactor" : 0.5
            }
        },
        {
            "doubleSided" : true,
            "name" : "Main",
            "pbrMetallicRoughness" : {
                "baseColorFactor" : [
                    0.6151726245880127,
                    0.21127153933048248,
                    0.028615577146410942,
                    1
                ],
                "metallicFactor" : 0,
                "roughnessFactor" : 0.5
            }
        },
        {
            "doubleSided" : true,
            "name" : "Grey",
            "pbrMetallicRoughness" : {
                "baseColorFactor" : [
                    0.10247143357992172,
                    0.10247143357992172,
                    0.10247143357992172,
                    1
                ],
                "metallicFactor" : 0,
                "roughnessFactor" : 0.5
            }
        }
    ],
    "meshes" : [
        {
            "name" : "Cylinder.018",
            "primitives" : [
                {
                    "attributes" : {
                        "POSITION" : 0,
                        "NORMAL" : 1
                    },
                    "indices" : 2,
                    "material" : 0
                },
                {
                    "attributes" : {
                        "POSITION" : 3,
                        "NORMAL" : 4
                    },
                    "indices" : 5,
                    "material" : 1
                },
                {
                    "attributes" : {
                        "POSITION" : 6,
                        "NORMAL" : 7
                    },
                    "indices" : 8,
                    "material" : 2
                },
                {
                    "attributes" : {
                        "POSITION" : 9,
                        "NORMAL" : 10
                    },
                    "indices" : 11,
                    "material" : 3
                }
            ]
        }
    ],
    "accessors" : [
        {
            "bufferView" : 0,
            "componentType" : 5126,
            "count" : 257,
            "max" : [
                0.20613771677017212,
                0.15442053973674774,
                0.06168175861239433
            ],
            "min" : [
                -0.23034211993217468,
                1.1312560843634856e-07,
                -0.06187816336750984
            ],
            "type" : "VEC3"
        },
        {
            "bufferView" : 1,
            "componentType" : 5126,
            "count" : 257,
            "type" : "VEC3"
        },
        {
            "bufferView" : 2,
            "componentType" : 5123,
            "count" : 750,
            "type" : "SCALAR"
        },
        {
            "bufferView" : 3,
            "componentType" : 5126,
            "count" : 128,
            "max" : [
                0.2081736922264099,
                0.1432439684867859,
                0.05050520971417427
            ],
            "min" : [
                -0.25486037135124207,
                0.04203714802861214,
                -0.05070161446928978
            ],
            "type" : "VEC3"
        },
        {
            "bufferView" : 4,
            "componentType" : 5126,
            "count" : 128,
            "type" : "VEC3"
        },
        {
            "bufferView" : 5,
            "componentType" : 5123,
            "count" : 360,
            "type" : "SCALAR"
        },
        {
            "bufferView" : 6,
            "componentType" : 5126,
            "count" : 320,
            "max" : [
                0.2253195196390152,
                0.1497706174850464,
                0.05703182518482208
            ],
            "min" : [
                -0.28501853346824646,
                0.03551056981086731,
                -0.057228218764066696
            ],
            "type" : "VEC3"
        },
        {
            "bufferView" : 7,
            "componentType" : 5126,
            "count" : 320,
            "type" : "VEC3"
        },
        {
            "bufferView" : 8,
            "componentType" : 5123,
            "count" : 1050,
            "type" : "SCALAR"
        },
        {
            "bufferView" : 9,
            "componentType" : 5126,
            "count" : 122,
            "max" : [
                0.11013328284025192,
                0.14612993597984314,
                0.053391166031360626
            ],
            "min" : [
                -0.2675597071647644,
                0.02200292982161045,
                -0.05358758568763733
            ],
            "type" : "VEC3"
        },
        {
            "bufferView" : 10,
            "componentType" : 5126,
            "count" : 122,
            "type" : "VEC3"
        },
        {
            "bufferView" : 11,
            "componentType" : 5123,
            "count" : 372,
            "type" : "SCALAR"
        }
    ],
    "bufferViews" : [
        {
            "buffer" : 0,
            "byteLength" : 3084,
            "byteOffset" : 0
        },
        {
            "buffer" : 0,
            "byteLength" : 3084,
            "byteOffset" : 3084
        },
        {
            "buffer" : 0,
            "byteLength" : 1500,
            "byteOffset" : 6168
        },
        {
            "buffer" : 0,
            "byteLength" : 1536,
            "byteOffset" : 7668
        },
        {
            "buffer" : 0,
            "byteLength" : 1536,
            "byteOffset" : 9204
        },
        {
            "buffer" : 0,
            "byteLength" : 720,
            "byteOffset" : 10740
        },
        {
            "buffer" : 0,
            "byteLength" : 3840,
            "byteOffset" : 11460
        },
        {
            "buffer" : 0,
            "byteLength" : 3840,
            "byteOffset" : 15300
        },
        {
            "buffer" : 0,
            "byteLength" : 2100,
            "byteOffset" : 19140
        },
        {
            "buffer" : 0,
            "byteLength" : 1464,
            "byteOffset" : 21240
        },
        {
            "buffer" : 0,
            "byteLength" : 1464,
            "byteOffset" : 22704
        },
        {
            "buffer" : 0,
            "byteLength" : 744,
            "byteOffset" : 24168
        }
    ],
    "buffers" : [
        {
            "byteLength" : 24912,
            "uri" : "data:application/octet-stream;base64,"
        }
    ]
}
