{
    "asset" : {
        "generator" : "Khronos glTF Blender I/O v1.6.16",
        "version" : "2.0"
    },
    "scene" : 0,
    "scenes" : [
        {
            "name" : "Scene",
            "nodes" : [
                0
            ]
        }
    ],
    "nodes" : [
        {
            "mesh" : 0,
            "name" : "Scope_2"
        }
    ],
    "materials" : [
        {
            "doubleSided" : true,
            "name" : "White",
            "pbrMetallicRoughness" : {
                "baseColorFactor" : [
                    0.4575273394584656,
                    0.4575273394584656,
                    0.4575273394584656,
                    1
                ],
                "metallicFactor" : 0,
                "roughnessFactor" : 0.5
            }
        },
        {
            "doubleSided" : true,
            "name" : "Glass",
            "pbrMetallicRoughness" : {
                "baseColorFactor" : [
                    0.32976090908050537,
                    0.4834268093109131,
                    0.5277140140533447,
                    1
                ],
                "metallicFactor" : 0,
                "roughnessFactor" : 0.5
            }
        },
        {
            "doubleSided" : true,
            "name" : "Main",
            "pbrMetallicRoughness" : {
                "baseColorFactor" : [
                    0.6151726245880127,
                    0.21127153933048248,
                    0.028615577146410942,
                    1
                ],
                "metallicFactor" : 0,
                "roughnessFactor" : 0.5
            }
        },
        {
            "doubleSided" : true,
            "name" : "Grey",
            "pbrMetallicRoughness" : {
                "baseColorFactor" : [
                    0.10247143357992172,
                    0.10247143357992172,
                    0.10247143357992172,
                    1
                ],
                "metallicFactor" : 0,
                "roughnessFactor" : 0.5
            }
        }
    ],
    "meshes" : [
        {
            "name" : "Cylinder.020",
            "primitives" : [
                {
                    "attributes" : {
                        "POSITION" : 0,
                        "NORMAL" : 1
                    },
                    "indices" : 2,
                    "material" : 0
                },
                {
                    "attributes" : {
                        "POSITION" : 3,
                        "NORMAL" : 4
                    },
                    "indices" : 5,
                    "material" : 1
                },
                {
                    "attributes" : {
                        "POSITION" : 6,
                        "NORMAL" : 7
                    },
                    "indices" : 8,
                    "material" : 2
                },
                {
                    "attributes" : {
                        "POSITION" : 9,
                        "NORMAL" : 10
                    },
                    "indices" : 11,
                    "material" : 3
                }
            ]
        }
    ],
    "accessors" : [
        {
            "bufferView" : 0,
            "componentType" : 5126,
            "count" : 257,
            "max" : [
                0.31145229935646057,
                0.1544201672077179,
                0.06168175861239433
            ],
            "min" : [
                -0.3356570601463318,
                -2.546018720295251e-07,
                -0.06187817081809044
            ],
            "type" : "VEC3"
        },
        {
            "bufferView" : 1,
            "componentType" : 5126,
            "count" : 257,
            "type" : "VEC3"
        },
        {
            "bufferView" : 2,
            "componentType" : 5123,
            "count" : 846,
            "type" : "SCALAR"
        },
        {
            "bufferView" : 3,
            "componentType" : 5126,
            "count" : 128,
            "max" : [
                0.313488245010376,
                0.14324361085891724,
                0.05050520971417427
            ],
            "min" : [
                -0.36017531156539917,
                0.04203678295016289,
                -0.050701625645160675
            ],
            "type" : "VEC3"
        },
        {
            "bufferView" : 4,
            "componentType" : 5126,
            "count" : 128,
            "type" : "VEC3"
        },
        {
            "bufferView" : 5,
            "componentType" : 5123,
            "count" : 360,
            "type" : "SCALAR"
        },
        {
            "bufferView" : 6,
            "componentType" : 5126,
            "count" : 392,
            "max" : [
                0.33063405752182007,
                0.14977024495601654,
                0.057031817734241486
            ],
            "min" : [
                -0.3903334438800812,
                0.03551020100712776,
                -0.057228222489356995
            ],
            "type" : "VEC3"
        },
        {
            "bufferView" : 7,
            "componentType" : 5126,
            "count" : 392,
            "type" : "VEC3"
        },
        {
            "bufferView" : 8,
            "componentType" : 5123,
            "count" : 1338,
            "type" : "SCALAR"
        },
        {
            "bufferView" : 9,
            "componentType" : 5126,
            "count" : 122,
            "max" : [
                0.21544784307479858,
                0.1461295783519745,
                0.053391166031360626
            ],
            "min" : [
                -0.3728746175765991,
                0.0220025647431612,
                -0.05358758568763733
            ],
            "type" : "VEC3"
        },
        {
            "bufferView" : 10,
            "componentType" : 5126,
            "count" : 122,
            "type" : "VEC3"
        },
        {
            "bufferView" : 11,
            "componentType" : 5123,
            "count" : 372,
            "type" : "SCALAR"
        }
    ],
    "bufferViews" : [
        {
            "buffer" : 0,
            "byteLength" : 3084,
            "byteOffset" : 0
        },
        {
            "buffer" : 0,
            "byteLength" : 3084,
            "byteOffset" : 3084
        },
        {
            "buffer" : 0,
            "byteLength" : 1692,
            "byteOffset" : 6168
        },
        {
            "buffer" : 0,
            "byteLength" : 1536,
            "byteOffset" : 7860
        },
        {
            "buffer" : 0,
            "byteLength" : 1536,
            "byteOffset" : 9396
        },
        {
            "buffer" : 0,
            "byteLength" : 720,
            "byteOffset" : 10932
        },
        {
            "buffer" : 0,
            "byteLength" : 4704,
            "byteOffset" : 11652
        },
        {
            "buffer" : 0,
            "byteLength" : 4704,
            "byteOffset" : 16356
        },
        {
            "buffer" : 0,
            "byteLength" : 2676,
            "byteOffset" : 21060
        },
        {
            "buffer" : 0,
            "byteLength" : 1464,
            "byteOffset" : 23736
        },
        {
            "buffer" : 0,
            "byteLength" : 1464,
            "byteOffset" : 25200
        },
        {
            "buffer" : 0,
            "byteLength" : 744,
            "byteOffset" : 26664
        }
    ],
    "buffers" : [
        {
            "byteLength" : 27408,
            "uri" : "data:application/octet-stream;base64,"
        }
    ]
}
