{
    "asset" : {
        "generator" : "Khronos glTF Blender I/O v1.6.16",
        "version" : "2.0"
    },
    "scene" : 0,
    "scenes" : [
        {
            "name" : "Scene",
            "nodes" : [
                0
            ]
        }
    ],
    "nodes" : [
        {
            "mesh" : 0,
            "name" : "Stock_Grenade_2"
        }
    ],
    "materials" : [
        {
            "doubleSided" : true,
            "name" : "Black",
            "pbrMetallicRoughness" : {
                "baseColorFactor" : [
                    0.0290982685983181,
                    0.0290982685983181,
                    0.0290982685983181,
                    1
                ],
                "metallicFactor" : 0,
                "roughnessFactor" : 0.5
            }
        },
        {
            "doubleSided" : true,
            "name" : "White",
            "pbrMetallicRoughness" : {
                "baseColorFactor" : [
                    0.4575273394584656,
                    0.4575273394584656,
                    0.4575273394584656,
                    1
                ],
                "metallicFactor" : 0,
                "roughnessFactor" : 0.5
            }
        }
    ],
    "meshes" : [
        {
            "name" : "Cube.009",
            "primitives" : [
                {
                    "attributes" : {
                        "POSITION" : 0,
                        "NORMAL" : 1
                    },
                    "indices" : 2,
                    "material" : 0
                },
                {
                    "attributes" : {
                        "POSITION" : 3,
                        "NORMAL" : 4
                    },
                    "indices" : 5,
                    "material" : 1
                }
            ]
        }
    ],
    "accessors" : [
        {
            "bufferView" : 0,
            "componentType" : 5126,
            "count" : 174,
            "max" : [
                0.14753618836402893,
                0.1907958686351776,
                0.07234252244234085
            ],
            "min" : [
                -0.3943478465080261,
                -0.1924077570438385,
                -0.07234252244234085
            ],
            "type" : "VEC3"
        },
        {
            "bufferView" : 1,
            "componentType" : 5126,
            "count" : 174,
            "type" : "VEC3"
        },
        {
            "bufferView" : 2,
            "componentType" : 5123,
            "count" : 606,
            "type" : "SCALAR"
        },
        {
            "bufferView" : 3,
            "componentType" : 5126,
            "count" : 228,
            "max" : [
                0.1511736810207367,
                0.21488502621650696,
                0.08019509166479111
            ],
            "min" : [
                -0.31226885318756104,
                -0.19736669957637787,
                -0.08019509166479111
            ],
            "type" : "VEC3"
        },
        {
            "bufferView" : 4,
            "componentType" : 5126,
            "count" : 228,
            "type" : "VEC3"
        },
        {
            "bufferView" : 5,
            "componentType" : 5123,
            "count" : 756,
            "type" : "SCALAR"
        }
    ],
    "bufferViews" : [
        {
            "buffer" : 0,
            "byteLength" : 2088,
            "byteOffset" : 0
        },
        {
            "buffer" : 0,
            "byteLength" : 2088,
            "byteOffset" : 2088
        },
        {
            "buffer" : 0,
            "byteLength" : 1212,
            "byteOffset" : 4176
        },
        {
            "buffer" : 0,
            "byteLength" : 2736,
            "byteOffset" : 5388
        },
        {
            "buffer" : 0,
            "byteLength" : 2736,
            "byteOffset" : 8124
        },
        {
            "buffer" : 0,
            "byteLength" : 1512,
            "byteOffset" : 10860
        }
    ],
    "buffers" : [
        {
            "byteLength" : 12372,
            "uri" : "data:application/octet-stream;base64,"
        }
    ]
}
