{
    "asset" : {
        "generator" : "Khronos glTF Blender I/O v1.6.16",
        "version" : "2.0"
    },
    "scene" : 0,
    "scenes" : [
        {
            "name" : "Scene",
            "nodes" : [
                0
            ]
        }
    ],
    "nodes" : [
        {
            "mesh" : 0,
            "name" : "Stock_AR_6"
        }
    ],
    "materials" : [
        {
            "doubleSided" : true,
            "name" : "Main",
            "pbrMetallicRoughness" : {
                "baseColorFactor" : [
                    0.6151726245880127,
                    0.21127153933048248,
                    0.028615577146410942,
                    1
                ],
                "metallicFactor" : 0,
                "roughnessFactor" : 0.5
            }
        },
        {
            "doubleSided" : true,
            "name" : "Black",
            "pbrMetallicRoughness" : {
                "baseColorFactor" : [
                    0.0290982685983181,
                    0.0290982685983181,
                    0.0290982685983181,
                    1
                ],
                "metallicFactor" : 0,
                "roughnessFactor" : 0.5
            }
        }
    ],
    "meshes" : [
        {
            "name" : "Cube.031",
            "primitives" : [
                {
                    "attributes" : {
                        "POSITION" : 0,
                        "NORMAL" : 1
                    },
                    "indices" : 2,
                    "material" : 0
                },
                {
                    "attributes" : {
                        "POSITION" : 3,
                        "NORMAL" : 4
                    },
                    "indices" : 5,
                    "material" : 1
                }
            ]
        }
    ],
    "accessors" : [
        {
            "bufferView" : 0,
            "componentType" : 5126,
            "count" : 107,
            "max" : [
                0.2343057543039322,
                0.1766323745250702,
                0.07281443476676941
            ],
            "min" : [
                -0.004620024468749762,
                -0.2560794949531555,
                -0.07281443476676941
            ],
            "type" : "VEC3"
        },
        {
            "bufferView" : 1,
            "componentType" : 5126,
            "count" : 107,
            "type" : "VEC3"
        },
        {
            "bufferView" : 2,
            "componentType" : 5123,
            "count" : 324,
            "type" : "SCALAR"
        },
        {
            "bufferView" : 3,
            "componentType" : 5126,
            "count" : 153,
            "max" : [
                0.012588582001626492,
                0.16950012743473053,
                0.06921525299549103
            ],
            "min" : [
                -0.11362317949533463,
                -0.24955137073993683,
                -0.06921525299549103
            ],
            "type" : "VEC3"
        },
        {
            "bufferView" : 4,
            "componentType" : 5126,
            "count" : 153,
            "type" : "VEC3"
        },
        {
            "bufferView" : 5,
            "componentType" : 5123,
            "count" : 576,
            "type" : "SCALAR"
        }
    ],
    "bufferViews" : [
        {
            "buffer" : 0,
            "byteLength" : 1284,
            "byteOffset" : 0
        },
        {
            "buffer" : 0,
            "byteLength" : 1284,
            "byteOffset" : 1284
        },
        {
            "buffer" : 0,
            "byteLength" : 648,
            "byteOffset" : 2568
        },
        {
            "buffer" : 0,
            "byteLength" : 1836,
            "byteOffset" : 3216
        },
        {
            "buffer" : 0,
            "byteLength" : 1836,
            "byteOffset" : 5052
        },
        {
            "buffer" : 0,
            "byteLength" : 1152,
            "byteOffset" : 6888
        }
    ],
    "buffers" : [
        {
            "byteLength" : 8040,
            "uri" : "data:application/octet-stream;base64,"
        }
    ]
}
