{
    "asset" : {
        "generator" : "Khronos glTF Blender I/O v1.6.16",
        "version" : "2.0"
    },
    "scene" : 0,
    "scenes" : [
        {
            "name" : "Scene",
            "nodes" : [
                0
            ]
        }
    ],
    "nodes" : [
        {
            "mesh" : 0,
            "name" : "Stock_SMG_1"
        }
    ],
    "materials" : [
        {
            "doubleSided" : true,
            "name" : "Black",
            "pbrMetallicRoughness" : {
                "baseColorFactor" : [
                    0.0290982685983181,
                    0.0290982685983181,
                    0.0290982685983181,
                    1
                ],
                "metallicFactor" : 0,
                "roughnessFactor" : 0.5
            }
        },
        {
            "doubleSided" : true,
            "name" : "Grey",
            "pbrMetallicRoughness" : {
                "baseColorFactor" : [
                    0.10247143357992172,
                    0.10247143357992172,
                    0.10247143357992172,
                    1
                ],
                "metallicFactor" : 0,
                "roughnessFactor" : 0.5
            }
        },
        {
            "doubleSided" : true,
            "name" : "White",
            "pbrMetallicRoughness" : {
                "baseColorFactor" : [
                    0.4575273394584656,
                    0.4575273394584656,
                    0.4575273394584656,
                    1
                ],
                "metallicFactor" : 0,
                "roughnessFactor" : 0.5
            }
        },
        {
            "doubleSided" : true,
            "name" : "Main",
            "pbrMetallicRoughness" : {
                "baseColorFactor" : [
                    0.6151726245880127,
                    0.21127153933048248,
                    0.028615577146410942,
                    1
                ],
                "metallicFactor" : 0,
                "roughnessFactor" : 0.5
            }
        }
    ],
    "meshes" : [
        {
            "name" : "Cube.011",
            "primitives" : [
                {
                    "attributes" : {
                        "POSITION" : 0,
                        "NORMAL" : 1
                    },
                    "indices" : 2,
                    "material" : 0
                },
                {
                    "attributes" : {
                        "POSITION" : 3,
                        "NORMAL" : 4
                    },
                    "indices" : 5,
                    "material" : 1
                },
                {
                    "attributes" : {
                        "POSITION" : 6,
                        "NORMAL" : 7
                    },
                    "indices" : 8,
                    "material" : 2
                },
                {
                    "attributes" : {
                        "POSITION" : 9,
                        "NORMAL" : 10
                    },
                    "indices" : 11,
                    "material" : 3
                }
            ]
        }
    ],
    "accessors" : [
        {
            "bufferView" : 0,
            "componentType" : 5126,
            "count" : 328,
            "max" : [
                0.0020986199378967285,
                0.11420430988073349,
                0.04091032221913338
            ],
            "min" : [
                -0.5760658383369446,
                -0.28514692187309265,
                -0.04091036319732666
            ],
            "type" : "VEC3"
        },
        {
            "bufferView" : 1,
            "componentType" : 5126,
            "count" : 328,
            "type" : "VEC3"
        },
        {
            "bufferView" : 2,
            "componentType" : 5123,
            "count" : 744,
            "type" : "SCALAR"
        },
        {
            "bufferView" : 3,
            "componentType" : 5126,
            "count" : 102,
            "max" : [
                -0.032194823026657104,
                0.04009108245372772,
                0.0414571613073349
            ],
            "min" : [
                -0.47534435987472534,
                -0.2407827377319336,
                -0.04145718365907669
            ],
            "type" : "VEC3"
        },
        {
            "bufferView" : 4,
            "componentType" : 5126,
            "count" : 102,
            "type" : "VEC3"
        },
        {
            "bufferView" : 5,
            "componentType" : 5123,
            "count" : 216,
            "type" : "SCALAR"
        },
        {
            "bufferView" : 6,
            "componentType" : 5126,
            "count" : 99,
            "max" : [
                -0.20943161845207214,
                0.12276642769575119,
                0.04850035160779953
            ],
            "min" : [
                -0.515512228012085,
                -0.29024219512939453,
                -0.04850037395954132
            ],
            "type" : "VEC3"
        },
        {
            "bufferView" : 7,
            "componentType" : 5126,
            "count" : 99,
            "type" : "VEC3"
        },
        {
            "bufferView" : 8,
            "componentType" : 5123,
            "count" : 402,
            "type" : "SCALAR"
        },
        {
            "bufferView" : 9,
            "componentType" : 5126,
            "count" : 47,
            "max" : [
                -0.5155121684074402,
                0.12276642769575119,
                0.04850035160779953
            ],
            "min" : [
                -0.538291871547699,
                -0.29024219512939453,
                -0.04850037395954132
            ],
            "type" : "VEC3"
        },
        {
            "bufferView" : 10,
            "componentType" : 5126,
            "count" : 47,
            "type" : "VEC3"
        },
        {
            "bufferView" : 11,
            "componentType" : 5123,
            "count" : 126,
            "type" : "SCALAR"
        }
    ],
    "bufferViews" : [
        {
            "buffer" : 0,
            "byteLength" : 3936,
            "byteOffset" : 0
        },
        {
            "buffer" : 0,
            "byteLength" : 3936,
            "byteOffset" : 3936
        },
        {
            "buffer" : 0,
            "byteLength" : 1488,
            "byteOffset" : 7872
        },
        {
            "buffer" : 0,
            "byteLength" : 1224,
            "byteOffset" : 9360
        },
        {
            "buffer" : 0,
            "byteLength" : 1224,
            "byteOffset" : 10584
        },
        {
            "buffer" : 0,
            "byteLength" : 432,
            "byteOffset" : 11808
        },
        {
            "buffer" : 0,
            "byteLength" : 1188,
            "byteOffset" : 12240
        },
        {
            "buffer" : 0,
            "byteLength" : 1188,
            "byteOffset" : 13428
        },
        {
            "buffer" : 0,
            "byteLength" : 804,
            "byteOffset" : 14616
        },
        {
            "buffer" : 0,
            "byteLength" : 564,
            "byteOffset" : 15420
        },
        {
            "buffer" : 0,
            "byteLength" : 564,
            "byteOffset" : 15984
        },
        {
            "buffer" : 0,
            "byteLength" : 252,
            "byteOffset" : 16548
        }
    ],
    "buffers" : [
        {
            "byteLength" : 16800,
            "uri" : "data:application/octet-stream;base64,"
        }
    ]
}
