{
    "asset" : {
        "generator" : "Khronos glTF Blender I/O v1.6.16",
        "version" : "2.0"
    },
    "scene" : 0,
    "scenes" : [
        {
            "name" : "Scene",
            "nodes" : [
                0
            ]
        }
    ],
    "nodes" : [
        {
            "mesh" : 0,
            "name" : "Stock_Grenade_1"
        }
    ],
    "materials" : [
        {
            "doubleSided" : true,
            "name" : "Black",
            "pbrMetallicRoughness" : {
                "baseColorFactor" : [
                    0.0290982685983181,
                    0.0290982685983181,
                    0.0290982685983181,
                    1
                ],
                "metallicFactor" : 0,
                "roughnessFactor" : 0.5
            }
        },
        {
            "doubleSided" : true,
            "name" : "Grey",
            "pbrMetallicRoughness" : {
                "baseColorFactor" : [
                    0.10247143357992172,
                    0.10247143357992172,
                    0.10247143357992172,
                    1
                ],
                "metallicFactor" : 0,
                "roughnessFactor" : 0.5
            }
        },
        {
            "doubleSided" : true,
            "name" : "White",
            "pbrMetallicRoughness" : {
                "baseColorFactor" : [
                    0.4575273394584656,
                    0.4575273394584656,
                    0.4575273394584656,
                    1
                ],
                "metallicFactor" : 0,
                "roughnessFactor" : 0.5
            }
        },
        {
            "doubleSided" : true,
            "name" : "Main",
            "pbrMetallicRoughness" : {
                "baseColorFactor" : [
                    0.6151726245880127,
                    0.21127153933048248,
                    0.028615577146410942,
                    1
                ],
                "metallicFactor" : 0,
                "roughnessFactor" : 0.5
            }
        }
    ],
    "meshes" : [
        {
            "name" : "Cube.233",
            "primitives" : [
                {
                    "attributes" : {
                        "POSITION" : 0,
                        "NORMAL" : 1
                    },
                    "indices" : 2,
                    "material" : 0
                },
                {
                    "attributes" : {
                        "POSITION" : 3,
                        "NORMAL" : 4
                    },
                    "indices" : 5,
                    "material" : 1
                },
                {
                    "attributes" : {
                        "POSITION" : 6,
                        "NORMAL" : 7
                    },
                    "indices" : 8,
                    "material" : 2
                },
                {
                    "attributes" : {
                        "POSITION" : 9,
                        "NORMAL" : 10
                    },
                    "indices" : 11,
                    "material" : 3
                }
            ]
        }
    ],
    "accessors" : [
        {
            "bufferView" : 0,
            "componentType" : 5126,
            "count" : 336,
            "max" : [
                2.8861546041980546e-08,
                0.099571093916893,
                0.04346618801355362
            ],
            "min" : [
                -0.6669071912765503,
                -0.3200896680355072,
                -0.04346620291471481
            ],
            "type" : "VEC3"
        },
        {
            "bufferView" : 1,
            "componentType" : 5126,
            "count" : 336,
            "type" : "VEC3"
        },
        {
            "bufferView" : 2,
            "componentType" : 5123,
            "count" : 768,
            "type" : "SCALAR"
        },
        {
            "bufferView" : 3,
            "componentType" : 5126,
            "count" : 110,
            "max" : [
                -0.10482202470302582,
                0.018949059769511223,
                0.041457176208496094
            ],
            "min" : [
                -0.5479714870452881,
                -0.26192477345466614,
                -0.041457176208496094
            ],
            "type" : "VEC3"
        },
        {
            "bufferView" : 4,
            "componentType" : 5126,
            "count" : 110,
            "type" : "VEC3"
        },
        {
            "bufferView" : 5,
            "componentType" : 5123,
            "count" : 234,
            "type" : "SCALAR"
        },
        {
            "bufferView" : 6,
            "componentType" : 5126,
            "count" : 78,
            "max" : [
                -0.23940123617649078,
                0.11256056278944016,
                0.05471840873360634
            ],
            "min" : [
                -0.5964009761810303,
                -0.3292735815048218,
                -0.05471840873360634
            ],
            "type" : "VEC3"
        },
        {
            "bufferView" : 7,
            "componentType" : 5126,
            "count" : 78,
            "type" : "VEC3"
        },
        {
            "bufferView" : 8,
            "componentType" : 5123,
            "count" : 234,
            "type" : "SCALAR"
        },
        {
            "bufferView" : 9,
            "componentType" : 5126,
            "count" : 33,
            "max" : [
                -0.5964008569717407,
                0.11256056278944016,
                0.05471840873360634
            ],
            "min" : [
                -0.6207704544067383,
                -0.3292735815048218,
                -0.05471840873360634
            ],
            "type" : "VEC3"
        },
        {
            "bufferView" : 10,
            "componentType" : 5126,
            "count" : 33,
            "type" : "VEC3"
        },
        {
            "bufferView" : 11,
            "componentType" : 5123,
            "count" : 72,
            "type" : "SCALAR"
        }
    ],
    "bufferViews" : [
        {
            "buffer" : 0,
            "byteLength" : 4032,
            "byteOffset" : 0
        },
        {
            "buffer" : 0,
            "byteLength" : 4032,
            "byteOffset" : 4032
        },
        {
            "buffer" : 0,
            "byteLength" : 1536,
            "byteOffset" : 8064
        },
        {
            "buffer" : 0,
            "byteLength" : 1320,
            "byteOffset" : 9600
        },
        {
            "buffer" : 0,
            "byteLength" : 1320,
            "byteOffset" : 10920
        },
        {
            "buffer" : 0,
            "byteLength" : 468,
            "byteOffset" : 12240
        },
        {
            "buffer" : 0,
            "byteLength" : 936,
            "byteOffset" : 12708
        },
        {
            "buffer" : 0,
            "byteLength" : 936,
            "byteOffset" : 13644
        },
        {
            "buffer" : 0,
            "byteLength" : 468,
            "byteOffset" : 14580
        },
        {
            "buffer" : 0,
            "byteLength" : 396,
            "byteOffset" : 15048
        },
        {
            "buffer" : 0,
            "byteLength" : 396,
            "byteOffset" : 15444
        },
        {
            "buffer" : 0,
            "byteLength" : 144,
            "byteOffset" : 15840
        }
    ],
    "buffers" : [
        {
            "byteLength" : 15984,
            "uri" : "data:application/octet-stream;base64,"
        }
    ]
}
