{
    "asset" : {
        "generator" : "Khronos glTF Blender I/O v1.6.16",
        "version" : "2.0"
    },
    "scene" : 0,
    "scenes" : [
        {
            "name" : "Scene",
            "nodes" : [
                0
            ]
        }
    ],
    "nodes" : [
        {
            "mesh" : 0,
            "name" : "Stock_2"
        }
    ],
    "materials" : [
        {
            "doubleSided" : true,
            "name" : "Black",
            "pbrMetallicRoughness" : {
                "baseColorFactor" : [
                    0.0290982685983181,
                    0.0290982685983181,
                    0.0290982685983181,
                    1
                ],
                "metallicFactor" : 0,
                "roughnessFactor" : 0.5
            }
        },
        {
            "doubleSided" : true,
            "name" : "Grey",
            "pbrMetallicRoughness" : {
                "baseColorFactor" : [
                    0.10247143357992172,
                    0.10247143357992172,
                    0.10247143357992172,
                    1
                ],
                "metallicFactor" : 0,
                "roughnessFactor" : 0.5
            }
        },
        {
            "doubleSided" : true,
            "name" : "White",
            "pbrMetallicRoughness" : {
                "baseColorFactor" : [
                    0.4575273394584656,
                    0.4575273394584656,
                    0.4575273394584656,
                    1
                ],
                "metallicFactor" : 0,
                "roughnessFactor" : 0.5
            }
        },
        {
            "doubleSided" : true,
            "name" : "Main",
            "pbrMetallicRoughness" : {
                "baseColorFactor" : [
                    0.6151726245880127,
                    0.21127153933048248,
                    0.028615577146410942,
                    1
                ],
                "metallicFactor" : 0,
                "roughnessFactor" : 0.5
            }
        }
    ],
    "meshes" : [
        {
            "name" : "Cube.017",
            "primitives" : [
                {
                    "attributes" : {
                        "POSITION" : 0,
                        "NORMAL" : 1
                    },
                    "indices" : 2,
                    "material" : 0
                },
                {
                    "attributes" : {
                        "POSITION" : 3,
                        "NORMAL" : 4
                    },
                    "indices" : 5,
                    "material" : 1
                },
                {
                    "attributes" : {
                        "POSITION" : 6,
                        "NORMAL" : 7
                    },
                    "indices" : 8,
                    "material" : 2
                },
                {
                    "attributes" : {
                        "POSITION" : 9,
                        "NORMAL" : 10
                    },
                    "indices" : 11,
                    "material" : 3
                }
            ]
        }
    ],
    "accessors" : [
        {
            "bufferView" : 0,
            "componentType" : 5126,
            "count" : 573,
            "max" : [
                -0.2755756378173828,
                0.11348560452461243,
                0.05592457205057144
            ],
            "min" : [
                -1.1172986030578613,
                -0.3306129574775696,
                -0.05592457205057144
            ],
            "type" : "VEC3"
        },
        {
            "bufferView" : 1,
            "componentType" : 5126,
            "count" : 573,
            "type" : "VEC3"
        },
        {
            "bufferView" : 2,
            "componentType" : 5123,
            "count" : 1956,
            "type" : "SCALAR"
        },
        {
            "bufferView" : 3,
            "componentType" : 5126,
            "count" : 145,
            "max" : [
                -4.1230780567502734e-08,
                0.03961928188800812,
                0.03866736218333244
            ],
            "min" : [
                -0.6977691650390625,
                -0.29171818494796753,
                -0.03866736218333244
            ],
            "type" : "VEC3"
        },
        {
            "bufferView" : 4,
            "componentType" : 5126,
            "count" : 145,
            "type" : "VEC3"
        },
        {
            "bufferView" : 5,
            "componentType" : 5123,
            "count" : 360,
            "type" : "SCALAR"
        },
        {
            "bufferView" : 6,
            "componentType" : 5126,
            "count" : 297,
            "max" : [
                -0.39146503806114197,
                0.12973888218402863,
                0.05494178459048271
            ],
            "min" : [
                -1.033555030822754,
                -0.3340103328227997,
                -0.05494178459048271
            ],
            "type" : "VEC3"
        },
        {
            "bufferView" : 7,
            "componentType" : 5126,
            "count" : 297,
            "type" : "VEC3"
        },
        {
            "bufferView" : 8,
            "componentType" : 5123,
            "count" : 876,
            "type" : "SCALAR"
        },
        {
            "bufferView" : 9,
            "componentType" : 5126,
            "count" : 139,
            "max" : [
                -0.8550574779510498,
                0.13455836474895477,
                0.05773899331688881
            ],
            "min" : [
                -0.963217556476593,
                -0.09164167195558548,
                -0.05773899331688881
            ],
            "type" : "VEC3"
        },
        {
            "bufferView" : 10,
            "componentType" : 5126,
            "count" : 139,
            "type" : "VEC3"
        },
        {
            "bufferView" : 11,
            "componentType" : 5123,
            "count" : 330,
            "type" : "SCALAR"
        }
    ],
    "bufferViews" : [
        {
            "buffer" : 0,
            "byteLength" : 6876,
            "byteOffset" : 0
        },
        {
            "buffer" : 0,
            "byteLength" : 6876,
            "byteOffset" : 6876
        },
        {
            "buffer" : 0,
            "byteLength" : 3912,
            "byteOffset" : 13752
        },
        {
            "buffer" : 0,
            "byteLength" : 1740,
            "byteOffset" : 17664
        },
        {
            "buffer" : 0,
            "byteLength" : 1740,
            "byteOffset" : 19404
        },
        {
            "buffer" : 0,
            "byteLength" : 720,
            "byteOffset" : 21144
        },
        {
            "buffer" : 0,
            "byteLength" : 3564,
            "byteOffset" : 21864
        },
        {
            "buffer" : 0,
            "byteLength" : 3564,
            "byteOffset" : 25428
        },
        {
            "buffer" : 0,
            "byteLength" : 1752,
            "byteOffset" : 28992
        },
        {
            "buffer" : 0,
            "byteLength" : 1668,
            "byteOffset" : 30744
        },
        {
            "buffer" : 0,
            "byteLength" : 1668,
            "byteOffset" : 32412
        },
        {
            "buffer" : 0,
            "byteLength" : 660,
            "byteOffset" : 34080
        }
    ],
    "buffers" : [
        {
            "byteLength" : 34740,
            "uri" : "data:application/octet-stream;base64,"
        }
    ]
}
