{
    "asset" : {
        "generator" : "Khronos glTF Blender I/O v1.6.16",
        "version" : "2.0"
    },
    "scene" : 0,
    "scenes" : [
        {
            "name" : "Scene",
            "nodes" : [
                0
            ]
        }
    ],
    "nodes" : [
        {
            "mesh" : 0,
            "name" : "Stock_Sniper_3"
        }
    ],
    "materials" : [
        {
            "doubleSided" : true,
            "name" : "Black",
            "pbrMetallicRoughness" : {
                "baseColorFactor" : [
                    0.0290982685983181,
                    0.0290982685983181,
                    0.0290982685983181,
                    1
                ],
                "metallicFactor" : 0,
                "roughnessFactor" : 0.5
            }
        },
        {
            "doubleSided" : true,
            "name" : "Grey",
            "pbrMetallicRoughness" : {
                "baseColorFactor" : [
                    0.10247143357992172,
                    0.10247143357992172,
                    0.10247143357992172,
                    1
                ],
                "metallicFactor" : 0,
                "roughnessFactor" : 0.5
            }
        }
    ],
    "meshes" : [
        {
            "name" : "Cube.252",
            "primitives" : [
                {
                    "attributes" : {
                        "POSITION" : 0,
                        "NORMAL" : 1
                    },
                    "indices" : 2,
                    "material" : 0
                },
                {
                    "attributes" : {
                        "POSITION" : 3,
                        "NORMAL" : 4
                    },
                    "indices" : 5,
                    "material" : 1
                }
            ]
        }
    ],
    "accessors" : [
        {
            "bufferView" : 0,
            "componentType" : 5126,
            "count" : 490,
            "max" : [
                0.05965506657958031,
                0.13824261724948883,
                0.03899718448519707
            ],
            "min" : [
                -0.08248227089643478,
                -0.1492459625005722,
                -0.03899718448519707
            ],
            "type" : "VEC3"
        },
        {
            "bufferView" : 1,
            "componentType" : 5126,
            "count" : 490,
            "type" : "VEC3"
        },
        {
            "bufferView" : 2,
            "componentType" : 5123,
            "count" : 1728,
            "type" : "SCALAR"
        },
        {
            "bufferView" : 3,
            "componentType" : 5126,
            "count" : 92,
            "max" : [
                0.09774788469076157,
                0.1352946162223816,
                0.01247398555278778
            ],
            "min" : [
                -0.021295268088579178,
                -0.126361683011055,
                -0.012473983690142632
            ],
            "type" : "VEC3"
        },
        {
            "bufferView" : 4,
            "componentType" : 5126,
            "count" : 92,
            "type" : "VEC3"
        },
        {
            "bufferView" : 5,
            "componentType" : 5123,
            "count" : 228,
            "type" : "SCALAR"
        }
    ],
    "bufferViews" : [
        {
            "buffer" : 0,
            "byteLength" : 5880,
            "byteOffset" : 0
        },
        {
            "buffer" : 0,
            "byteLength" : 5880,
            "byteOffset" : 5880
        },
        {
            "buffer" : 0,
            "byteLength" : 3456,
            "byteOffset" : 11760
        },
        {
            "buffer" : 0,
            "byteLength" : 1104,
            "byteOffset" : 15216
        },
        {
            "buffer" : 0,
            "byteLength" : 1104,
            "byteOffset" : 16320
        },
        {
            "buffer" : 0,
            "byteLength" : 456,
            "byteOffset" : 17424
        }
    ],
    "buffers" : [
        {
            "byteLength" : 17880,
            "uri" : "data:application/octet-stream;base64,"
        }
    ]
}
