{
    "asset" : {
        "generator" : "Khronos glTF Blender I/O v1.6.16",
        "version" : "2.0"
    },
    "scene" : 0,
    "scenes" : [
        {
            "name" : "Scene",
            "nodes" : [
                0
            ]
        }
    ],
    "nodes" : [
        {
            "mesh" : 0,
            "name" : "Stock_AR_4"
        }
    ],
    "materials" : [
        {
            "doubleSided" : true,
            "name" : "Black",
            "pbrMetallicRoughness" : {
                "baseColorFactor" : [
                    0.0290982685983181,
                    0.0290982685983181,
                    0.0290982685983181,
                    1
                ],
                "metallicFactor" : 0,
                "roughnessFactor" : 0.5
            }
        },
        {
            "doubleSided" : true,
            "name" : "Grey",
            "pbrMetallicRoughness" : {
                "baseColorFactor" : [
                    0.10247143357992172,
                    0.10247143357992172,
                    0.10247143357992172,
                    1
                ],
                "metallicFactor" : 0,
                "roughnessFactor" : 0.5
            }
        }
    ],
    "meshes" : [
        {
            "name" : "Cube.022",
            "primitives" : [
                {
                    "attributes" : {
                        "POSITION" : 0,
                        "NORMAL" : 1
                    },
                    "indices" : 2,
                    "material" : 0
                },
                {
                    "attributes" : {
                        "POSITION" : 3,
                        "NORMAL" : 4
                    },
                    "indices" : 5,
                    "material" : 1
                }
            ]
        }
    ],
    "accessors" : [
        {
            "bufferView" : 0,
            "componentType" : 5126,
            "count" : 254,
            "max" : [
                0.22124263644218445,
                0.18576988577842712,
                0.06862537562847137
            ],
            "min" : [
                -0.06180308759212494,
                -0.24000105261802673,
                -0.06862537562847137
            ],
            "type" : "VEC3"
        },
        {
            "bufferView" : 1,
            "componentType" : 5126,
            "count" : 254,
            "type" : "VEC3"
        },
        {
            "bufferView" : 2,
            "componentType" : 5123,
            "count" : 984,
            "type" : "SCALAR"
        },
        {
            "bufferView" : 3,
            "componentType" : 5126,
            "count" : 252,
            "max" : [
                -0.016358064487576485,
                0.19463573396205902,
                0.0730527862906456
            ],
            "min" : [
                -0.13535358011722565,
                -0.2519923448562622,
                -0.0730527862906456
            ],
            "type" : "VEC3"
        },
        {
            "bufferView" : 4,
            "componentType" : 5126,
            "count" : 252,
            "type" : "VEC3"
        },
        {
            "bufferView" : 5,
            "componentType" : 5123,
            "count" : 1032,
            "type" : "SCALAR"
        }
    ],
    "bufferViews" : [
        {
            "buffer" : 0,
            "byteLength" : 3048,
            "byteOffset" : 0
        },
        {
            "buffer" : 0,
            "byteLength" : 3048,
            "byteOffset" : 3048
        },
        {
            "buffer" : 0,
            "byteLength" : 1968,
            "byteOffset" : 6096
        },
        {
            "buffer" : 0,
            "byteLength" : 3024,
            "byteOffset" : 8064
        },
        {
            "buffer" : 0,
            "byteLength" : 3024,
            "byteOffset" : 11088
        },
        {
            "buffer" : 0,
            "byteLength" : 2064,
            "byteOffset" : 14112
        }
    ],
    "buffers" : [
        {
            "byteLength" : 16176,
            "uri" : "data:application/octet-stream;base64,"
        }
    ]
}
