{
    "asset" : {
        "generator" : "Khronos glTF Blender I/O v1.6.16",
        "version" : "2.0"
    },
    "scene" : 0,
    "scenes" : [
        {
            "name" : "Scene",
            "nodes" : [
                0
            ]
        }
    ],
    "nodes" : [
        {
            "mesh" : 0,
            "name" : "Stock_AR_1"
        }
    ],
    "materials" : [
        {
            "doubleSided" : true,
            "name" : "Black",
            "pbrMetallicRoughness" : {
                "baseColorFactor" : [
                    0.0290982685983181,
                    0.0290982685983181,
                    0.0290982685983181,
                    1
                ],
                "metallicFactor" : 0,
                "roughnessFactor" : 0.5
            }
        },
        {
            "doubleSided" : true,
            "name" : "Grey",
            "pbrMetallicRoughness" : {
                "baseColorFactor" : [
                    0.10247143357992172,
                    0.10247143357992172,
                    0.10247143357992172,
                    1
                ],
                "metallicFactor" : 0,
                "roughnessFactor" : 0.5
            }
        },
        {
            "doubleSided" : true,
            "name" : "White",
            "pbrMetallicRoughness" : {
                "baseColorFactor" : [
                    0.4575273394584656,
                    0.4575273394584656,
                    0.4575273394584656,
                    1
                ],
                "metallicFactor" : 0,
                "roughnessFactor" : 0.5
            }
        },
        {
            "doubleSided" : true,
            "name" : "Main",
            "pbrMetallicRoughness" : {
                "baseColorFactor" : [
                    0.6151726245880127,
                    0.21127153933048248,
                    0.028615577146410942,
                    1
                ],
                "metallicFactor" : 0,
                "roughnessFactor" : 0.5
            }
        }
    ],
    "meshes" : [
        {
            "name" : "Cube.237",
            "primitives" : [
                {
                    "attributes" : {
                        "POSITION" : 0,
                        "NORMAL" : 1
                    },
                    "indices" : 2,
                    "material" : 0
                },
                {
                    "attributes" : {
                        "POSITION" : 3,
                        "NORMAL" : 4
                    },
                    "indices" : 5,
                    "material" : 1
                },
                {
                    "attributes" : {
                        "POSITION" : 6,
                        "NORMAL" : 7
                    },
                    "indices" : 8,
                    "material" : 2
                },
                {
                    "attributes" : {
                        "POSITION" : 9,
                        "NORMAL" : 10
                    },
                    "indices" : 11,
                    "material" : 3
                }
            ]
        }
    ],
    "accessors" : [
        {
            "bufferView" : 0,
            "componentType" : 5126,
            "count" : 347,
            "max" : [
                -0.33246129751205444,
                0.1170606017112732,
                0.03330598399043083
            ],
            "min" : [
                -0.7725458145141602,
                -0.20371101796627045,
                -0.033305976539850235
            ],
            "type" : "VEC3"
        },
        {
            "bufferView" : 1,
            "componentType" : 5126,
            "count" : 347,
            "type" : "VEC3"
        },
        {
            "bufferView" : 2,
            "componentType" : 5123,
            "count" : 666,
            "type" : "SCALAR"
        },
        {
            "bufferView" : 3,
            "componentType" : 5126,
            "count" : 174,
            "max" : [
                0,
                0.060868509113788605,
                0.02420387603342533
            ],
            "min" : [
                -0.5559816956520081,
                -0.28325772285461426,
                -0.02420387603342533
            ],
            "type" : "VEC3"
        },
        {
            "bufferView" : 4,
            "componentType" : 5126,
            "count" : 174,
            "type" : "VEC3"
        },
        {
            "bufferView" : 5,
            "componentType" : 5123,
            "count" : 396,
            "type" : "SCALAR"
        },
        {
            "bufferView" : 6,
            "componentType" : 5126,
            "count" : 123,
            "max" : [
                -0.3010353147983551,
                0.1280275285243988,
                0.03731374070048332
            ],
            "min" : [
                -0.690183699131012,
                -0.3146493136882782,
                -0.03731374815106392
            ],
            "type" : "VEC3"
        },
        {
            "bufferView" : 7,
            "componentType" : 5126,
            "count" : 123,
            "type" : "VEC3"
        },
        {
            "bufferView" : 8,
            "componentType" : 5123,
            "count" : 336,
            "type" : "SCALAR"
        },
        {
            "bufferView" : 9,
            "componentType" : 5126,
            "count" : 86,
            "max" : [
                -0.6072757840156555,
                0.1280275285243988,
                0.03731374070048332
            ],
            "min" : [
                -0.7461633086204529,
                -0.21907860040664673,
                -0.03731374815106392
            ],
            "type" : "VEC3"
        },
        {
            "bufferView" : 10,
            "componentType" : 5126,
            "count" : 86,
            "type" : "VEC3"
        },
        {
            "bufferView" : 11,
            "componentType" : 5123,
            "count" : 246,
            "type" : "SCALAR"
        }
    ],
    "bufferViews" : [
        {
            "buffer" : 0,
            "byteLength" : 4164,
            "byteOffset" : 0
        },
        {
            "buffer" : 0,
            "byteLength" : 4164,
            "byteOffset" : 4164
        },
        {
            "buffer" : 0,
            "byteLength" : 1332,
            "byteOffset" : 8328
        },
        {
            "buffer" : 0,
            "byteLength" : 2088,
            "byteOffset" : 9660
        },
        {
            "buffer" : 0,
            "byteLength" : 2088,
            "byteOffset" : 11748
        },
        {
            "buffer" : 0,
            "byteLength" : 792,
            "byteOffset" : 13836
        },
        {
            "buffer" : 0,
            "byteLength" : 1476,
            "byteOffset" : 14628
        },
        {
            "buffer" : 0,
            "byteLength" : 1476,
            "byteOffset" : 16104
        },
        {
            "buffer" : 0,
            "byteLength" : 672,
            "byteOffset" : 17580
        },
        {
            "buffer" : 0,
            "byteLength" : 1032,
            "byteOffset" : 18252
        },
        {
            "buffer" : 0,
            "byteLength" : 1032,
            "byteOffset" : 19284
        },
        {
            "buffer" : 0,
            "byteLength" : 492,
            "byteOffset" : 20316
        }
    ],
    "buffers" : [
        {
            "byteLength" : 20808,
            "uri" : "data:application/octet-stream;base64,"
        }
    ]
}
