{
  "accessors": [
    {
      "bufferView": 2,
      "componentType": 5126,
      "count": 266,
      "max": [
        4.0,
        21.408884048461914,
        4.0
      ],
      "min": [
        -4.0,
        0.0,
        -4.0
      ],
      "type": "VEC3"
    },
    {
      "bufferView": 2,
      "byteOffset": 3192,
      "componentType": 5126,
      "count": 266,
      "max": [
        0.9238796234130859,
        1.0,
        0.9238796234130859
      ],
      "min": [
        -0.9238796234130859,
        -1.0,
        -0.9238796234130859
      ],
      "type": "VEC3"
    },
    {
      "bufferView": 1,
      "componentType": 5126,
      "count": 266,
      "max": [
        0.5799999833106995,
        0.9700000286102295
      ],
      "min": [
        0.039999984204769135,
        0.08500003814697266
      ],
      "type": "VEC2"
    },
    {
      "bufferView": 0,
      "componentType": 5125,
      "count": 276,
      "type": "SCALAR"
    }
  ],
  "asset": {
    "extras": {
      "author": "Islide (https://sketchfab.com/Islide)",
      "license": "CC-BY-4.0 (http://creativecommons.org/licenses/by/4.0/)",
      "source": "https://sketchfab.com/3d-models/water-bottle-low-poly-c1d1cb3a3e874b6796dff574e73c849a",
      "title": "Water bottle [Low Poly]"
    },
    "generator": "Sketchfab-12.66.0",
    "version": "2.0"
  },
  "bufferViews": [
    {
      "buffer": 0,
      "byteLength": 1104,
      "name": "floatBufferViews",
      "target": 34963
    },
    {
      "buffer": 0,
      "byteLength": 2128,
      "byteOffset": 1104,
      "byteStride": 8,
      "name": "floatBufferViews",
      "target": 34962
    },
    {
      "buffer": 0,
      "byteLength": 6384,
      "byteOffset": 3232,
      "byteStride": 12,
      "name": "floatBufferViews",
      "target": 34962
    }
  ],
  "buffers": [
    {
      "byteLength": 9616,
      "uri": "scene.bin"
    }
  ],
  "images": [
    {
      "uri": "textures/RGB_texture_baseColor.png"
    }
  ],
  "materials": [
    {
      "doubleSided": true,
      "name": "RGB_texture",
      "pbrMetallicRoughness": {
        "baseColorTexture": {
          "index": 0
        },
        "metallicFactor": 0.0,
        "roughnessFactor": 0.6
      }
    }
  ],
  "meshes": [
    {
      "name": "Water_bottle_01_RGB_texture_0",
      "primitives": [
        {
          "attributes": {
            "NORMAL": 1,
            "POSITION": 0,
            "TEXCOORD_0": 2
          },
          "indices": 3,
          "material": 0,
          "mode": 4
        }
      ]
    }
  ],
  "nodes": [
    {
      "children": [
        1
      ],
      "matrix": [
        0.013852177187800407,
        0.0,
        0.0,
        0.0,
        0.0,
        3.0758012110166727e-18,
        -0.013852177187800407,
        0.0,
        0.0,
        0.013852177187800407,
        3.0758012110166727e-18,
        0.0,
        0.0,
        0.0,
        0.0,
        1.0
      ],
      "name": "Sketchfab_model"
    },
    {
      "children": [
        2
      ],
      "matrix": [
        1.0,
        0.0,
        0.0,
        0.0,
        0.0,
        0.0,
        1.0,
        0.0,
        0.0,
        -1.0,
        0.0,
        0.0,
        0.0,
        0.0,
        0.0,
        1.0
      ],
      "name": "d29a4dae1ebb4be29545fb45126e257b.fbx"
    },
    {
      "children": [
        3
      ],
      "name": "RootNode"
    },
    {
      "children": [
        4
      ],
      "matrix": [
        -1.0,
        -1.2246467991473535e-16,
        1.224646799147353e-16,
        0.0,
        -1.2246467991473535e-16,
        1.0,
        -1.2246467991473535e-16,
        0.0,
        -1.224646799147353e-16,
        -1.2246467991473535e-16,
        -1.0,
        0.0,
        0.0,
        0.0,
        0.0,
        1.0
      ],
      "name": "Water_bottle_01"
    },
    {
      "mesh": 0,
      "name": "Water_bottle_01_RGB_texture_0"
    }
  ],
  "samplers": [
    {
      "magFilter": 9729,
      "minFilter": 9987,
      "wrapS": 10497,
      "wrapT": 10497
    }
  ],
  "scene": 0,
  "scenes": [
    {
      "name": "Sketchfab_Scene",
      "nodes": [
        0
      ]
    }
  ],
  "textures": [
    {
      "sampler": 0,
      "source": 0
    }
  ]
}
